<svg width="352" height="392" viewBox="0 0 352 392" fill="none" xmlns="http://www.w3.org/2000/svg">
<g filter="url(#filter0_d)">
<path d="M317.684 76.0552C371.472 155.203 351.575 263.448 273.309 317.819C195.042 372.219 88.021 352.109 34.2385 272.944C-19.5495 193.796 0.347122 85.5406 78.6135 31.1802C156.88 -23.1634 263.901 -3.08186 317.628 76.0552" fill="#2CA4FF"/>
</g>
<path d="M154.102 321.003C133.734 318.923 114.658 313.112 97.2284 304.605C118.071 318.92 142.159 327.752 167.229 330.274C245.349 338.237 314.777 284.643 327.766 208.941C291.496 277.5 233.053 329.049 154.074 321.002" fill="white"/>
<path d="M176.958 251.225C218.459 251.225 252.102 217.201 252.102 175.229C252.102 133.258 218.459 99.2336 176.958 99.2336C135.458 99.2336 101.815 133.258 101.815 175.229C101.815 217.201 135.458 251.225 176.958 251.225Z" fill="#4F39D8" fill-opacity="0.49"/>
<path d="M125.177 133H227.836C230.228 133.017 232.581 133.619 234.687 134.753C236.794 135.888 238.591 137.521 239.922 139.51C241.252 141.498 242.076 143.783 242.321 146.163C242.566 148.543 242.225 150.947 241.328 153.165L189.265 242.992C187.997 245.284 186.138 247.195 183.881 248.525C181.624 249.856 179.052 250.557 176.433 250.557C173.813 250.557 171.241 249.856 168.984 248.525C166.728 247.195 164.869 245.284 163.6 242.992L111.538 153.165C110.657 150.998 110.308 148.651 110.519 146.321C110.731 143.992 111.496 141.746 112.752 139.773C114.008 137.799 115.718 136.154 117.739 134.976C119.76 133.798 122.034 133.12 124.37 133" fill="#FFC600"/>
<path d="M160.779 164.047L160.093 169.197L159.083 165.436L156.384 165.743L156.745 174.523L158.924 175.64L151.902 176.308L154.459 174.453L154.908 165.831L152.122 165.726L151.041 168.925L150.698 164.196L160.779 164.047ZM169.023 170.524C169.023 170.835 169.005 171.169 168.97 171.526C168.935 171.884 168.882 172.247 168.812 172.616C168.748 172.985 168.668 173.349 168.575 173.706C168.487 174.058 168.39 174.383 168.285 174.682L170.157 176L166.843 175.859L167.045 174.778C166.694 175.218 166.287 175.555 165.824 175.789C165.367 176.018 164.836 176.155 164.233 176.202C163.741 176.237 163.31 176.202 162.941 176.097C162.578 175.997 162.273 175.842 162.027 175.631C161.787 175.414 161.608 175.15 161.491 174.84C161.374 174.523 161.315 174.172 161.315 173.785C161.315 173.428 161.403 173.082 161.579 172.748C161.754 172.408 162.006 172.109 162.334 171.852C162.668 171.594 163.076 171.389 163.556 171.236C164.037 171.078 164.582 170.999 165.191 170.999C165.472 170.999 165.794 171.025 166.158 171.078C166.527 171.131 166.875 171.242 167.204 171.412C167.174 171.055 167.119 170.691 167.037 170.322C166.96 169.947 166.846 169.607 166.694 169.303C166.542 168.998 166.342 168.752 166.096 168.564C165.856 168.371 165.554 168.274 165.191 168.274C164.88 168.274 164.579 168.339 164.286 168.468C163.993 168.597 163.717 168.781 163.459 169.021C163.208 169.262 162.979 169.555 162.774 169.9C162.569 170.246 162.396 170.636 162.255 171.069L161.517 166.763L162.633 168.477C162.909 168.137 163.187 167.867 163.468 167.668C163.75 167.463 164.028 167.308 164.303 167.202C164.584 167.091 164.854 167.018 165.112 166.982C165.375 166.947 165.627 166.93 165.868 166.93C166.319 166.953 166.735 167.047 167.116 167.211C167.502 167.369 167.836 167.601 168.118 167.905C168.399 168.204 168.619 168.573 168.777 169.013C168.941 169.452 169.023 169.956 169.023 170.524ZM167.204 173.337C167.215 173.173 167.224 173.015 167.23 172.862C167.236 172.71 167.239 172.561 167.239 172.414V172.309C167.028 172.227 166.814 172.165 166.597 172.124C166.386 172.077 166.19 172.045 166.008 172.027C165.827 172.004 165.671 171.992 165.542 171.992C165.419 171.986 165.337 171.983 165.296 171.983C164.962 171.995 164.672 172.057 164.426 172.168C164.18 172.279 163.975 172.42 163.811 172.59C163.653 172.754 163.533 172.938 163.451 173.144C163.375 173.349 163.336 173.551 163.336 173.75C163.336 174.201 163.445 174.544 163.662 174.778C163.884 175.007 164.207 175.121 164.628 175.121C164.91 175.121 165.176 175.071 165.428 174.972C165.68 174.872 165.915 174.74 166.131 174.576C166.354 174.406 166.553 174.216 166.729 174.005C166.911 173.788 167.069 173.565 167.204 173.337ZM173.286 168.318C173.42 168.154 173.567 168.005 173.725 167.87C173.883 167.729 174.056 167.609 174.244 167.51C174.431 167.404 174.63 167.322 174.841 167.264C175.058 167.205 175.29 167.176 175.536 167.176C175.987 167.193 176.415 167.299 176.819 167.492C177.229 167.686 177.586 167.964 177.891 168.327C178.202 168.685 178.448 169.127 178.629 169.654C178.811 170.176 178.902 170.773 178.902 171.447C178.902 172.268 178.805 172.985 178.612 173.601C178.418 174.216 178.155 174.729 177.821 175.139C177.487 175.543 177.094 175.848 176.643 176.053C176.198 176.258 175.72 176.36 175.21 176.36C174.765 176.36 174.352 176.284 173.971 176.132C173.59 175.979 173.259 175.769 172.978 175.499L172.89 177.477L174.648 178.426L170.333 179.164L171.66 177.837L171.299 168.424L169.7 167.791L173.338 167.176L173.286 168.318ZM175.263 168.292C175.181 168.292 175.064 168.307 174.912 168.336C174.759 168.365 174.586 168.433 174.393 168.538C174.206 168.644 174.006 168.796 173.795 168.995C173.59 169.194 173.394 169.464 173.207 169.804L173.031 174.181C173.218 174.474 173.447 174.717 173.716 174.91C173.992 175.098 174.296 175.191 174.63 175.191C175.029 175.191 175.372 175.092 175.659 174.893C175.946 174.693 176.18 174.418 176.362 174.066C176.549 173.709 176.684 173.29 176.766 172.81C176.854 172.329 176.898 171.808 176.898 171.245C176.898 170.835 176.863 170.451 176.792 170.094C176.722 169.73 176.62 169.417 176.485 169.153C176.35 168.884 176.18 168.673 175.975 168.521C175.77 168.368 175.533 168.292 175.263 168.292ZM194.388 164.047L193.703 169.197L192.692 165.436L189.994 165.743L190.354 174.523L192.534 175.64L185.511 176.308L188.069 174.453L188.517 165.831L185.731 165.726L184.65 168.925L184.307 164.196L194.388 164.047ZM194.731 171.588C194.731 170.932 194.833 170.325 195.039 169.769C195.25 169.206 195.54 168.72 195.909 168.31C196.284 167.899 196.726 167.58 197.236 167.352C197.751 167.117 198.314 167 198.923 167C199.515 167 200.057 167.111 200.549 167.334C201.042 167.551 201.469 167.858 201.833 168.257C202.196 168.655 202.486 169.133 202.703 169.689C202.919 170.246 203.048 170.861 203.089 171.535C203.13 172.256 203.054 172.909 202.861 173.495C202.673 174.075 202.395 174.57 202.026 174.98C201.657 175.385 201.214 175.698 200.699 175.921C200.189 176.144 199.635 176.255 199.038 176.255C198.463 176.255 197.916 176.152 197.394 175.947C196.878 175.736 196.421 175.432 196.023 175.033C195.63 174.635 195.317 174.148 195.083 173.574C194.848 172.994 194.731 172.332 194.731 171.588ZM196.893 171.737C196.893 172.253 196.966 172.719 197.113 173.135C197.259 173.551 197.456 173.905 197.702 174.198C197.948 174.485 198.232 174.708 198.554 174.866C198.876 175.024 199.216 175.104 199.574 175.104C199.931 175.104 200.265 175.027 200.576 174.875C200.886 174.717 201.156 174.497 201.384 174.216C201.613 173.929 201.792 173.586 201.92 173.188C202.049 172.789 202.114 172.347 202.114 171.86C202.114 171.38 202.049 170.929 201.92 170.507C201.792 170.079 201.61 169.707 201.375 169.391C201.147 169.074 200.875 168.825 200.558 168.644C200.242 168.462 199.896 168.371 199.521 168.371C199.187 168.371 198.862 168.447 198.545 168.6C198.235 168.752 197.957 168.975 197.71 169.268C197.464 169.555 197.265 169.906 197.113 170.322C196.966 170.738 196.893 171.21 196.893 171.737ZM157.298 185.152L155.101 186.796L155.444 195.348L157.21 196.156L151.858 197.272L154.038 195.348L152.596 188.378L150.636 196.156L146.391 189.081L145.24 195.453L146.927 196.877L142.462 197.105L144.229 195.506L144.774 186.33L142.919 185.152L147.252 184.941L150.17 193.186L152.403 185.029L157.298 185.152ZM165.288 191.524C165.288 191.835 165.27 192.169 165.235 192.526C165.2 192.884 165.147 193.247 165.077 193.616C165.012 193.985 164.933 194.349 164.839 194.706C164.751 195.058 164.655 195.383 164.549 195.682L166.421 197L163.108 196.859L163.31 195.778C162.958 196.218 162.551 196.555 162.088 196.789C161.631 197.018 161.101 197.155 160.498 197.202C160.005 197.237 159.575 197.202 159.206 197.097C158.842 196.997 158.538 196.842 158.292 196.631C158.051 196.414 157.873 196.15 157.755 195.84C157.638 195.523 157.58 195.172 157.58 194.785C157.58 194.428 157.667 194.082 157.843 193.748C158.019 193.408 158.271 193.109 158.599 192.852C158.933 192.594 159.34 192.389 159.821 192.236C160.301 192.078 160.846 191.999 161.456 191.999C161.737 191.999 162.059 192.025 162.422 192.078C162.792 192.131 163.14 192.242 163.468 192.412C163.439 192.055 163.383 191.691 163.301 191.322C163.225 190.947 163.111 190.607 162.958 190.303C162.806 189.998 162.607 189.752 162.361 189.564C162.121 189.371 161.819 189.274 161.456 189.274C161.145 189.274 160.843 189.339 160.55 189.468C160.257 189.597 159.982 189.781 159.724 190.021C159.472 190.262 159.244 190.555 159.039 190.9C158.833 191.246 158.661 191.636 158.52 192.069L157.782 187.763L158.898 189.477C159.173 189.137 159.452 188.867 159.733 188.668C160.014 188.463 160.292 188.308 160.568 188.202C160.849 188.091 161.119 188.018 161.376 187.982C161.64 187.947 161.892 187.93 162.132 187.93C162.583 187.953 163 188.047 163.38 188.211C163.767 188.369 164.101 188.601 164.382 188.905C164.664 189.204 164.883 189.573 165.042 190.013C165.206 190.452 165.288 190.956 165.288 191.524ZM163.468 194.337C163.48 194.173 163.489 194.015 163.495 193.862C163.5 193.71 163.503 193.561 163.503 193.414V193.309C163.292 193.227 163.079 193.165 162.862 193.124C162.651 193.077 162.455 193.045 162.273 193.027C162.091 193.004 161.936 192.992 161.807 192.992C161.684 192.986 161.602 192.983 161.561 192.983C161.227 192.995 160.937 193.057 160.691 193.168C160.445 193.279 160.24 193.42 160.076 193.59C159.917 193.754 159.797 193.938 159.715 194.144C159.639 194.349 159.601 194.551 159.601 194.75C159.601 195.201 159.709 195.544 159.926 195.778C160.149 196.007 160.471 196.121 160.893 196.121C161.174 196.121 161.441 196.071 161.693 195.972C161.945 195.872 162.179 195.74 162.396 195.576C162.619 195.406 162.818 195.216 162.994 195.005C163.175 194.788 163.333 194.565 163.468 194.337ZM175.29 189.187L173.47 189.819L169.726 193.379C169.96 193.666 170.186 193.912 170.403 194.117C170.62 194.322 170.825 194.498 171.018 194.645C171.211 194.791 171.39 194.908 171.554 194.996C171.724 195.084 171.879 195.151 172.02 195.198C172.342 195.31 172.635 195.345 172.899 195.304C173.086 195.292 173.289 195.233 173.505 195.128C173.693 195.04 173.907 194.899 174.147 194.706C174.393 194.513 174.654 194.234 174.929 193.871C174.824 194.521 174.668 195.063 174.463 195.497C174.264 195.925 174.053 196.268 173.831 196.525C173.608 196.777 173.394 196.956 173.189 197.062C172.99 197.167 172.837 197.22 172.732 197.22C172.427 197.173 172.09 197.035 171.721 196.807C171.563 196.713 171.387 196.593 171.194 196.446C171.006 196.3 170.804 196.124 170.587 195.919C170.376 195.714 170.151 195.474 169.911 195.198C169.67 194.917 169.424 194.595 169.172 194.231L169.19 195.919L170.359 196.895H165.964L167.318 195.796L167.942 186.005L165.982 185.029L169.093 184.511L169.155 192.465L171.616 189.318L170.605 188.202L175.29 189.187ZM177.443 193.774C177.519 194.103 177.622 194.425 177.75 194.741C177.879 195.052 178.038 195.33 178.225 195.576C178.413 195.822 178.629 196.021 178.875 196.174C179.122 196.326 179.4 196.402 179.71 196.402C180.121 196.402 180.478 196.317 180.783 196.147C181.087 195.978 181.336 195.764 181.53 195.506C181.723 195.242 181.858 194.955 181.934 194.645C182.01 194.328 182.025 194.026 181.978 193.739C182.142 193.804 182.277 193.889 182.382 193.994C182.494 194.1 182.579 194.217 182.637 194.346C182.702 194.469 182.746 194.598 182.769 194.732C182.792 194.861 182.804 194.987 182.804 195.11C182.804 195.392 182.722 195.664 182.558 195.928C182.394 196.186 182.163 196.417 181.864 196.622C181.571 196.821 181.222 196.982 180.818 197.105C180.414 197.229 179.971 197.29 179.491 197.29C178.846 197.29 178.269 197.164 177.759 196.912C177.255 196.66 176.828 196.32 176.476 195.893C176.125 195.459 175.855 194.952 175.667 194.372C175.48 193.792 175.386 193.174 175.386 192.518C175.386 191.85 175.48 191.234 175.667 190.672C175.855 190.104 176.13 189.62 176.494 189.222C176.863 188.823 177.314 188.521 177.847 188.316C178.38 188.111 178.996 188.029 179.693 188.07C180.173 188.105 180.616 188.243 181.02 188.483C181.424 188.724 181.776 189.034 182.075 189.415C182.379 189.79 182.623 190.221 182.804 190.707C182.992 191.193 183.106 191.7 183.147 192.228L177.443 193.774ZM177.276 192.359C177.276 192.441 177.276 192.523 177.276 192.605C177.276 192.682 177.282 192.761 177.293 192.843L181.152 191.437C181.023 191.015 180.876 190.654 180.712 190.355C180.554 190.051 180.387 189.802 180.211 189.608C180.036 189.415 179.857 189.274 179.675 189.187C179.5 189.093 179.33 189.046 179.166 189.046C178.919 189.046 178.703 189.093 178.515 189.187C178.328 189.28 178.164 189.409 178.023 189.573C177.888 189.731 177.771 189.919 177.671 190.136C177.578 190.353 177.501 190.584 177.443 190.83C177.384 191.076 177.34 191.331 177.311 191.595C177.288 191.853 177.276 192.107 177.276 192.359ZM202.843 185.152L200.646 186.796L200.989 195.348L202.755 196.156L197.403 197.272L199.583 195.348L198.141 188.378L196.181 196.156L191.936 189.081L190.785 195.453L192.472 196.877L188.007 197.105L189.774 195.506L190.319 186.33L188.464 185.152L192.797 184.941L195.715 193.186L197.948 185.029L202.843 185.152ZM205.128 193.774C205.205 194.103 205.307 194.425 205.436 194.741C205.565 195.052 205.723 195.33 205.911 195.576C206.098 195.822 206.315 196.021 206.561 196.174C206.807 196.326 207.085 196.402 207.396 196.402C207.806 196.402 208.164 196.317 208.468 196.147C208.773 195.978 209.022 195.764 209.215 195.506C209.409 195.242 209.543 194.955 209.62 194.645C209.696 194.328 209.71 194.026 209.664 193.739C209.828 193.804 209.962 193.889 210.068 193.994C210.179 194.1 210.264 194.217 210.323 194.346C210.387 194.469 210.431 194.598 210.455 194.732C210.478 194.861 210.49 194.987 210.49 195.11C210.49 195.392 210.408 195.664 210.244 195.928C210.08 196.186 209.848 196.417 209.549 196.622C209.256 196.821 208.908 196.982 208.503 197.105C208.099 197.229 207.657 197.29 207.176 197.29C206.532 197.29 205.955 197.164 205.445 196.912C204.941 196.66 204.513 196.32 204.162 195.893C203.81 195.459 203.541 194.952 203.353 194.372C203.166 193.792 203.072 193.174 203.072 192.518C203.072 191.85 203.166 191.234 203.353 190.672C203.541 190.104 203.816 189.62 204.179 189.222C204.548 188.823 205 188.521 205.533 188.316C206.066 188.111 206.681 188.029 207.378 188.07C207.859 188.105 208.301 188.243 208.706 188.483C209.11 188.724 209.461 189.034 209.76 189.415C210.065 189.79 210.308 190.221 210.49 190.707C210.677 191.193 210.792 191.7 210.833 192.228L205.128 193.774ZM204.961 192.359C204.961 192.441 204.961 192.523 204.961 192.605C204.961 192.682 204.967 192.761 204.979 192.843L208.837 191.437C208.708 191.015 208.562 190.654 208.398 190.355C208.24 190.051 208.073 189.802 207.897 189.608C207.721 189.415 207.542 189.274 207.361 189.187C207.185 189.093 207.015 189.046 206.851 189.046C206.605 189.046 206.388 189.093 206.201 189.187C206.013 189.28 205.849 189.409 205.708 189.573C205.574 189.731 205.457 189.919 205.357 190.136C205.263 190.353 205.187 190.584 205.128 190.83C205.07 191.076 205.026 191.331 204.997 191.595C204.973 191.853 204.961 192.107 204.961 192.359ZM156.235 206.1C156.633 206.1 157.014 206.138 157.377 206.214C157.747 206.284 158.089 206.381 158.406 206.504C158.722 206.621 159.009 206.756 159.267 206.908C159.525 207.061 159.745 207.213 159.926 207.365L162.211 205.792L159.583 210.837L159.381 208.191C159.211 208.074 159.027 207.972 158.828 207.884C158.634 207.79 158.438 207.714 158.239 207.655C158.045 207.591 157.858 207.541 157.676 207.506C157.495 207.465 157.333 207.433 157.193 207.409C157.052 207.386 156.938 207.371 156.85 207.365C156.768 207.354 156.724 207.348 156.718 207.348C156.32 207.348 155.986 207.392 155.716 207.479C155.447 207.567 155.227 207.682 155.057 207.822C154.893 207.963 154.773 208.124 154.697 208.306C154.626 208.481 154.591 208.66 154.591 208.842C154.591 209.211 154.667 209.524 154.82 209.782C154.972 210.034 155.204 210.26 155.514 210.459C155.825 210.658 156.22 210.846 156.701 211.021C157.181 211.191 157.747 211.376 158.397 211.575C158.79 211.698 159.159 211.865 159.504 212.076C159.856 212.281 160.161 212.524 160.418 212.806C160.676 213.081 160.878 213.392 161.025 213.737C161.177 214.077 161.253 214.443 161.253 214.836C161.253 215.293 161.189 215.7 161.06 216.058C160.931 216.409 160.758 216.72 160.542 216.989C160.331 217.253 160.084 217.479 159.803 217.666C159.522 217.848 159.229 217.994 158.924 218.105C158.625 218.223 158.321 218.305 158.01 218.352C157.706 218.404 157.418 218.431 157.149 218.431C156.358 218.431 155.64 218.296 154.996 218.026C154.351 217.757 153.75 217.388 153.194 216.919L150.909 218.483L153.458 213.966C153.528 214.388 153.651 214.795 153.827 215.188C154.008 215.574 154.231 215.92 154.495 216.225C154.758 216.529 155.063 216.772 155.409 216.954C155.754 217.136 156.132 217.227 156.542 217.227C156.871 217.227 157.169 217.177 157.439 217.077C157.714 216.978 157.949 216.846 158.142 216.682C158.335 216.512 158.485 216.318 158.59 216.102C158.702 215.879 158.757 215.647 158.757 215.407C158.757 215.073 158.664 214.786 158.476 214.546C158.289 214.3 158.042 214.083 157.738 213.896C157.433 213.702 157.084 213.526 156.692 213.368C156.305 213.204 155.907 213.037 155.497 212.867C155.086 212.697 154.685 212.51 154.292 212.305C153.906 212.1 153.56 211.859 153.255 211.584C152.951 211.303 152.705 210.975 152.517 210.6C152.33 210.225 152.236 209.782 152.236 209.272C152.236 208.88 152.312 208.496 152.464 208.121C152.623 207.74 152.863 207.4 153.185 207.102C153.513 206.803 153.929 206.562 154.433 206.381C154.937 206.193 155.538 206.1 156.235 206.1ZM161.614 217.895L162.967 216.796L163.591 207.005L161.631 206.029L164.743 205.511L164.778 210.459C164.977 210.172 165.197 209.938 165.437 209.756C165.677 209.568 165.912 209.422 166.14 209.316C166.375 209.211 166.588 209.138 166.782 209.097C166.981 209.056 167.136 209.035 167.248 209.035C167.798 209.035 168.264 209.135 168.645 209.334C169.026 209.527 169.333 209.797 169.568 210.143C169.808 210.488 169.981 210.898 170.086 211.373C170.198 211.842 170.253 212.352 170.253 212.902C170.253 213.207 170.227 213.532 170.174 213.878C170.127 214.224 170.063 214.572 169.981 214.924C169.899 215.27 169.805 215.606 169.7 215.935C169.6 216.257 169.498 216.55 169.392 216.813L171.132 217.78L166.58 218.255L168.504 216.506C168.586 216.072 168.645 215.665 168.68 215.284C168.721 214.903 168.742 214.549 168.742 214.221C168.742 214.057 168.73 213.857 168.707 213.623C168.689 213.389 168.651 213.146 168.592 212.894C168.534 212.636 168.455 212.381 168.355 212.129C168.255 211.877 168.124 211.651 167.959 211.452C167.801 211.253 167.608 211.092 167.379 210.969C167.157 210.846 166.89 210.784 166.58 210.784C166.275 210.784 165.961 210.852 165.639 210.986C165.323 211.121 165.036 211.335 164.778 211.628L164.839 216.919L166.008 217.895H161.614ZM179.376 212.524C179.376 212.835 179.359 213.169 179.324 213.526C179.289 213.884 179.236 214.247 179.166 214.616C179.101 214.985 179.022 215.349 178.928 215.706C178.84 216.058 178.744 216.383 178.638 216.682L180.51 218L177.197 217.859L177.399 216.778C177.047 217.218 176.64 217.555 176.177 217.789C175.72 218.018 175.19 218.155 174.586 218.202C174.094 218.237 173.664 218.202 173.294 218.097C172.931 217.997 172.626 217.842 172.38 217.631C172.14 217.414 171.961 217.15 171.844 216.84C171.727 216.523 171.668 216.172 171.668 215.785C171.668 215.428 171.756 215.082 171.932 214.748C172.108 214.408 172.36 214.109 172.688 213.852C173.022 213.594 173.429 213.389 173.91 213.236C174.39 213.078 174.935 212.999 175.544 212.999C175.826 212.999 176.148 213.025 176.511 213.078C176.88 213.131 177.229 213.242 177.557 213.412C177.528 213.055 177.472 212.691 177.39 212.322C177.314 211.947 177.2 211.607 177.047 211.303C176.895 210.998 176.696 210.752 176.45 210.564C176.209 210.371 175.908 210.274 175.544 210.274C175.234 210.274 174.932 210.339 174.639 210.468C174.346 210.597 174.071 210.781 173.813 211.021C173.561 211.262 173.333 211.555 173.127 211.9C172.922 212.246 172.75 212.636 172.609 213.069L171.871 208.763L172.987 210.477C173.262 210.137 173.541 209.867 173.822 209.668C174.103 209.463 174.381 209.308 174.657 209.202C174.938 209.091 175.208 209.018 175.465 208.982C175.729 208.947 175.981 208.93 176.221 208.93C176.672 208.953 177.088 209.047 177.469 209.211C177.856 209.369 178.19 209.601 178.471 209.905C178.752 210.204 178.972 210.573 179.13 211.013C179.294 211.452 179.376 211.956 179.376 212.524ZM177.557 215.337C177.569 215.173 177.578 215.015 177.583 214.862C177.589 214.71 177.592 214.561 177.592 214.414V214.309C177.381 214.227 177.167 214.165 176.951 214.124C176.74 214.077 176.543 214.045 176.362 214.027C176.18 214.004 176.025 213.992 175.896 213.992C175.773 213.986 175.691 213.983 175.65 213.983C175.316 213.995 175.026 214.057 174.78 214.168C174.534 214.279 174.329 214.42 174.165 214.59C174.006 214.754 173.886 214.938 173.804 215.144C173.728 215.349 173.69 215.551 173.69 215.75C173.69 216.201 173.798 216.544 174.015 216.778C174.238 217.007 174.56 217.121 174.982 217.121C175.263 217.121 175.53 217.071 175.782 216.972C176.034 216.872 176.268 216.74 176.485 216.576C176.708 216.406 176.907 216.216 177.083 216.005C177.264 215.788 177.422 215.565 177.557 215.337ZM189.378 210.187L187.559 210.819L183.815 214.379C184.049 214.666 184.275 214.912 184.492 215.117C184.708 215.322 184.914 215.498 185.107 215.645C185.3 215.791 185.479 215.908 185.643 215.996C185.813 216.084 185.968 216.151 186.109 216.198C186.431 216.31 186.724 216.345 186.988 216.304C187.175 216.292 187.377 216.233 187.594 216.128C187.782 216.04 187.996 215.899 188.236 215.706C188.482 215.513 188.743 215.234 189.018 214.871C188.913 215.521 188.757 216.063 188.552 216.497C188.353 216.925 188.142 217.268 187.919 217.525C187.697 217.777 187.483 217.956 187.278 218.062C187.079 218.167 186.926 218.22 186.821 218.22C186.516 218.173 186.179 218.035 185.81 217.807C185.652 217.713 185.476 217.593 185.283 217.446C185.095 217.3 184.893 217.124 184.676 216.919C184.465 216.714 184.24 216.474 184 216.198C183.759 215.917 183.513 215.595 183.261 215.231L183.279 216.919L184.448 217.895H180.053L181.407 216.796L182.031 207.005L180.071 206.029L183.182 205.511L183.244 213.465L185.705 210.318L184.694 209.202L189.378 210.187ZM191.532 214.774C191.608 215.103 191.71 215.425 191.839 215.741C191.968 216.052 192.126 216.33 192.314 216.576C192.501 216.822 192.718 217.021 192.964 217.174C193.21 217.326 193.489 217.402 193.799 217.402C194.209 217.402 194.567 217.317 194.872 217.147C195.176 216.978 195.425 216.764 195.619 216.506C195.812 216.242 195.947 215.955 196.023 215.645C196.099 215.328 196.114 215.026 196.067 214.739C196.231 214.804 196.366 214.889 196.471 214.994C196.583 215.1 196.667 215.217 196.726 215.346C196.791 215.469 196.834 215.598 196.858 215.732C196.881 215.861 196.893 215.987 196.893 216.11C196.893 216.392 196.811 216.664 196.647 216.928C196.483 217.186 196.251 217.417 195.953 217.622C195.66 217.821 195.311 217.982 194.907 218.105C194.502 218.229 194.06 218.29 193.58 218.29C192.935 218.29 192.358 218.164 191.848 217.912C191.344 217.66 190.917 217.32 190.565 216.893C190.213 216.459 189.944 215.952 189.756 215.372C189.569 214.792 189.475 214.174 189.475 213.518C189.475 212.85 189.569 212.234 189.756 211.672C189.944 211.104 190.219 210.62 190.583 210.222C190.952 209.823 191.403 209.521 191.936 209.316C192.469 209.111 193.084 209.029 193.782 209.07C194.262 209.105 194.705 209.243 195.109 209.483C195.513 209.724 195.865 210.034 196.164 210.415C196.468 210.79 196.711 211.221 196.893 211.707C197.081 212.193 197.195 212.7 197.236 213.228L191.532 214.774ZM191.365 213.359C191.365 213.441 191.365 213.523 191.365 213.605C191.365 213.682 191.371 213.761 191.382 213.843L195.241 212.437C195.112 212.015 194.965 211.654 194.801 211.355C194.643 211.051 194.476 210.802 194.3 210.608C194.125 210.415 193.946 210.274 193.764 210.187C193.588 210.093 193.418 210.046 193.254 210.046C193.008 210.046 192.792 210.093 192.604 210.187C192.417 210.28 192.252 210.409 192.112 210.573C191.977 210.731 191.86 210.919 191.76 211.136C191.667 211.353 191.59 211.584 191.532 211.83C191.473 212.076 191.429 212.331 191.4 212.595C191.376 212.853 191.365 213.107 191.365 213.359ZM200.356 215.39L199.31 215.337L199.354 205.757L201.674 206.047L200.356 215.39ZM201.129 217.499C201.129 217.687 201.08 217.848 200.98 217.982C200.886 218.117 200.769 218.226 200.628 218.308C200.494 218.396 200.35 218.457 200.198 218.492C200.045 218.533 199.914 218.554 199.802 218.554C199.679 218.554 199.539 218.533 199.38 218.492C199.228 218.457 199.084 218.396 198.95 218.308C198.815 218.226 198.701 218.117 198.607 217.982C198.513 217.848 198.466 217.687 198.466 217.499C198.466 217.3 198.513 217.13 198.607 216.989C198.701 216.849 198.815 216.734 198.95 216.646C199.084 216.553 199.228 216.485 199.38 216.444C199.539 216.403 199.679 216.383 199.802 216.383C199.914 216.383 200.045 216.403 200.198 216.444C200.35 216.485 200.494 216.553 200.628 216.646C200.769 216.734 200.886 216.849 200.98 216.989C201.08 217.13 201.129 217.3 201.129 217.499Z" fill="black"/>
<path d="M143.006 144.508L143.233 151.578L144.85 152.711L139.311 153.195L141.217 151.609L141.694 144.039L140.061 142.758L144.819 143.047L143.006 144.508ZM147.553 143.078C147.553 143.292 147.512 143.482 147.428 143.648C147.345 143.81 147.233 143.953 147.092 144.078C146.952 144.203 146.79 144.31 146.608 144.398C146.426 144.482 146.233 144.549 146.03 144.602C146.077 144.534 146.118 144.474 146.155 144.422C146.191 144.37 146.222 144.315 146.249 144.258C146.275 144.201 146.295 144.135 146.311 144.062C146.327 143.99 146.334 143.901 146.334 143.797C146.256 143.781 146.17 143.755 146.077 143.719C145.988 143.682 145.905 143.635 145.827 143.578C145.754 143.521 145.691 143.451 145.639 143.367C145.592 143.284 145.569 143.188 145.569 143.078C145.569 142.953 145.605 142.846 145.678 142.758C145.751 142.664 145.84 142.589 145.944 142.531C146.048 142.469 146.157 142.424 146.272 142.398C146.392 142.372 146.499 142.359 146.592 142.359C146.686 142.359 146.788 142.372 146.897 142.398C147.006 142.424 147.111 142.469 147.209 142.531C147.308 142.589 147.389 142.664 147.452 142.758C147.519 142.846 147.553 142.953 147.553 143.078ZM147.897 153.078L148.92 151.93L149.452 146.633L147.803 145.445L150.459 145.625V146.422C150.657 146.156 150.863 145.951 151.077 145.805C151.295 145.659 151.496 145.552 151.678 145.484C151.892 145.406 152.103 145.362 152.311 145.352C152.681 145.352 153.017 145.427 153.319 145.578C153.621 145.729 153.861 145.938 154.038 146.203C154.256 145.943 154.506 145.737 154.788 145.586C155.069 145.43 155.374 145.352 155.702 145.352C155.999 145.352 156.275 145.419 156.53 145.555C156.785 145.69 157.004 145.88 157.186 146.125C157.374 146.37 157.519 146.669 157.624 147.023C157.733 147.372 157.788 147.76 157.788 148.188C157.788 148.495 157.767 148.815 157.725 149.148C157.689 149.482 157.637 149.812 157.569 150.141C157.506 150.469 157.428 150.789 157.334 151.102C157.241 151.409 157.139 151.695 157.03 151.961L158.139 152.453L154.264 153.18L155.975 151.812C156.058 151.25 156.111 150.737 156.131 150.273C156.157 149.805 156.17 149.406 156.17 149.078C156.17 148.24 156.069 147.63 155.866 147.25C155.668 146.87 155.384 146.68 155.014 146.68C154.79 146.68 154.566 146.76 154.342 146.922C154.374 147.047 154.389 147.18 154.389 147.32C154.389 147.638 154.363 147.966 154.311 148.305C154.264 148.643 154.202 148.977 154.124 149.305C154.045 149.633 153.957 149.951 153.858 150.258C153.759 150.565 153.66 150.844 153.561 151.094L154.663 151.961H151.514L152.569 151.109C152.631 150.625 152.676 150.13 152.702 149.625C152.728 149.115 152.741 148.635 152.741 148.188C152.741 147.656 152.678 147.24 152.553 146.938C152.433 146.635 152.215 146.484 151.897 146.484C151.736 146.484 151.584 146.516 151.444 146.578C151.308 146.641 151.181 146.724 151.061 146.828C150.946 146.932 150.837 147.052 150.733 147.188C150.634 147.323 150.543 147.464 150.459 147.609V151.867L151.772 152.805L147.897 153.078ZM175.655 142.469L173.702 143.93L174.006 151.531L175.577 152.25L170.819 153.242L172.756 151.531L171.475 145.336L169.733 152.25L165.959 145.961L164.936 151.625L166.436 152.891L162.467 153.094L164.038 151.672L164.522 143.516L162.874 142.469L166.725 142.281L169.319 149.609L171.303 142.359L175.655 142.469ZM182.342 146.172C182.394 146.599 182.433 147.062 182.459 147.562C182.491 148.062 182.501 148.576 182.491 149.102C182.48 149.628 182.446 150.156 182.389 150.688C182.332 151.214 182.241 151.721 182.116 152.211C181.991 152.695 181.829 153.148 181.631 153.57C181.433 153.992 181.189 154.357 180.897 154.664C180.611 154.977 180.272 155.221 179.881 155.398C179.496 155.581 179.051 155.672 178.545 155.672C177.972 155.672 177.361 155.529 176.709 155.242L176.131 156.391L175.334 153.32C175.569 153.628 175.808 153.875 176.053 154.062C176.303 154.25 176.54 154.393 176.764 154.492C176.993 154.596 177.202 154.664 177.389 154.695C177.582 154.727 177.738 154.742 177.858 154.742C178.285 154.742 178.665 154.607 178.999 154.336C179.337 154.07 179.634 153.701 179.889 153.227C179.472 152.789 179.066 152.315 178.67 151.805C178.28 151.289 177.926 150.742 177.608 150.164C177.29 149.581 177.022 148.969 176.803 148.328C176.59 147.688 176.452 147.021 176.389 146.328L175.108 145.641L178.725 145.125L178.053 146.039C178.189 147.086 178.449 148.115 178.834 149.125C179.22 150.135 179.722 151.161 180.342 152.203C180.478 151.812 180.595 151.391 180.694 150.938C180.798 150.484 180.884 150.005 180.952 149.5C181.025 148.995 181.079 148.471 181.116 147.93C181.152 147.383 181.176 146.828 181.186 146.266L180.022 145.125C180.454 145.156 180.834 145.185 181.163 145.211C181.496 145.237 181.785 145.26 182.03 145.281C182.275 145.297 182.48 145.312 182.647 145.328C182.819 145.339 182.959 145.346 183.069 145.352C183.324 145.372 183.475 145.383 183.522 145.383L182.342 146.172ZM187.022 145.047C187.22 145.047 187.42 145.065 187.624 145.102C187.827 145.133 188.025 145.182 188.217 145.25C188.415 145.312 188.6 145.391 188.772 145.484C188.949 145.573 189.108 145.672 189.249 145.781L190.53 144.203L189.952 148.102C189.889 147.831 189.78 147.565 189.624 147.305C189.467 147.039 189.272 146.802 189.038 146.594C188.808 146.385 188.543 146.219 188.241 146.094C187.939 145.964 187.608 145.898 187.249 145.898C187.051 145.898 186.861 145.922 186.678 145.969C186.496 146.01 186.334 146.081 186.194 146.18C186.058 146.279 185.949 146.404 185.866 146.555C185.788 146.706 185.749 146.885 185.749 147.094C185.749 147.344 185.816 147.547 185.952 147.703C186.092 147.859 186.275 147.992 186.499 148.102C186.722 148.206 186.978 148.297 187.264 148.375C187.551 148.448 187.845 148.526 188.147 148.609C188.449 148.693 188.743 148.792 189.03 148.906C189.316 149.016 189.571 149.159 189.795 149.336C190.019 149.513 190.199 149.734 190.334 150C190.475 150.26 190.545 150.583 190.545 150.969C190.545 151.401 190.459 151.771 190.288 152.078C190.121 152.38 189.905 152.63 189.639 152.828C189.374 153.021 189.079 153.161 188.756 153.25C188.433 153.339 188.118 153.383 187.811 153.383C187.561 153.383 187.311 153.357 187.061 153.305C186.811 153.253 186.569 153.18 186.334 153.086C186.1 152.992 185.876 152.88 185.663 152.75C185.454 152.62 185.264 152.479 185.092 152.328L183.905 153.914L184.272 150.039C184.439 150.393 184.639 150.724 184.874 151.031C185.108 151.339 185.368 151.607 185.655 151.836C185.941 152.06 186.249 152.237 186.577 152.367C186.905 152.492 187.246 152.555 187.6 152.555C188.012 152.555 188.34 152.469 188.584 152.297C188.834 152.12 188.959 151.87 188.959 151.547C188.959 151.339 188.889 151.167 188.749 151.031C188.613 150.891 188.431 150.768 188.202 150.664C187.978 150.56 187.722 150.466 187.436 150.383C187.15 150.299 186.855 150.208 186.553 150.109C186.251 150.01 185.957 149.896 185.67 149.766C185.384 149.63 185.126 149.464 184.897 149.266C184.673 149.062 184.491 148.818 184.35 148.531C184.215 148.24 184.147 147.888 184.147 147.477C184.147 147.122 184.199 146.815 184.303 146.555C184.407 146.294 184.543 146.076 184.709 145.898C184.881 145.716 185.071 145.57 185.28 145.461C185.493 145.346 185.707 145.26 185.92 145.203C186.134 145.141 186.337 145.099 186.53 145.078C186.722 145.057 186.887 145.047 187.022 145.047ZM191.967 149.578C191.967 149.089 192.017 148.602 192.116 148.117C192.22 147.628 192.332 147.18 192.452 146.773L191.1 146.859L194.913 142.695C194.611 143.648 194.366 144.508 194.178 145.273L197.217 145.531L196.819 146.469L193.874 146.68C193.801 147.06 193.743 147.398 193.702 147.695C193.665 147.987 193.634 148.234 193.608 148.438C193.582 148.677 193.564 148.885 193.553 149.062C193.553 149.583 193.584 150.052 193.647 150.469C193.709 150.885 193.806 151.242 193.936 151.539C194.071 151.831 194.241 152.057 194.444 152.219C194.652 152.375 194.9 152.453 195.186 152.453C195.452 152.453 195.673 152.401 195.85 152.297C196.032 152.188 196.178 152.049 196.288 151.883C196.397 151.711 196.475 151.521 196.522 151.312C196.569 151.099 196.592 150.888 196.592 150.68C196.592 150.487 196.577 150.299 196.545 150.117C196.769 150.232 196.939 150.417 197.053 150.672C197.173 150.922 197.233 151.195 197.233 151.492C197.233 151.799 197.181 152.07 197.077 152.305C196.978 152.539 196.84 152.737 196.663 152.898C196.486 153.055 196.277 153.174 196.038 153.258C195.798 153.341 195.54 153.383 195.264 153.383C195.097 153.383 194.9 153.365 194.67 153.328C194.446 153.292 194.212 153.224 193.967 153.125C193.722 153.031 193.48 152.896 193.241 152.719C193.001 152.542 192.788 152.312 192.6 152.031C192.413 151.75 192.259 151.409 192.139 151.008C192.025 150.602 191.967 150.125 191.967 149.578ZM197.561 153.078L198.788 152.117L198.522 146.727L197.077 145.781L200.436 145.211L199.834 151.477L201.514 152.523L197.561 153.078ZM200.522 143.32C200.522 143.477 200.491 143.625 200.428 143.766C200.366 143.901 200.28 144.023 200.17 144.133C200.061 144.237 199.936 144.32 199.795 144.383C199.655 144.44 199.506 144.469 199.35 144.469C199.183 144.469 199.027 144.44 198.881 144.383C198.741 144.32 198.618 144.237 198.514 144.133C198.41 144.023 198.327 143.901 198.264 143.766C198.202 143.625 198.17 143.477 198.17 143.32C198.17 143.159 198.202 143.01 198.264 142.875C198.327 142.734 198.41 142.612 198.514 142.508C198.618 142.404 198.741 142.323 198.881 142.266C199.027 142.203 199.183 142.172 199.35 142.172C199.506 142.172 199.655 142.203 199.795 142.266C199.936 142.323 200.061 142.404 200.17 142.508C200.28 142.612 200.366 142.734 200.428 142.875C200.491 143.01 200.522 143.159 200.522 143.32ZM205.459 145.195C205.897 145.195 206.293 145.292 206.647 145.484C207.006 145.672 207.295 145.927 207.514 146.25L209.092 144.648L207.795 148.875C207.749 148.438 207.676 148.068 207.577 147.766C207.478 147.458 207.363 147.206 207.233 147.008C207.108 146.805 206.975 146.648 206.834 146.539C206.699 146.43 206.571 146.349 206.452 146.297C206.337 146.245 206.236 146.214 206.147 146.203C206.064 146.193 206.012 146.188 205.991 146.188C205.616 146.188 205.277 146.26 204.975 146.406C204.673 146.552 204.413 146.766 204.194 147.047C203.98 147.328 203.816 147.674 203.702 148.086C203.587 148.492 203.53 148.956 203.53 149.477C203.53 149.977 203.59 150.419 203.709 150.805C203.829 151.185 203.988 151.505 204.186 151.766C204.384 152.026 204.611 152.224 204.866 152.359C205.121 152.49 205.384 152.555 205.655 152.555C205.972 152.555 206.267 152.484 206.538 152.344C206.808 152.198 207.04 152.008 207.233 151.773C207.426 151.539 207.569 151.271 207.663 150.969C207.762 150.661 207.795 150.346 207.764 150.023C207.827 150.081 207.892 150.151 207.959 150.234C208.032 150.318 208.097 150.411 208.155 150.516C208.217 150.615 208.267 150.724 208.303 150.844C208.34 150.958 208.358 151.076 208.358 151.195C208.358 151.549 208.272 151.87 208.1 152.156C207.933 152.438 207.717 152.677 207.452 152.875C207.186 153.073 206.887 153.224 206.553 153.328C206.22 153.438 205.889 153.492 205.561 153.492C205.42 153.492 205.228 153.477 204.983 153.445C204.743 153.414 204.48 153.349 204.194 153.25C203.913 153.156 203.626 153.018 203.334 152.836C203.043 152.654 202.777 152.411 202.538 152.109C202.303 151.807 202.111 151.435 201.959 150.992C201.808 150.549 201.733 150.018 201.733 149.398C201.733 148.846 201.795 148.359 201.92 147.938C202.051 147.51 202.22 147.141 202.428 146.828C202.642 146.516 202.881 146.255 203.147 146.047C203.413 145.839 203.683 145.672 203.959 145.547C204.236 145.422 204.504 145.333 204.764 145.281C205.03 145.224 205.262 145.195 205.459 145.195ZM211.436 150.68L210.506 150.633L210.545 142.117L212.608 142.375L211.436 150.68ZM212.124 152.555C212.124 152.721 212.079 152.865 211.991 152.984C211.907 153.104 211.803 153.201 211.678 153.273C211.558 153.352 211.431 153.406 211.295 153.438C211.16 153.474 211.043 153.492 210.944 153.492C210.834 153.492 210.709 153.474 210.569 153.438C210.433 153.406 210.306 153.352 210.186 153.273C210.066 153.201 209.965 153.104 209.881 152.984C209.798 152.865 209.756 152.721 209.756 152.555C209.756 152.378 209.798 152.227 209.881 152.102C209.965 151.977 210.066 151.875 210.186 151.797C210.306 151.714 210.433 151.654 210.569 151.617C210.709 151.581 210.834 151.562 210.944 151.562C211.043 151.562 211.16 151.581 211.295 151.617C211.431 151.654 211.558 151.714 211.678 151.797C211.803 151.875 211.907 151.977 211.991 152.102C212.079 152.227 212.124 152.378 212.124 152.555Z" fill="black"/>
<path d="M144.147 28C159.138 28 171.294 39.1342 171.294 52.8656C171.294 66.5971 159.138 77.7313 144.147 77.7313C129.156 77.7313 117 66.6184 117 52.8869C117 39.1342 129.156 28 144.147 28Z" fill="#E5E4DF"/>
<path d="M144.147 35.7705C154.466 35.7705 162.81 43.4346 162.81 52.8656C162.81 62.2967 154.443 69.9608 144.147 69.9608C133.851 69.9608 125.483 62.2967 125.483 52.8656C125.483 43.4346 133.851 35.7705 144.147 35.7705Z" fill="#A2D6F9"/>
<path d="M144.147 43.541C149.771 43.541 154.327 47.7137 154.327 52.8656C154.327 58.0176 149.771 62.1902 144.147 62.1902C138.522 62.1902 133.967 58.0176 133.967 52.8869C133.967 47.7562 138.522 43.541 144.147 43.541Z" fill="#2B3B47"/>
<path d="M151.795 43.541C154.142 43.541 156.048 45.2867 156.048 47.4369C156.048 49.5871 154.142 51.3328 151.795 51.3328C149.447 51.3328 147.542 49.5871 147.542 47.4369C147.542 45.2867 149.447 43.541 151.795 43.541Z" fill="#D4EDF6"/>
<path d="M154.048 50.715C153.351 48.0752 151.445 45.8611 148.888 44.6263C148.075 45.3289 147.563 46.3295 147.563 47.4365C147.563 49.5867 149.469 51.3324 151.817 51.3324C152.63 51.3324 153.397 51.0982 154.048 50.715Z" fill="#D6DBDE"/>
<path d="M208.829 28C223.821 28 235.976 39.1342 235.976 52.8656C235.976 66.5971 223.821 77.7313 208.829 77.7313C193.838 77.7313 181.683 66.6184 181.683 52.8869C181.683 39.1342 193.838 28 208.829 28Z" fill="#E5E4DF"/>
<path d="M208.829 35.7705C219.149 35.7705 227.493 43.4346 227.493 52.8656C227.493 62.2967 219.126 69.9608 208.829 69.9608C198.533 69.9608 190.166 62.2967 190.166 52.8656C190.166 43.4346 198.533 35.7705 208.829 35.7705Z" fill="#A2D6F9"/>
<path d="M208.829 43.541C214.454 43.541 219.01 47.7137 219.01 52.8656C219.01 58.0176 214.454 62.1902 208.829 62.1902C203.205 62.1902 198.649 58.0176 198.649 52.8656C198.649 47.7137 203.205 43.541 208.829 43.541Z" fill="#2B3B47"/>
<path d="M216.477 43.541C218.824 43.541 220.73 45.2867 220.73 47.4369C220.73 49.5871 218.824 51.3328 216.477 51.3328C214.129 51.3328 212.224 49.5871 212.224 47.4369C212.224 45.2867 214.129 43.541 216.477 43.541Z" fill="#D4EDF6"/>
<path d="M218.731 50.715C218.033 48.0752 216.128 45.8611 213.571 44.6263C212.757 45.3289 212.246 46.3295 212.246 47.4365C212.246 49.5867 214.152 51.3324 216.499 51.3324C217.29 51.3324 218.08 51.0982 218.731 50.715Z" fill="#D6DBDE"/>
<defs>
<filter id="filter0_d" x="0" y="0.626099" width="351.922" height="355.779" filterUnits="userSpaceOnUse" color-interpolation-filters="sRGB">
<feFlood flood-opacity="0" result="BackgroundImageFix"/>
<feColorMatrix in="SourceAlpha" type="matrix" values="0 0 0 0 0 0 0 0 0 0 0 0 0 0 0 0 0 0 127 0"/>
<feOffset dy="4"/>
<feGaussianBlur stdDeviation="2"/>
<feColorMatrix type="matrix" values="0 0 0 0 0 0 0 0 0 0 0 0 0 0 0 0 0 0 0.3 0"/>
<feBlend mode="normal" in2="BackgroundImageFix" result="effect1_dropShadow"/>
<feBlend mode="normal" in="SourceGraphic" in2="effect1_dropShadow" result="shape"/>
</filter>
</defs>
</svg>
