<svg width="41" height="41" viewBox="0 0 41 41" fill="none" xmlns="http://www.w3.org/2000/svg">
<g clip-path="url(#clip0)">
<g filter="url(#filter0_d)">
<path d="M4.13183 31.743C-2.08031 22.7038 0.217608 10.3417 9.25683 4.13208C18.296 -2.0807 30.6563 0.215941 36.8678 9.25708C43.0799 18.2963 40.782 30.6597 31.7428 36.868C22.7036 43.0744 10.3433 40.781 4.13823 31.743" fill="#FFC600"/>
</g>
<path d="M6.30345 29.2753C4.97544 27.3406 4.07343 25.2451 3.53211 23.0958C3.81298 25.9701 4.81974 28.7258 6.45784 31.1043C11.5527 38.5234 21.4485 40.663 29.1104 36.2421C20.9949 39.4446 11.4528 36.7732 6.30153 29.2727" fill="white"/>
<path d="M20.4999 11.7375C15.7069 11.7375 11.8214 15.6233 11.8214 20.4167C11.8214 25.2101 15.7069 29.0959 20.4999 29.0959C25.2929 29.0959 29.1785 25.2101 29.1785 20.4167C29.1785 15.6233 25.2929 11.7375 20.4999 11.7375Z" fill="white"/>
<path d="M22.1222 18.1118V18.6485C22.1222 18.8954 22.0971 19.1181 22.0468 19.3194C21.9955 19.5197 21.9182 19.7108 21.8147 19.8925C21.7113 20.0732 21.5771 20.2493 21.4122 20.4217C21.2482 20.5923 21.0497 20.7702 20.8177 20.9538C20.6146 21.1131 20.4431 21.2557 20.3024 21.3815C20.1626 21.5073 20.0489 21.6322 19.9623 21.7542C19.8747 21.8782 19.8123 22.0068 19.7731 22.1419C19.7349 22.277 19.7154 22.4345 19.7154 22.6134C19.7154 22.8883 19.8085 23.1156 19.9949 23.2945C20.1813 23.4734 20.4645 23.5629 20.8466 23.5629C21.1802 23.5629 21.5389 23.493 21.9238 23.3523C22.3077 23.2116 22.7056 23.0401 23.1156 22.837L23.8545 24.4388C23.6467 24.5599 23.4212 24.6745 23.1771 24.7836C22.9329 24.8926 22.6795 24.9886 22.4158 25.0734C22.1534 25.1577 21.8857 25.2244 21.6144 25.2728C21.3432 25.3212 21.0777 25.3455 20.8168 25.3455C20.3238 25.3455 19.8794 25.2858 19.4833 25.1675C19.0864 25.0491 18.7509 24.8758 18.4751 24.6494C18.1993 24.422 17.9887 24.1462 17.8405 23.8229C17.6933 23.4995 17.6197 23.1296 17.6197 22.714C17.6197 22.4093 17.6532 22.1372 17.7213 21.8987C17.7893 21.6601 17.8899 21.4374 18.0222 21.2315C18.1555 21.0265 18.3223 20.828 18.5226 20.637C18.723 20.446 18.9569 20.2447 19.2224 20.0322C19.4256 19.8729 19.5905 19.734 19.7191 19.6157C19.8477 19.4974 19.9474 19.3846 20.0201 19.2784C20.0927 19.1712 20.1421 19.0622 20.1692 18.9485C20.1962 18.8348 20.2092 18.7007 20.2092 18.546V18.1108H22.1222V18.1118ZM22.3617 15.6331C22.3617 15.8605 22.3291 16.0524 22.2639 16.2099C22.1987 16.3665 22.1083 16.4932 21.9918 16.5901C21.8762 16.687 21.7393 16.7569 21.5818 16.8007C21.4252 16.8435 21.2575 16.8659 21.0777 16.8659C20.9081 16.8659 20.7478 16.8435 20.595 16.8007C20.4431 16.7578 20.3089 16.687 20.1924 16.5901C20.0769 16.4932 19.9847 16.3665 19.9166 16.2099C19.8486 16.0524 19.8151 15.8605 19.8151 15.6331C19.8151 15.416 19.8486 15.2296 19.9166 15.075C19.9847 14.9203 20.076 14.7926 20.1924 14.691C20.3091 14.5892 20.4464 14.5138 20.595 14.4702C20.7478 14.4236 20.9081 14.4013 21.0777 14.4013C21.2566 14.4013 21.4243 14.4236 21.5818 14.4702C21.7393 14.5159 21.8762 14.5895 21.9918 14.691C22.1073 14.7926 22.1977 14.9203 22.2639 15.075C22.3291 15.2296 22.3617 15.416 22.3617 15.6331Z" fill="#072AC8"/>
</g>
<defs>
<filter id="filter0_d" x="-3.3606" y="0.638977" width="47.7206" height="47.7185" filterUnits="userSpaceOnUse" color-interpolation-filters="sRGB">
<feFlood flood-opacity="0" result="BackgroundImageFix"/>
<feColorMatrix in="SourceAlpha" type="matrix" values="0 0 0 0 0 0 0 0 0 0 0 0 0 0 0 0 0 0 127 0"/>
<feOffset dy="4"/>
<feGaussianBlur stdDeviation="2"/>
<feColorMatrix type="matrix" values="0 0 0 0 0 0 0 0 0 0 0 0 0 0 0 0 0 0 0.3 0"/>
<feBlend mode="normal" in2="BackgroundImageFix" result="effect1_dropShadow"/>
<feBlend mode="normal" in="SourceGraphic" in2="effect1_dropShadow" result="shape"/>
</filter>
<clipPath id="clip0">
<rect width="41" height="41" fill="white" transform="translate(41 41) rotate(180)"/>
</clipPath>
</defs>
</svg>
