<svg width="41" height="41" viewBox="0 0 41 41" fill="none" xmlns="http://www.w3.org/2000/svg">
<g clip-path="url(#clip0)">
<g filter="url(#filter0_d)">
<path d="M31.743 36.8682C22.7037 43.0804 10.3416 40.7825 4.13202 31.7432C-2.08076 22.704 0.215876 10.3438 9.25702 4.13229C18.2962 -2.07985 30.6597 0.218072 36.868 9.25729C43.0743 18.2965 40.7809 30.6567 31.743 36.8618" fill="#072AC8"/>
</g>
<path d="M29.2753 34.6966C27.3407 36.0246 25.2452 36.9266 23.0959 37.4679C25.9701 37.187 28.7259 36.1803 31.1043 34.5422C38.5234 29.4473 40.6631 19.5515 36.2421 11.8896C39.4446 20.0051 36.7732 29.5472 29.2728 34.6985" fill="white"/>
<path d="M11.7376 20.5001C11.7376 25.2931 15.6234 29.1786 20.4168 29.1786C25.2101 29.1786 29.0959 25.2931 29.0959 20.5001C29.0959 15.7071 25.2101 11.8215 20.4168 11.8215C15.6234 11.8215 11.7376 15.7071 11.7376 20.5001Z" fill="white"/>
<path d="M18.1118 18.8777H18.6485C18.8954 18.8777 19.1181 18.9029 19.3194 18.9532C19.5197 19.0044 19.7108 19.0818 19.8925 19.1852C20.0732 19.2886 20.2493 19.4228 20.4217 19.5877C20.5923 19.7517 20.7702 19.9502 20.9538 20.1822C21.1131 20.3854 21.2557 20.5568 21.3815 20.6975C21.5073 20.8373 21.6322 20.951 21.7542 21.0377C21.8782 21.1252 22.0068 21.1877 22.1419 21.2268C22.277 21.265 22.4345 21.2846 22.6134 21.2846C22.8883 21.2846 23.1156 21.1914 23.2945 21.005C23.4734 20.8187 23.5629 20.5354 23.5629 20.1534C23.5629 19.8198 23.493 19.461 23.3523 19.0762C23.2116 18.6923 23.0401 18.2944 22.837 17.8844L24.4388 17.1454C24.5599 17.3532 24.6745 17.5787 24.7836 17.8229C24.8926 18.067 24.9886 18.3205 25.0734 18.5842C25.1577 18.8465 25.2244 19.1142 25.2728 19.3855C25.3212 19.6567 25.3455 19.9223 25.3455 20.1832C25.3455 20.6761 25.2858 21.1206 25.1675 21.5166C25.0491 21.9136 24.8758 22.249 24.6494 22.5248C24.422 22.8007 24.1462 23.0112 23.8229 23.1594C23.4995 23.3066 23.1296 23.3802 22.714 23.3802C22.4093 23.3802 22.1372 23.3467 21.8987 23.2787C21.6601 23.2107 21.4374 23.11 21.2315 22.9777C21.0265 22.8444 20.828 22.6777 20.637 22.4773C20.446 22.277 20.2447 22.0431 20.0322 21.7775C19.8729 21.5744 19.734 21.4094 19.6157 21.2809C19.4974 21.1523 19.3846 21.0526 19.2784 20.9799C19.1712 20.9072 19.0622 20.8578 18.9485 20.8308C18.8348 20.8038 18.7007 20.7907 18.546 20.7907H18.1108V18.8777H18.1118ZM15.6331 18.6382C15.8605 18.6382 16.0524 18.6708 16.2099 18.7361C16.3665 18.8013 16.4932 18.8917 16.5901 19.0082C16.687 19.1237 16.7569 19.2607 16.8007 19.4182C16.8435 19.5747 16.8659 19.7424 16.8659 19.9223C16.8659 20.0919 16.8435 20.2521 16.8007 20.4049C16.7578 20.5568 16.687 20.691 16.5901 20.8075C16.4932 20.923 16.3665 21.0153 16.2099 21.0833C16.0524 21.1513 15.8605 21.1849 15.6331 21.1849C15.416 21.1849 15.2296 21.1513 15.075 21.0833C14.9203 21.0153 14.7926 20.924 14.691 20.8075C14.5891 20.6909 14.5138 20.5535 14.4702 20.4049C14.4236 20.2521 14.4013 20.0919 14.4013 19.9223C14.4013 19.7434 14.4236 19.5756 14.4702 19.4182C14.5159 19.2607 14.5895 19.1237 14.691 19.0082C14.7926 18.8926 14.9203 18.8022 15.075 18.7361C15.2296 18.6708 15.416 18.6382 15.6331 18.6382Z" fill="#1E96FC"/>
</g>
<defs>
<filter id="filter0_d" x="-3.36108" y="0.639954" width="47.7185" height="47.7206" filterUnits="userSpaceOnUse" color-interpolation-filters="sRGB">
<feFlood flood-opacity="0" result="BackgroundImageFix"/>
<feColorMatrix in="SourceAlpha" type="matrix" values="0 0 0 0 0 0 0 0 0 0 0 0 0 0 0 0 0 0 127 0"/>
<feOffset dy="4"/>
<feGaussianBlur stdDeviation="2"/>
<feColorMatrix type="matrix" values="0 0 0 0 0 0 0 0 0 0 0 0 0 0 0 0 0 0 0.3 0"/>
<feBlend mode="normal" in2="BackgroundImageFix" result="effect1_dropShadow"/>
<feBlend mode="normal" in="SourceGraphic" in2="effect1_dropShadow" result="shape"/>
</filter>
<clipPath id="clip0">
<rect width="41" height="41" fill="white" transform="translate(41) rotate(90)"/>
</clipPath>
</defs>
</svg>
