<svg width="41" height="41" viewBox="0 0 41 41" fill="none" xmlns="http://www.w3.org/2000/svg">
<g clip-path="url(#clip0)">
<g filter="url(#filter0_d)">
<path d="M9.25704 4.13177C18.2963 -2.08037 30.6584 0.217552 36.868 9.25677C43.0808 18.296 40.7841 30.6562 31.743 36.8677C22.7038 43.0798 10.3403 40.7819 4.13204 31.7427C-2.07433 22.7035 0.219107 10.3433 9.25704 4.13818" fill="#A2D6F9"/>
</g>
<path d="M11.7247 6.30346C13.6593 4.97544 15.7548 4.07344 17.9041 3.53211C15.0298 3.81298 12.2741 4.81974 9.89567 6.45785C2.47658 11.5527 0.336894 21.4485 4.75785 29.1104C1.55536 20.9949 4.22677 11.4528 11.7272 6.30153" fill="white"/>
<path d="M29.2624 20.4999C29.2624 15.7069 25.3766 11.8214 20.5832 11.8214C15.7899 11.8214 11.9041 15.7069 11.9041 20.4999C11.9041 25.2929 15.7899 29.1785 20.5832 29.1785C25.3766 29.1785 29.2624 25.2929 29.2624 20.4999Z" fill="white"/>
<path d="M22.8882 22.1223H22.3515C22.1046 22.1223 21.8819 22.0971 21.6806 22.0468C21.4803 21.9956 21.2892 21.9182 21.1075 21.8148C20.9268 21.7114 20.7507 21.5772 20.5783 21.4123C20.4077 21.2483 20.2298 21.0498 20.0462 20.8178C19.8869 20.6146 19.7443 20.4432 19.6185 20.3025C19.4927 20.1627 19.3678 20.049 19.2458 19.9623C19.1218 19.8748 18.9932 19.8123 18.8581 19.7732C18.723 19.735 18.5655 19.7154 18.3866 19.7154C18.1117 19.7154 17.8844 19.8086 17.7055 19.995C17.5266 20.1813 17.4371 20.4646 17.4371 20.8466C17.4371 21.1802 17.507 21.539 17.6477 21.9238C17.7884 22.3077 17.9599 22.7056 18.163 23.1156L16.5612 23.8546C16.4401 23.6468 16.3255 23.4213 16.2164 23.1771C16.1074 22.933 16.0114 22.6795 15.9266 22.4158C15.8423 22.1535 15.7756 21.8858 15.7272 21.6145C15.6788 21.3433 15.6545 21.0777 15.6545 20.8168C15.6545 20.3239 15.7142 19.8794 15.8325 19.4834C15.9509 19.0864 16.1242 18.751 16.3506 18.4752C16.578 18.1993 16.8538 17.9888 17.1771 17.8406C17.5005 17.6934 17.8704 17.6198 18.286 17.6198C18.5907 17.6198 18.8628 17.6533 19.1013 17.7213C19.3399 17.7893 19.5626 17.89 19.7685 18.0223C19.9735 18.1556 20.172 18.3223 20.363 18.5227C20.554 18.723 20.7553 18.9569 20.9678 19.2225C21.1271 19.4256 21.266 19.5906 21.3843 19.7191C21.5026 19.8477 21.6154 19.9474 21.7216 20.0201C21.8288 20.0928 21.9378 20.1422 22.0515 20.1692C22.1652 20.1962 22.2993 20.2093 22.454 20.2093H22.8892V22.1223H22.8882ZM25.3669 22.3618C25.1395 22.3618 24.9476 22.3292 24.7901 22.2639C24.6335 22.1987 24.5068 22.1083 24.4099 21.9918C24.313 21.8763 24.2431 21.7393 24.1993 21.5818C24.1565 21.4253 24.1341 21.2576 24.1341 21.0777C24.1341 20.9081 24.1565 20.7479 24.1993 20.5951C24.2422 20.4432 24.313 20.309 24.4099 20.1925C24.5068 20.077 24.6335 19.9847 24.7901 19.9167C24.9476 19.8487 25.1395 19.8151 25.3669 19.8151C25.584 19.8151 25.7704 19.8487 25.925 19.9167C26.0797 19.9847 26.2074 20.076 26.309 20.1925C26.4108 20.3091 26.4862 20.4465 26.5298 20.5951C26.5764 20.7479 26.5987 20.9081 26.5987 21.0777C26.5987 21.2566 26.5764 21.4244 26.5298 21.5818C26.4841 21.7393 26.4105 21.8763 26.309 21.9918C26.2074 22.1074 26.0797 22.1978 25.925 22.2639C25.7704 22.3292 25.584 22.3618 25.3669 22.3618Z" fill="#FFC600"/>
</g>
<defs>
<filter id="filter0_d" x="-3.35742" y="0.639404" width="47.7185" height="47.7206" filterUnits="userSpaceOnUse" color-interpolation-filters="sRGB">
<feFlood flood-opacity="0" result="BackgroundImageFix"/>
<feColorMatrix in="SourceAlpha" type="matrix" values="0 0 0 0 0 0 0 0 0 0 0 0 0 0 0 0 0 0 127 0"/>
<feOffset dy="4"/>
<feGaussianBlur stdDeviation="2"/>
<feColorMatrix type="matrix" values="0 0 0 0 0 0 0 0 0 0 0 0 0 0 0 0 0 0 0.3 0"/>
<feBlend mode="normal" in2="BackgroundImageFix" result="effect1_dropShadow"/>
<feBlend mode="normal" in="SourceGraphic" in2="effect1_dropShadow" result="shape"/>
</filter>
<clipPath id="clip0">
<rect width="41" height="41" fill="white" transform="translate(0 41) rotate(-90)"/>
</clipPath>
</defs>
</svg>
