<svg width="133" height="118" viewBox="0 0 133 118" fill="none" xmlns="http://www.w3.org/2000/svg">
<path d="M15.1766 2.28882e-05H117.836C120.228 0.0168076 122.581 0.61879 124.687 1.75348C126.794 2.88816 128.591 4.52108 129.922 6.50978C131.252 8.49848 132.076 10.7826 132.321 13.1628C132.566 15.543 132.225 17.947 131.328 20.1652L79.2651 109.992C77.9968 112.284 76.1377 114.195 73.881 115.525C71.6243 116.856 69.0524 117.557 66.4327 117.557C63.813 117.557 61.2411 116.856 58.9844 115.525C56.7277 114.195 54.8686 112.284 53.6004 109.992L1.53758 20.1652C0.657219 17.9978 0.308118 15.6512 0.519427 13.3214C0.730735 10.9916 1.49632 8.74617 2.75227 6.77254C4.00822 4.7989 5.71808 3.15437 7.73911 1.9762C9.76014 0.798042 12.0337 0.120468 14.37 2.28882e-05" fill="#FFC600"/>
<path d="M56.5879 39.5605L45.3672 40L47.8477 37.8418L48.4336 28.3984L45.748 27.002L52.252 26.582L50.1914 27.9785L50.3086 37.8809L54.8301 38.4375L56.5879 35.1367V39.5605ZM59.8203 36.416C59.9049 36.7806 60.0189 37.1387 60.1621 37.4902C60.3053 37.8353 60.4811 38.1445 60.6895 38.418C60.8978 38.6914 61.1387 38.9128 61.4121 39.082C61.6855 39.2513 61.9948 39.3359 62.3398 39.3359C62.7956 39.3359 63.1927 39.2415 63.5312 39.0527C63.8698 38.8639 64.1465 38.6263 64.3613 38.3398C64.5762 38.0469 64.7259 37.7279 64.8105 37.3828C64.8952 37.0312 64.9115 36.696 64.8594 36.377C65.0417 36.4486 65.1914 36.543 65.3086 36.6602C65.4323 36.7773 65.5267 36.9076 65.5918 37.0508C65.6634 37.1875 65.7122 37.3307 65.7383 37.4805C65.7643 37.6237 65.7773 37.7637 65.7773 37.9004C65.7773 38.2129 65.6862 38.5156 65.5039 38.8086C65.3216 39.0951 65.0645 39.3522 64.7324 39.5801C64.4069 39.8014 64.0195 39.9805 63.5703 40.1172C63.1211 40.2539 62.6296 40.3223 62.0957 40.3223C61.3796 40.3223 60.7383 40.1823 60.1719 39.9023C59.612 39.6224 59.1367 39.2448 58.7461 38.7695C58.3555 38.2878 58.056 37.7246 57.8477 37.0801C57.6393 36.4355 57.5352 35.7487 57.5352 35.0195C57.5352 34.2773 57.6393 33.5938 57.8477 32.9688C58.056 32.3372 58.362 31.8001 58.7656 31.3574C59.1758 30.9147 59.6771 30.5794 60.2695 30.3516C60.862 30.1237 61.5456 30.0326 62.3203 30.0781C62.8542 30.1172 63.3457 30.2702 63.7949 30.5371C64.2441 30.804 64.6348 31.1491 64.9668 31.5723C65.3053 31.9889 65.5755 32.4674 65.7773 33.0078C65.9857 33.5482 66.1126 34.1113 66.1582 34.6973L59.8203 36.416ZM59.6348 34.8438C59.6348 34.9349 59.6348 35.026 59.6348 35.1172C59.6348 35.2018 59.6413 35.2897 59.6543 35.3809L63.9414 33.8184C63.7982 33.3496 63.6354 32.9492 63.4531 32.6172C63.2773 32.2786 63.0918 32.002 62.8965 31.7871C62.7012 31.5723 62.5026 31.416 62.3008 31.3184C62.1055 31.2142 61.9167 31.1621 61.7344 31.1621C61.4609 31.1621 61.2201 31.2142 61.0117 31.3184C60.8034 31.4225 60.6211 31.5658 60.4648 31.748C60.3151 31.9238 60.1849 32.1322 60.0742 32.373C59.9701 32.6139 59.8854 32.8711 59.8203 33.1445C59.7552 33.418 59.7064 33.7012 59.6738 33.9941C59.6478 34.2806 59.6348 34.5638 59.6348 34.8438ZM67.8477 35.7227C67.8477 35.1107 67.9095 34.502 68.0332 33.8965C68.1634 33.2845 68.3034 32.7246 68.4531 32.2168L66.7637 32.3242L71.5293 27.1191C71.1517 28.3105 70.8457 29.3848 70.6113 30.3418L74.4102 30.6641L73.9121 31.8359L70.2305 32.0996C70.1393 32.5749 70.0677 32.998 70.0156 33.3691C69.9701 33.7337 69.931 34.043 69.8984 34.2969C69.8659 34.5964 69.8431 34.8568 69.8301 35.0781C69.8301 35.7292 69.8691 36.3151 69.9473 36.8359C70.0254 37.3568 70.1458 37.8027 70.3086 38.1738C70.4779 38.5384 70.6895 38.8216 70.9434 39.0234C71.2038 39.2188 71.513 39.3164 71.8711 39.3164C72.2031 39.3164 72.4798 39.2513 72.7012 39.1211C72.929 38.9844 73.1113 38.8118 73.248 38.6035C73.3848 38.3887 73.4824 38.151 73.541 37.8906C73.5996 37.6237 73.6289 37.36 73.6289 37.0996C73.6289 36.8587 73.6094 36.6243 73.5703 36.3965C73.8503 36.5397 74.0618 36.7708 74.2051 37.0898C74.3548 37.4023 74.4297 37.7441 74.4297 38.1152C74.4297 38.4993 74.3646 38.8379 74.2344 39.1309C74.1107 39.4238 73.9382 39.6712 73.7168 39.873C73.4954 40.0684 73.235 40.2181 72.9355 40.3223C72.6361 40.4264 72.3138 40.4785 71.9688 40.4785C71.7604 40.4785 71.513 40.4557 71.2266 40.4102C70.9466 40.3646 70.6536 40.2799 70.3477 40.1562C70.0417 40.0391 69.7389 39.8698 69.4395 39.6484C69.14 39.4271 68.873 39.1406 68.6387 38.7891C68.4043 38.4375 68.2122 38.0111 68.0625 37.5098C67.9193 37.002 67.8477 36.4062 67.8477 35.7227ZM77.7207 27.5977C77.7207 27.8646 77.6686 28.1022 77.5645 28.3105C77.4603 28.5124 77.3203 28.6914 77.1445 28.8477C76.9688 29.0039 76.7669 29.1374 76.5391 29.248C76.3112 29.3522 76.0703 29.4368 75.8164 29.502C75.875 29.4173 75.9271 29.3424 75.9727 29.2773C76.0182 29.2122 76.0573 29.1439 76.0898 29.0723C76.1224 29.0007 76.1484 28.9193 76.168 28.8281C76.1875 28.737 76.1973 28.6263 76.1973 28.4961C76.0996 28.4766 75.9922 28.444 75.875 28.3984C75.7643 28.3529 75.6602 28.2943 75.5625 28.2227C75.4714 28.151 75.3932 28.0632 75.3281 27.959C75.2695 27.8548 75.2402 27.7344 75.2402 27.5977C75.2402 27.4414 75.2858 27.3079 75.377 27.1973C75.4681 27.0801 75.5788 26.9857 75.709 26.9141C75.8392 26.8359 75.9759 26.7806 76.1191 26.748C76.2689 26.7155 76.4023 26.6992 76.5195 26.6992C76.6367 26.6992 76.7637 26.7155 76.9004 26.748C77.0371 26.7806 77.1673 26.8359 77.291 26.9141C77.4147 26.9857 77.5156 27.0801 77.5938 27.1973C77.6784 27.3079 77.7207 27.4414 77.7207 27.5977ZM82.3887 30.0586C82.6361 30.0586 82.8867 30.0814 83.1406 30.127C83.3945 30.166 83.6419 30.2279 83.8828 30.3125C84.1302 30.3906 84.3613 30.4883 84.5762 30.6055C84.7975 30.7161 84.9961 30.8398 85.1719 30.9766L86.7734 29.0039L86.0508 33.877C85.9727 33.5384 85.8359 33.2064 85.6406 32.8809C85.4453 32.5488 85.2012 32.2526 84.9082 31.9922C84.6217 31.7318 84.2897 31.5234 83.9121 31.3672C83.5345 31.2044 83.1211 31.123 82.6719 31.123C82.4245 31.123 82.1868 31.1523 81.959 31.2109C81.7311 31.263 81.5293 31.3509 81.3535 31.4746C81.1842 31.5983 81.0475 31.7546 80.9434 31.9434C80.8457 32.1322 80.7969 32.3568 80.7969 32.6172C80.7969 32.9297 80.8815 33.1836 81.0508 33.3789C81.2266 33.5742 81.4544 33.7402 81.7344 33.877C82.0143 34.0072 82.3333 34.1211 82.6914 34.2188C83.0495 34.3099 83.4173 34.4076 83.7949 34.5117C84.1725 34.6159 84.5404 34.7396 84.8984 34.8828C85.2565 35.0195 85.5755 35.1986 85.8555 35.4199C86.1354 35.6413 86.36 35.918 86.5293 36.25C86.7051 36.5755 86.793 36.9792 86.793 37.4609C86.793 38.0013 86.6855 38.4635 86.4707 38.8477C86.2624 39.2253 85.9922 39.5378 85.6602 39.7852C85.3281 40.026 84.9603 40.2018 84.5566 40.3125C84.153 40.4232 83.7591 40.4785 83.375 40.4785C83.0625 40.4785 82.75 40.446 82.4375 40.3809C82.125 40.3158 81.8223 40.2246 81.5293 40.1074C81.2363 39.9902 80.9564 39.8503 80.6895 39.6875C80.429 39.5247 80.1914 39.349 79.9766 39.1602L78.4922 41.1426L78.9512 36.2988C79.1595 36.7415 79.4102 37.1549 79.7031 37.5391C79.9961 37.9232 80.3216 38.2585 80.6797 38.5449C81.0378 38.8249 81.4219 39.0462 81.832 39.209C82.2422 39.3652 82.6686 39.4434 83.1113 39.4434C83.6257 39.4434 84.0358 39.3359 84.3418 39.1211C84.6543 38.8997 84.8105 38.5872 84.8105 38.1836C84.8105 37.9232 84.7227 37.7083 84.5469 37.5391C84.3776 37.3633 84.1497 37.2103 83.8633 37.0801C83.5833 36.9499 83.2643 36.8327 82.9062 36.7285C82.5482 36.6243 82.1803 36.5104 81.8027 36.3867C81.4251 36.263 81.0573 36.1198 80.6992 35.957C80.3411 35.7878 80.0189 35.5794 79.7324 35.332C79.4525 35.0781 79.2246 34.7721 79.0488 34.4141C78.8796 34.0495 78.7949 33.61 78.7949 33.0957C78.7949 32.653 78.86 32.2689 78.9902 31.9434C79.1204 31.6178 79.2897 31.3444 79.498 31.123C79.7129 30.8952 79.9505 30.7129 80.2109 30.5762C80.4779 30.4329 80.7448 30.3255 81.0117 30.2539C81.2786 30.1758 81.5326 30.1237 81.7734 30.0977C82.0143 30.0716 82.2194 30.0586 82.3887 30.0586ZM48.9219 49.7773C49.3646 49.7773 49.7878 49.8197 50.1914 49.9043C50.6016 49.9824 50.9824 50.0898 51.334 50.2266C51.6855 50.3568 52.0046 50.5065 52.291 50.6758C52.5775 50.8451 52.8216 51.0143 53.0234 51.1836L55.5625 49.4355L52.6426 55.041L52.418 52.1016C52.2292 51.9714 52.0241 51.8574 51.8027 51.7598C51.5879 51.6556 51.3698 51.571 51.1484 51.5059C50.9336 51.4342 50.7253 51.3789 50.5234 51.3398C50.3216 51.2943 50.1426 51.2585 49.9863 51.2324C49.8301 51.2064 49.7031 51.1901 49.6055 51.1836C49.5143 51.1706 49.4655 51.1641 49.459 51.1641C49.0163 51.1641 48.6452 51.2129 48.3457 51.3105C48.0462 51.4082 47.8021 51.5352 47.6133 51.6914C47.431 51.8477 47.2975 52.0267 47.2129 52.2285C47.1348 52.4238 47.0957 52.6224 47.0957 52.8242C47.0957 53.2344 47.1803 53.5827 47.3496 53.8691C47.5189 54.1491 47.776 54.3997 48.1211 54.6211C48.4661 54.8424 48.9056 55.0508 49.4395 55.2461C49.9733 55.4349 50.6016 55.64 51.3242 55.8613C51.7604 55.998 52.1706 56.1836 52.5547 56.418C52.9453 56.6458 53.2839 56.916 53.5703 57.2285C53.8568 57.5345 54.0814 57.8796 54.2441 58.2637C54.4134 58.6413 54.498 59.0482 54.498 59.4844C54.498 59.9922 54.4264 60.4447 54.2832 60.8418C54.14 61.2324 53.9479 61.5775 53.707 61.877C53.4727 62.1699 53.1992 62.4206 52.8867 62.6289C52.5742 62.8307 52.2487 62.9935 51.9102 63.1172C51.5781 63.2474 51.2396 63.3385 50.8945 63.3906C50.556 63.4492 50.237 63.4785 49.9375 63.4785C49.0586 63.4785 48.2611 63.3288 47.5449 63.0293C46.8288 62.7298 46.1615 62.3197 45.543 61.7988L43.0039 63.5371L45.8359 58.5176C45.9141 58.9863 46.0508 59.4388 46.2461 59.875C46.4479 60.3047 46.6953 60.6888 46.9883 61.0273C47.2812 61.3659 47.6198 61.6361 48.0039 61.8379C48.388 62.0397 48.8079 62.1406 49.2637 62.1406C49.6283 62.1406 49.9603 62.0853 50.2598 61.9746C50.5658 61.8639 50.8262 61.7174 51.041 61.5352C51.2559 61.3464 51.4219 61.1315 51.5391 60.8906C51.6628 60.6432 51.7246 60.3861 51.7246 60.1191C51.7246 59.748 51.6204 59.429 51.4121 59.1621C51.2038 58.8887 50.9303 58.6478 50.5918 58.4395C50.2533 58.2246 49.8659 58.0293 49.4297 57.8535C49 57.6712 48.5573 57.4857 48.1016 57.2969C47.6458 57.1081 47.1999 56.8997 46.7637 56.6719C46.334 56.444 45.9499 56.1771 45.6113 55.8711C45.2728 55.5586 44.9993 55.194 44.791 54.7773C44.5827 54.3607 44.4785 53.8691 44.4785 53.3027C44.4785 52.8665 44.5632 52.4401 44.7324 52.0234C44.9082 51.6003 45.1751 51.2227 45.5332 50.8906C45.8978 50.5586 46.36 50.2917 46.9199 50.0898C47.4798 49.8815 48.1471 49.7773 48.9219 49.7773ZM56.2852 58.7227C56.2852 58.1107 56.347 57.502 56.4707 56.8965C56.6009 56.2845 56.7409 55.7246 56.8906 55.2168L55.2012 55.3242L59.9668 50.1191C59.5892 51.3105 59.2832 52.3848 59.0488 53.3418L62.8477 53.6641L62.3496 54.8359L58.668 55.0996C58.5768 55.5749 58.5052 55.998 58.4531 56.3691C58.4076 56.7337 58.3685 57.043 58.3359 57.2969C58.3034 57.5964 58.2806 57.8568 58.2676 58.0781C58.2676 58.7292 58.3066 59.3151 58.3848 59.8359C58.4629 60.3568 58.5833 60.8027 58.7461 61.1738C58.9154 61.5384 59.127 61.8216 59.3809 62.0234C59.6413 62.2188 59.9505 62.3164 60.3086 62.3164C60.6406 62.3164 60.9173 62.2513 61.1387 62.1211C61.3665 61.9844 61.5488 61.8118 61.6855 61.6035C61.8223 61.3887 61.9199 61.151 61.9785 60.8906C62.0371 60.6237 62.0664 60.36 62.0664 60.0996C62.0664 59.8587 62.0469 59.6243 62.0078 59.3965C62.2878 59.5397 62.4993 59.7708 62.6426 60.0898C62.7923 60.4023 62.8672 60.7441 62.8672 61.1152C62.8672 61.4993 62.8021 61.8379 62.6719 62.1309C62.5482 62.4238 62.3757 62.6712 62.1543 62.873C61.9329 63.0684 61.6725 63.2181 61.373 63.3223C61.0736 63.4264 60.7513 63.4785 60.4062 63.4785C60.1979 63.4785 59.9505 63.4557 59.6641 63.4102C59.3841 63.3646 59.0911 63.2799 58.7852 63.1562C58.4792 63.0391 58.1764 62.8698 57.877 62.6484C57.5775 62.4271 57.3105 62.1406 57.0762 61.7891C56.8418 61.4375 56.6497 61.0111 56.5 60.5098C56.3568 60.002 56.2852 59.4062 56.2852 58.7227ZM72.0371 56.916C72.0371 57.2611 72.0176 57.6322 71.9785 58.0293C71.9395 58.4264 71.8809 58.8301 71.8027 59.2402C71.7311 59.6504 71.6432 60.054 71.5391 60.4512C71.4414 60.8418 71.334 61.2031 71.2168 61.5352L73.2969 63L69.6152 62.8438L69.8398 61.6426C69.4492 62.1309 68.9967 62.5052 68.4824 62.7656C67.9746 63.0195 67.3854 63.1725 66.7148 63.2246C66.168 63.2637 65.6895 63.2246 65.2793 63.1074C64.8757 62.9967 64.5371 62.8242 64.2637 62.5898C63.9967 62.349 63.7982 62.056 63.668 61.7109C63.5378 61.3594 63.4727 60.9688 63.4727 60.5391C63.4727 60.1419 63.5703 59.7578 63.7656 59.3867C63.9609 59.0091 64.2409 58.6771 64.6055 58.3906C64.9766 58.1042 65.429 57.8763 65.9629 57.707C66.4967 57.5312 67.1022 57.4434 67.7793 57.4434C68.0918 57.4434 68.4499 57.4727 68.8535 57.5312C69.2637 57.5898 69.651 57.7135 70.0156 57.9023C69.9831 57.5052 69.9212 57.1016 69.8301 56.6914C69.7454 56.2747 69.6185 55.8971 69.4492 55.5586C69.2799 55.2201 69.0586 54.9466 68.7852 54.7383C68.5182 54.5234 68.1829 54.416 67.7793 54.416C67.4342 54.416 67.099 54.4876 66.7734 54.6309C66.4479 54.7741 66.1419 54.9792 65.8555 55.2461C65.5755 55.513 65.3216 55.8385 65.0938 56.2227C64.8659 56.6068 64.6738 57.0397 64.5176 57.5215L63.6973 52.7363L64.9375 54.6406C65.2435 54.263 65.5527 53.9635 65.8652 53.7422C66.1777 53.5143 66.487 53.3418 66.793 53.2246C67.1055 53.1009 67.4049 53.0195 67.6914 52.9805C67.9844 52.9414 68.2643 52.9219 68.5312 52.9219C69.0326 52.9479 69.4948 53.0521 69.918 53.2344C70.3477 53.4102 70.7188 53.6673 71.0312 54.0059C71.3438 54.3379 71.5879 54.748 71.7637 55.2363C71.946 55.7246 72.0371 56.2845 72.0371 56.916ZM70.0156 60.041C70.0286 59.8587 70.0384 59.6829 70.0449 59.5137C70.0514 59.3444 70.0547 59.1784 70.0547 59.0156V58.8984C69.8203 58.8073 69.5827 58.7389 69.3418 58.6934C69.1074 58.6413 68.8893 58.6055 68.6875 58.5859C68.4857 58.5599 68.3132 58.5469 68.1699 58.5469C68.0332 58.5404 67.9421 58.5371 67.8965 58.5371C67.5254 58.5501 67.2031 58.6185 66.9297 58.7422C66.6562 58.8659 66.4284 59.0221 66.2461 59.2109C66.0703 59.3932 65.9368 59.5983 65.8457 59.8262C65.7611 60.054 65.7188 60.2786 65.7188 60.5C65.7188 61.0013 65.8392 61.3822 66.0801 61.6426C66.3275 61.8965 66.6855 62.0234 67.1543 62.0234C67.4668 62.0234 67.763 61.9681 68.043 61.8574C68.3229 61.7467 68.5833 61.6003 68.8242 61.418C69.0716 61.2292 69.293 61.0176 69.4883 60.7832C69.6901 60.5423 69.8659 60.2949 70.0156 60.041ZM80.5137 56.3398C80.4551 56.099 80.3704 55.8939 80.2598 55.7246C80.1556 55.5553 80.0352 55.4154 79.8984 55.3047C79.7682 55.1875 79.6283 55.0996 79.4785 55.041C79.3288 54.9759 79.179 54.9271 79.0293 54.8945C78.6777 54.8229 78.3034 54.8262 77.9062 54.9043C77.7695 54.9499 77.623 55.0215 77.4668 55.1191C77.3301 55.2103 77.1738 55.334 76.998 55.4902C76.8223 55.64 76.6335 55.8418 76.4316 56.0957L76.6074 61.7598L78.3652 62.6387L73.1895 63.0977L74.5273 61.7402L75.0742 54.9434L72.9941 53.9961L76.3535 53.3613L76.3926 54.582C76.6204 54.3086 76.8548 54.084 77.0957 53.9082C77.3366 53.7324 77.5547 53.5892 77.75 53.4785C77.9779 53.3548 78.1992 53.2604 78.4141 53.1953C78.8047 53.1042 79.2018 53.0684 79.6055 53.0879C79.7747 53.0944 79.9505 53.1139 80.1328 53.1465C80.3216 53.179 80.5104 53.2311 80.6992 53.3027C80.8945 53.3678 81.0833 53.459 81.2656 53.5762C81.4479 53.6868 81.6237 53.8268 81.793 53.9961L80.5137 56.3398ZM82.7695 58.7227C82.7695 58.1107 82.8314 57.502 82.9551 56.8965C83.0853 56.2845 83.2253 55.7246 83.375 55.2168L81.6855 55.3242L86.4512 50.1191C86.0736 51.3105 85.7676 52.3848 85.5332 53.3418L89.332 53.6641L88.834 54.8359L85.1523 55.0996C85.0612 55.5749 84.9896 55.998 84.9375 56.3691C84.8919 56.7337 84.8529 57.043 84.8203 57.2969C84.7878 57.5964 84.765 57.8568 84.752 58.0781C84.752 58.7292 84.791 59.3151 84.8691 59.8359C84.9473 60.3568 85.0677 60.8027 85.2305 61.1738C85.3997 61.5384 85.6113 61.8216 85.8652 62.0234C86.1257 62.2188 86.4349 62.3164 86.793 62.3164C87.125 62.3164 87.4017 62.2513 87.623 62.1211C87.8509 61.9844 88.0332 61.8118 88.1699 61.6035C88.3066 61.3887 88.4043 61.151 88.4629 60.8906C88.5215 60.6237 88.5508 60.36 88.5508 60.0996C88.5508 59.8587 88.5312 59.6243 88.4922 59.3965C88.7721 59.5397 88.9837 59.7708 89.127 60.0898C89.2767 60.4023 89.3516 60.7441 89.3516 61.1152C89.3516 61.4993 89.2865 61.8379 89.1562 62.1309C89.0326 62.4238 88.86 62.6712 88.6387 62.873C88.4173 63.0684 88.1569 63.2181 87.8574 63.3223C87.5579 63.4264 87.2357 63.4785 86.8906 63.4785C86.6823 63.4785 86.4349 63.4557 86.1484 63.4102C85.8685 63.3646 85.5755 63.2799 85.2695 63.1562C84.9635 63.0391 84.6608 62.8698 84.3613 62.6484C84.0618 62.4271 83.7949 62.1406 83.5605 61.7891C83.3262 61.4375 83.1341 61.0111 82.9844 60.5098C82.8411 60.002 82.7695 59.4062 82.7695 58.7227Z" fill="black"/>
</svg>
