<svg width="41" height="41" viewBox="0 0 41 41" fill="none" xmlns="http://www.w3.org/2000/svg">
<g clip-path="url(#clip0)">
<g filter="url(#filter0_d)">
<path d="M36.8682 9.25698C43.0803 18.2962 40.7824 30.6583 31.7432 36.8679C22.7039 43.0807 10.3437 40.7841 4.13223 31.7429C-2.07991 22.7037 0.218011 10.3403 9.25723 4.13198C18.2964 -2.07439 30.6567 0.219046 36.8618 9.25698" fill="#1E96FC"/>
</g>
<path d="M34.6965 11.7247C36.0246 13.6594 36.9266 15.7549 37.4679 17.9042C37.187 15.0299 36.1803 12.2742 34.5422 9.89573C29.4473 2.47664 19.5515 0.336955 11.8896 4.75791C20.0051 1.55542 29.5472 4.22683 34.6985 11.7273" fill="white"/>
<path d="M20.5001 29.2625C25.2931 29.2625 29.1786 25.3767 29.1786 20.5833C29.1786 15.7899 25.2931 11.9041 20.5001 11.9041C15.7071 11.9041 11.8215 15.7899 11.8215 20.5833C11.8215 25.3767 15.7071 29.2625 20.5001 29.2625Z" fill="white"/>
<path d="M18.8778 22.8882V22.3515C18.8778 22.1046 18.9029 21.8819 18.9532 21.6806C19.0045 21.4803 19.0818 21.2892 19.1853 21.1075C19.2887 20.9268 19.4229 20.7507 19.5878 20.5783C19.7518 20.4077 19.9503 20.2298 20.1823 20.0462C20.3854 19.8869 20.5569 19.7443 20.6976 19.6185C20.8374 19.4927 20.9511 19.3678 21.0377 19.2458C21.1253 19.1218 21.1877 18.9932 21.2269 18.8581C21.2651 18.723 21.2846 18.5655 21.2846 18.3866C21.2846 18.1117 21.1915 17.8844 21.0051 17.7055C20.8187 17.5266 20.5355 17.4371 20.1534 17.4371C19.8198 17.4371 19.4611 17.507 19.0762 17.6477C18.6923 17.7884 18.2944 17.9599 17.8844 18.163L17.1455 16.5612C17.3533 16.4401 17.5788 16.3255 17.8229 16.2164C18.0671 16.1074 18.3205 16.0114 18.5842 15.9266C18.8466 15.8423 19.1143 15.7756 19.3856 15.7272C19.6568 15.6788 19.9223 15.6545 20.1832 15.6545C20.6762 15.6545 21.1206 15.7142 21.5167 15.8325C21.9136 15.9509 22.2491 16.1242 22.5249 16.3506C22.8007 16.578 23.0113 16.8538 23.1595 17.1771C23.3067 17.5005 23.3803 17.8704 23.3803 18.286C23.3803 18.5907 23.3468 18.8628 23.2787 19.1013C23.2107 19.3399 23.1101 19.5626 22.9778 19.7685C22.8445 19.9735 22.6777 20.172 22.4774 20.363C22.277 20.554 22.0431 20.7553 21.7776 20.9678C21.5744 21.1271 21.4095 21.266 21.2809 21.3843C21.1523 21.5026 21.0526 21.6154 20.9799 21.7216C20.9073 21.8288 20.8579 21.9378 20.8308 22.0515C20.8038 22.1652 20.7908 22.2993 20.7908 22.454V22.8892H18.8778V22.8882ZM18.6383 25.3669C18.6383 25.1395 18.6709 24.9476 18.7361 24.7901C18.8013 24.6335 18.8917 24.5068 19.0082 24.4099C19.1238 24.313 19.2607 24.2431 19.4182 24.1993C19.5748 24.1565 19.7425 24.1341 19.9223 24.1341C20.0919 24.1341 20.2522 24.1565 20.405 24.1993C20.5569 24.2422 20.6911 24.313 20.8076 24.4099C20.9231 24.5068 21.0153 24.6335 21.0834 24.7901C21.1514 24.9476 21.1849 25.1395 21.1849 25.3669C21.1849 25.584 21.1514 25.7704 21.0834 25.925C21.0153 26.0797 20.924 26.2074 20.8076 26.309C20.6909 26.4108 20.5536 26.4862 20.405 26.5298C20.2522 26.5764 20.0919 26.5987 19.9223 26.5987C19.7434 26.5987 19.5757 26.5764 19.4182 26.5298C19.2607 26.4841 19.1238 26.4105 19.0082 26.309C18.8927 26.2074 18.8023 26.0797 18.7361 25.925C18.6709 25.7704 18.6383 25.584 18.6383 25.3669Z" fill="#072AC8"/>
</g>
<defs>
<filter id="filter0_d" x="-3.36011" y="0.642517" width="47.7206" height="47.7185" filterUnits="userSpaceOnUse" color-interpolation-filters="sRGB">
<feFlood flood-opacity="0" result="BackgroundImageFix"/>
<feColorMatrix in="SourceAlpha" type="matrix" values="0 0 0 0 0 0 0 0 0 0 0 0 0 0 0 0 0 0 127 0"/>
<feOffset dy="4"/>
<feGaussianBlur stdDeviation="2"/>
<feColorMatrix type="matrix" values="0 0 0 0 0 0 0 0 0 0 0 0 0 0 0 0 0 0 0.3 0"/>
<feBlend mode="normal" in2="BackgroundImageFix" result="effect1_dropShadow"/>
<feBlend mode="normal" in="SourceGraphic" in2="effect1_dropShadow" result="shape"/>
</filter>
<clipPath id="clip0">
<rect width="41" height="41" fill="white"/>
</clipPath>
</defs>
</svg>
