<svg width="133" height="118" viewBox="0 0 133 118" fill="none" xmlns="http://www.w3.org/2000/svg">
<path d="M15.1766 2.28882e-05H117.836C120.228 0.0168076 122.581 0.61879 124.687 1.75348C126.794 2.88816 128.591 4.52108 129.922 6.50978C131.252 8.49848 132.076 10.7826 132.321 13.1628C132.566 15.543 132.225 17.947 131.328 20.1652L79.2651 109.992C77.9968 112.284 76.1377 114.195 73.881 115.525C71.6243 116.856 69.0524 117.557 66.4327 117.557C63.813 117.557 61.2411 116.856 58.9844 115.525C56.7277 114.195 54.8686 112.284 53.6004 109.992L1.53758 20.1652C0.657219 17.9978 0.308118 15.6512 0.519427 13.3214C0.730735 10.9916 1.49632 8.74617 2.75227 6.77254C4.00822 4.7989 5.71808 3.15437 7.73911 1.9762C9.76014 0.798042 12.0337 0.120468 14.37 2.28882e-05" fill="#FFC600"/>
</svg>
