<svg width="251" height="106" viewBox="0 0 251 106" fill="none" xmlns="http://www.w3.org/2000/svg">
<g filter="url(#filter0_d)">
<path d="M31.5512 54.0234C31.3402 53.1562 31.0355 52.418 30.6371 51.8086C30.2621 51.1992 29.8285 50.6953 29.3363 50.2969C28.8676 49.875 28.3637 49.5586 27.8246 49.3477C27.2855 49.1133 26.7465 48.9375 26.2074 48.8203C24.9418 48.5625 23.5941 48.5742 22.1644 48.8555C21.6723 49.0195 21.1449 49.2773 20.5824 49.6289C20.0902 49.957 19.5277 50.4023 18.8949 50.9648C18.2621 51.5039 17.5824 52.2305 16.8559 53.1445L17.4887 73.5352L23.8168 76.6992L5.18398 78.3516L10.0004 73.4648L11.9691 48.9961L4.48085 45.5859L16.5746 43.3008L16.7152 47.6953C17.5355 46.7109 18.3793 45.9023 19.2465 45.2695C20.1137 44.6367 20.8988 44.1211 21.6019 43.7227C22.4223 43.2773 23.2191 42.9375 23.9926 42.7031C25.3988 42.375 26.8285 42.2461 28.2816 42.3164C28.891 42.3398 29.5238 42.4102 30.1801 42.5273C30.8598 42.6445 31.5394 42.832 32.2191 43.0898C32.9223 43.3242 33.6019 43.6523 34.2582 44.0742C34.9144 44.4727 35.5473 44.9766 36.1566 45.5859L31.5512 54.0234ZM223.399 65.0977C223.704 66.4102 224.114 67.6992 224.629 68.9648C225.145 70.207 225.778 71.3203 226.528 72.3047C227.278 73.2891 228.145 74.0859 229.129 74.6953C230.114 75.3047 231.227 75.6094 232.469 75.6094C234.11 75.6094 235.539 75.2695 236.758 74.5898C237.977 73.9102 238.973 73.0547 239.746 72.0234C240.52 70.9688 241.059 69.8203 241.364 68.5781C241.668 67.3125 241.727 66.1055 241.539 64.957C242.196 65.2148 242.735 65.5547 243.157 65.9766C243.602 66.3984 243.942 66.8672 244.176 67.3828C244.434 67.875 244.61 68.3906 244.704 68.9297C244.797 69.4453 244.844 69.9492 244.844 70.4414C244.844 71.5664 244.516 72.6562 243.86 73.7109C243.204 74.7422 242.278 75.668 241.082 76.4883C239.911 77.2852 238.516 77.9297 236.899 78.4219C235.282 78.9141 233.512 79.1602 231.59 79.1602C229.012 79.1602 226.704 78.6562 224.664 77.6484C222.649 76.6406 220.938 75.2812 219.532 73.5703C218.125 71.8359 217.047 69.8086 216.297 67.4883C215.547 65.168 215.172 62.6953 215.172 60.0703C215.172 57.3984 215.547 54.9375 216.297 52.6875C217.047 50.4141 218.149 48.4805 219.602 46.8867C221.079 45.293 222.883 44.0859 225.016 43.2656C227.149 42.4453 229.61 42.1172 232.399 42.2812C234.321 42.4219 236.09 42.9727 237.707 43.9336C239.325 44.8945 240.731 46.1367 241.926 47.6602C243.145 49.1602 244.118 50.8828 244.844 52.8281C245.594 54.7734 246.051 56.8008 246.215 58.9102L223.399 65.0977ZM222.731 59.4375C222.731 59.7656 222.731 60.0938 222.731 60.4219C222.731 60.7266 222.754 61.043 222.801 61.3711L238.235 55.7461C237.719 54.0586 237.133 52.6172 236.477 51.4219C235.844 50.2031 235.176 49.207 234.473 48.4336C233.77 47.6602 233.055 47.0977 232.329 46.7461C231.625 46.3711 230.946 46.1836 230.289 46.1836C229.305 46.1836 228.438 46.3711 227.688 46.7461C226.938 47.1211 226.282 47.6367 225.719 48.293C225.18 48.9258 224.711 49.6758 224.313 50.543C223.938 51.4102 223.633 52.3359 223.399 53.3203C223.164 54.3047 222.989 55.3242 222.871 56.3789C222.778 57.4102 222.731 58.4297 222.731 59.4375Z" fill="#FFC600"/>
<path d="M45.2269 65.0977C45.5316 66.4102 45.9418 67.6992 46.4574 68.9648C46.973 70.207 47.6059 71.3203 48.3559 72.3047C49.1059 73.2891 49.973 74.0859 50.9574 74.6953C51.9418 75.3047 53.0551 75.6094 54.2973 75.6094C55.9379 75.6094 57.3676 75.2695 58.5863 74.5898C59.8051 73.9102 60.8012 73.0547 61.5746 72.0234C62.348 70.9688 62.8871 69.8203 63.1918 68.5781C63.4965 67.3125 63.5551 66.1055 63.3676 64.957C64.0238 65.2148 64.5629 65.5547 64.9848 65.9766C65.4301 66.3984 65.7699 66.8672 66.0043 67.3828C66.2621 67.875 66.4379 68.3906 66.5316 68.9297C66.6254 69.4453 66.6723 69.9492 66.6723 70.4414C66.6723 71.5664 66.3441 72.6562 65.6879 73.7109C65.0316 74.7422 64.1059 75.668 62.9105 76.4883C61.7387 77.2852 60.3441 77.9297 58.7269 78.4219C57.1098 78.9141 55.3402 79.1602 53.4184 79.1602C50.8402 79.1602 48.5316 78.6562 46.4926 77.6484C44.4769 76.6406 42.766 75.2812 41.3598 73.5703C39.9535 71.8359 38.8754 69.8086 38.1254 67.4883C37.3754 65.168 37.0004 62.6953 37.0004 60.0703C37.0004 57.3984 37.3754 54.9375 38.1254 52.6875C38.8754 50.4141 39.9769 48.4805 41.4301 46.8867C42.9066 45.293 44.7113 44.0859 46.8441 43.2656C48.9769 42.4453 51.4379 42.1172 54.2269 42.2812C56.1488 42.4219 57.9184 42.9727 59.5355 43.9336C61.1527 44.8945 62.559 46.1367 63.7543 47.6602C64.973 49.1602 65.9457 50.8828 66.6723 52.8281C67.4223 54.7734 67.8793 56.8008 68.0434 58.9102L45.2269 65.0977ZM44.559 59.4375C44.559 59.7656 44.559 60.0938 44.559 60.4219C44.559 60.7266 44.5824 61.043 44.6293 61.3711L60.0629 55.7461C59.5473 54.0586 58.9613 52.6172 58.3051 51.4219C57.6723 50.2031 57.0043 49.207 56.3012 48.4336C55.598 47.6602 54.8832 47.0977 54.1566 46.7461C53.4535 46.3711 52.7738 46.1836 52.1176 46.1836C51.1332 46.1836 50.266 46.3711 49.516 46.7461C48.766 47.1211 48.1098 47.6367 47.5473 48.293C47.0082 48.9258 46.5394 49.6758 46.141 50.543C45.766 51.4102 45.4613 52.3359 45.2269 53.3203C44.9926 54.3047 44.8168 55.3242 44.6996 56.3789C44.6059 57.4102 44.559 58.4297 44.559 59.4375ZM197.207 42.8789C199.176 42.8789 200.957 43.3125 202.551 44.1797C204.168 45.0234 205.469 46.1719 206.454 47.625L213.555 40.418L207.719 59.4375C207.508 57.4688 207.18 55.8047 206.735 54.4453C206.289 53.0625 205.774 51.9258 205.188 51.0352C204.625 50.1211 204.028 49.418 203.395 48.9258C202.786 48.4336 202.211 48.0703 201.672 47.8359C201.157 47.6016 200.7 47.4609 200.301 47.4141C199.926 47.3672 199.692 47.3438 199.598 47.3438C197.911 47.3438 196.387 47.6719 195.028 48.3281C193.668 48.9844 192.496 49.9453 191.512 51.2109C190.551 52.4766 189.813 54.0352 189.297 55.8867C188.782 57.7148 188.524 59.8008 188.524 62.1445C188.524 64.3945 188.793 66.3867 189.332 68.1211C189.871 69.832 190.586 71.2734 191.477 72.4453C192.368 73.6172 193.387 74.5078 194.536 75.1172C195.684 75.7031 196.868 75.9961 198.086 75.9961C199.516 75.9961 200.84 75.6797 202.059 75.0469C203.278 74.3906 204.321 73.5352 205.188 72.4805C206.055 71.4258 206.7 70.2188 207.121 68.8594C207.567 67.4766 207.719 66.0586 207.579 64.6055C207.86 64.8633 208.153 65.1797 208.457 65.5547C208.786 65.9297 209.079 66.3516 209.336 66.8203C209.618 67.2656 209.84 67.7578 210.004 68.2969C210.168 68.8125 210.25 69.3398 210.25 69.8789C210.25 71.4727 209.864 72.9141 209.09 74.2031C208.34 75.4688 207.368 76.5469 206.172 77.4375C204.977 78.3281 203.629 79.0078 202.129 79.4766C200.629 79.9688 199.141 80.2148 197.664 80.2148C197.032 80.2148 196.164 80.1445 195.063 80.0039C193.985 79.8633 192.801 79.5703 191.512 79.125C190.246 78.7031 188.957 78.082 187.645 77.2617C186.332 76.4414 185.137 75.3516 184.059 73.9922C183.004 72.6328 182.137 70.957 181.457 68.9648C180.778 66.9727 180.438 64.582 180.438 61.793C180.438 59.3086 180.719 57.1172 181.282 55.2188C181.868 53.2969 182.629 51.6328 183.567 50.2266C184.528 48.8203 185.606 47.6484 186.801 46.7109C187.996 45.7734 189.215 45.0234 190.457 44.4609C191.7 43.8984 192.907 43.5 194.079 43.2656C195.274 43.0078 196.317 42.8789 197.207 42.8789Z" fill="#1E96FC"/>
<path d="M66.1332 86.3564C67.6449 86.3564 68.9747 85.8945 70.1225 84.9707C71.2702 84.0469 72.2641 82.8011 73.1039 81.2334C73.9437 79.6657 74.6436 77.846 75.2035 75.7744C75.7914 73.7028 76.2673 71.5052 76.6312 69.1816C76.9952 66.8581 77.2751 64.4785 77.4711 62.043C77.667 59.6074 77.807 57.2559 77.891 54.9883C77.975 52.7207 78.031 50.6071 78.059 48.6475C78.087 46.6878 78.101 45.0081 78.101 43.6084L67.267 38.9473L83.9379 35.6719C84.2458 37.1276 84.5258 38.8073 84.7777 40.7109C85.0577 42.5866 85.2816 44.5882 85.4496 46.7158C85.6456 48.8434 85.7995 51.013 85.9115 53.2246C86.0235 55.4362 86.0795 57.5918 86.0795 59.6914C86.0795 62.2949 85.9535 64.8844 85.7016 67.46C85.4776 70.0355 85.0717 72.485 84.4838 74.8086C83.9239 77.1322 83.182 79.2878 82.2582 81.2754C81.3344 83.291 80.1726 85.0267 78.7728 86.4824C77.4011 87.9382 75.7774 89.0719 73.9017 89.8838C72.0261 90.7236 69.8705 91.1436 67.435 91.1436C66.6511 91.1436 65.8253 91.0876 64.9574 90.9756C64.0616 90.8636 63.1657 90.6396 62.2699 90.3037L60.2963 97.6943L55.3832 79.8896C56.279 81.2334 57.2169 82.3252 58.1967 83.165C59.1765 84.0329 60.1423 84.6908 61.0941 85.1387C62.018 85.6146 62.9138 85.9365 63.7816 86.1045C64.6495 86.2725 65.4333 86.3564 66.1332 86.3564ZM85.3236 26.2236C85.3236 27.0355 85.1697 27.7913 84.8617 28.4912C84.5818 29.1631 84.1898 29.765 83.6859 30.2969C83.182 30.8288 82.5801 31.2487 81.8803 31.5566C81.2084 31.8366 80.4665 31.9766 79.6547 31.9766C78.8708 31.9766 78.129 31.8366 77.4291 31.5566C76.7572 31.2487 76.1693 30.8288 75.6654 30.2969C75.1615 29.765 74.7556 29.1631 74.4476 28.4912C74.1677 27.7913 74.0277 27.0355 74.0277 26.2236C74.0277 25.4398 74.1677 24.7119 74.4476 24.04C74.7556 23.3402 75.1615 22.7383 75.6654 22.2344C76.1693 21.7025 76.7572 21.2965 77.4291 21.0166C78.129 20.7087 78.8708 20.5547 79.6547 20.5547C80.4665 20.5547 81.2084 20.7087 81.8803 21.0166C82.5801 21.2965 83.182 21.7025 83.6859 22.2344C84.1898 22.7383 84.5818 23.3402 84.8617 24.04C85.1697 24.7119 85.3236 25.4398 85.3236 26.2236ZM92.8822 56.9199C92.8822 53.7845 93.3721 50.887 94.3519 48.2275C95.3598 45.54 96.7455 43.2165 98.5092 41.2568C100.301 39.2972 102.414 37.7715 104.85 36.6797C107.314 35.5599 110.001 35 112.912 35C115.74 35 118.329 35.5319 120.681 36.5957C123.033 37.6315 125.076 39.1012 126.812 41.0049C128.548 42.9085 129.933 45.1901 130.969 47.8496C132.005 50.5091 132.621 53.4486 132.817 56.668C133.013 60.1113 132.649 63.2327 131.725 66.0322C130.829 68.8037 129.499 71.1693 127.736 73.1289C125.972 75.0605 123.858 76.5583 121.395 77.6221C118.959 78.6859 116.314 79.2178 113.458 79.2178C110.715 79.2178 108.097 78.7279 105.606 77.748C103.142 76.7402 100.959 75.2845 99.0551 73.3809C97.1794 71.4772 95.6817 69.1536 94.5619 66.4102C93.4421 63.6387 92.8822 60.4753 92.8822 56.9199ZM103.212 57.6338C103.212 60.0973 103.562 62.3229 104.262 64.3105C104.962 66.2982 105.9 67.9919 107.076 69.3916C108.251 70.7633 109.609 71.8271 111.149 72.583C112.689 73.3389 114.312 73.7168 116.02 73.7168C117.728 73.7168 119.323 73.3529 120.807 72.625C122.291 71.8691 123.579 70.8193 124.67 69.4756C125.762 68.1038 126.616 66.4661 127.232 64.5625C127.848 62.6589 128.156 60.5452 128.156 58.2217C128.156 55.9261 127.848 53.7705 127.232 51.7549C126.616 49.7113 125.748 47.9336 124.628 46.4219C123.537 44.9102 122.235 43.7204 120.723 42.8525C119.211 41.9847 117.56 41.5508 115.768 41.5508C114.172 41.5508 112.619 41.9147 111.107 42.6426C109.623 43.3704 108.293 44.4342 107.118 45.834C105.942 47.2057 104.99 48.8854 104.262 50.873C103.562 52.8607 103.212 55.1143 103.212 57.6338ZM171.828 41.2988C172.107 43.5944 172.317 46.0859 172.457 48.7734C172.625 51.4609 172.681 54.2184 172.625 57.0459C172.569 59.8734 172.387 62.7148 172.079 65.5703C171.772 68.3978 171.282 71.1273 170.61 73.7588C169.938 76.3623 169.07 78.7979 168.006 81.0654C166.942 83.333 165.627 85.2926 164.059 86.9443C162.519 88.624 160.7 89.9398 158.6 90.8916C156.528 91.8714 154.135 92.3613 151.419 92.3613C148.34 92.3613 145.051 91.5915 141.551 90.0518L138.444 96.2246L134.161 79.7217C135.42 81.3734 136.708 82.7031 138.024 83.7109C139.368 84.7188 140.641 85.4886 141.845 86.0205C143.077 86.5804 144.197 86.9443 145.204 87.1123C146.24 87.2803 147.08 87.3643 147.724 87.3643C150.02 87.3643 152.063 86.6364 153.855 85.1807C155.675 83.7529 157.27 81.7653 158.642 79.2178C156.402 76.8662 154.219 74.3187 152.091 71.5752C149.992 68.8037 148.088 65.8643 146.38 62.7568C144.673 59.6214 143.231 56.332 142.055 52.8887C140.907 49.4453 140.165 45.862 139.829 42.1387L132.943 38.4434L152.385 35.6719L148.774 40.585C149.502 46.2119 150.901 51.7409 152.973 57.1719C155.045 62.6029 157.746 68.1178 161.078 73.7168C161.805 71.6172 162.435 69.3496 162.967 66.9141C163.527 64.4785 163.989 61.903 164.353 59.1875C164.745 56.472 165.039 53.6585 165.235 50.7471C165.431 47.8076 165.557 44.8262 165.613 41.8027L159.356 35.6719C161.679 35.8398 163.723 35.9938 165.487 36.1338C167.278 36.2738 168.832 36.3997 170.148 36.5117C171.464 36.5957 172.569 36.6797 173.465 36.7637C174.389 36.8197 175.145 36.8617 175.733 36.8896C177.105 37.0016 177.916 37.0576 178.168 37.0576L171.828 41.2988Z" fill="#A2D6F9"/>
<g clip-path="url(#clip0)">
<path d="M108.067 51.2083H122.77C123.112 51.2107 123.449 51.2962 123.751 51.4574C124.053 51.6186 124.31 51.8506 124.5 52.1331C124.691 52.4156 124.809 52.7401 124.844 53.0782C124.879 53.4163 124.83 53.7578 124.702 54.0729L117.246 66.8333C117.064 67.159 116.798 67.4304 116.475 67.6194C116.151 67.8084 115.783 67.9081 115.408 67.9081C115.033 67.9081 114.664 67.8084 114.341 67.6194C114.018 67.4304 113.752 67.159 113.57 66.8333L106.114 54.0729C105.988 53.765 105.938 53.4317 105.968 53.1007C105.998 52.7698 106.108 52.4508 106.288 52.1704C106.468 51.8901 106.713 51.6564 107.002 51.4891C107.291 51.3217 107.617 51.2255 107.952 51.2083" fill="#A2D6F9"/>
</g>
<path d="M31.5512 54.0234C31.3402 53.1562 31.0355 52.418 30.6371 51.8086C30.2621 51.1992 29.8285 50.6953 29.3363 50.2969C28.8676 49.875 28.3637 49.5586 27.8246 49.3477C27.2855 49.1133 26.7465 48.9375 26.2074 48.8203C24.9418 48.5625 23.5941 48.5742 22.1644 48.8555C21.6723 49.0195 21.1449 49.2773 20.5824 49.6289C20.0902 49.957 19.5277 50.4023 18.8949 50.9648C18.2621 51.5039 17.5824 52.2305 16.8559 53.1445L17.4887 73.5352L23.8168 76.6992L5.18398 78.3516L10.0004 73.4648L11.9691 48.9961L4.48085 45.5859L16.5746 43.3008L16.7152 47.6953C17.5355 46.7109 18.3793 45.9023 19.2465 45.2695C20.1137 44.6367 20.8988 44.1211 21.6019 43.7227C22.4223 43.2773 23.2191 42.9375 23.9926 42.7031C25.3988 42.375 26.8285 42.2461 28.2816 42.3164C28.891 42.3398 29.5238 42.4102 30.1801 42.5273C30.8598 42.6445 31.5394 42.832 32.2191 43.0898C32.9223 43.3242 33.6019 43.6523 34.2582 44.0742C34.9144 44.4727 35.5473 44.9766 36.1566 45.5859L31.5512 54.0234ZM223.399 65.0977C223.704 66.4102 224.114 67.6992 224.629 68.9648C225.145 70.207 225.778 71.3203 226.528 72.3047C227.278 73.2891 228.145 74.0859 229.129 74.6953C230.114 75.3047 231.227 75.6094 232.469 75.6094C234.11 75.6094 235.539 75.2695 236.758 74.5898C237.977 73.9102 238.973 73.0547 239.746 72.0234C240.52 70.9688 241.059 69.8203 241.364 68.5781C241.668 67.3125 241.727 66.1055 241.539 64.957C242.196 65.2148 242.735 65.5547 243.157 65.9766C243.602 66.3984 243.942 66.8672 244.176 67.3828C244.434 67.875 244.61 68.3906 244.704 68.9297C244.797 69.4453 244.844 69.9492 244.844 70.4414C244.844 71.5664 244.516 72.6562 243.86 73.7109C243.204 74.7422 242.278 75.668 241.082 76.4883C239.911 77.2852 238.516 77.9297 236.899 78.4219C235.282 78.9141 233.512 79.1602 231.59 79.1602C229.012 79.1602 226.704 78.6562 224.664 77.6484C222.649 76.6406 220.938 75.2812 219.532 73.5703C218.125 71.8359 217.047 69.8086 216.297 67.4883C215.547 65.168 215.172 62.6953 215.172 60.0703C215.172 57.3984 215.547 54.9375 216.297 52.6875C217.047 50.4141 218.149 48.4805 219.602 46.8867C221.079 45.293 222.883 44.0859 225.016 43.2656C227.149 42.4453 229.61 42.1172 232.399 42.2812C234.321 42.4219 236.09 42.9727 237.707 43.9336C239.325 44.8945 240.731 46.1367 241.926 47.6602C243.145 49.1602 244.118 50.8828 244.844 52.8281C245.594 54.7734 246.051 56.8008 246.215 58.9102L223.399 65.0977ZM222.731 59.4375C222.731 59.7656 222.731 60.0938 222.731 60.4219C222.731 60.7266 222.754 61.043 222.801 61.3711L238.235 55.7461C237.719 54.0586 237.133 52.6172 236.477 51.4219C235.844 50.2031 235.176 49.207 234.473 48.4336C233.77 47.6602 233.055 47.0977 232.329 46.7461C231.625 46.3711 230.946 46.1836 230.289 46.1836C229.305 46.1836 228.438 46.3711 227.688 46.7461C226.938 47.1211 226.282 47.6367 225.719 48.293C225.18 48.9258 224.711 49.6758 224.313 50.543C223.938 51.4102 223.633 52.3359 223.399 53.3203C223.164 54.3047 222.989 55.3242 222.871 56.3789C222.778 57.4102 222.731 58.4297 222.731 59.4375Z" fill="#FFC600"/>
<path d="M45.2269 65.0977C45.5316 66.4102 45.9418 67.6992 46.4574 68.9648C46.973 70.207 47.6059 71.3203 48.3559 72.3047C49.1059 73.2891 49.973 74.0859 50.9574 74.6953C51.9418 75.3047 53.0551 75.6094 54.2973 75.6094C55.9379 75.6094 57.3676 75.2695 58.5863 74.5898C59.8051 73.9102 60.8012 73.0547 61.5746 72.0234C62.348 70.9688 62.8871 69.8203 63.1918 68.5781C63.4965 67.3125 63.5551 66.1055 63.3676 64.957C64.0238 65.2148 64.5629 65.5547 64.9848 65.9766C65.4301 66.3984 65.7699 66.8672 66.0043 67.3828C66.2621 67.875 66.4379 68.3906 66.5316 68.9297C66.6254 69.4453 66.6723 69.9492 66.6723 70.4414C66.6723 71.5664 66.3441 72.6562 65.6879 73.7109C65.0316 74.7422 64.1059 75.668 62.9105 76.4883C61.7387 77.2852 60.3441 77.9297 58.7269 78.4219C57.1098 78.9141 55.3402 79.1602 53.4184 79.1602C50.8402 79.1602 48.5316 78.6562 46.4926 77.6484C44.4769 76.6406 42.766 75.2812 41.3598 73.5703C39.9535 71.8359 38.8754 69.8086 38.1254 67.4883C37.3754 65.168 37.0004 62.6953 37.0004 60.0703C37.0004 57.3984 37.3754 54.9375 38.1254 52.6875C38.8754 50.4141 39.9769 48.4805 41.4301 46.8867C42.9066 45.293 44.7113 44.0859 46.8441 43.2656C48.9769 42.4453 51.4379 42.1172 54.2269 42.2812C56.1488 42.4219 57.9184 42.9727 59.5355 43.9336C61.1527 44.8945 62.559 46.1367 63.7543 47.6602C64.973 49.1602 65.9457 50.8828 66.6723 52.8281C67.4223 54.7734 67.8793 56.8008 68.0434 58.9102L45.2269 65.0977ZM44.559 59.4375C44.559 59.7656 44.559 60.0938 44.559 60.4219C44.559 60.7266 44.5824 61.043 44.6293 61.3711L60.0629 55.7461C59.5473 54.0586 58.9613 52.6172 58.3051 51.4219C57.6723 50.2031 57.0043 49.207 56.3012 48.4336C55.598 47.6602 54.8832 47.0977 54.1566 46.7461C53.4535 46.3711 52.7738 46.1836 52.1176 46.1836C51.1332 46.1836 50.266 46.3711 49.516 46.7461C48.766 47.1211 48.1098 47.6367 47.5473 48.293C47.0082 48.9258 46.5394 49.6758 46.141 50.543C45.766 51.4102 45.4613 52.3359 45.2269 53.3203C44.9926 54.3047 44.8168 55.3242 44.6996 56.3789C44.6059 57.4102 44.559 58.4297 44.559 59.4375ZM197.207 42.8789C199.176 42.8789 200.957 43.3125 202.551 44.1797C204.168 45.0234 205.469 46.1719 206.454 47.625L213.555 40.418L207.719 59.4375C207.508 57.4688 207.18 55.8047 206.735 54.4453C206.289 53.0625 205.774 51.9258 205.188 51.0352C204.625 50.1211 204.028 49.418 203.395 48.9258C202.786 48.4336 202.211 48.0703 201.672 47.8359C201.157 47.6016 200.7 47.4609 200.301 47.4141C199.926 47.3672 199.692 47.3438 199.598 47.3438C197.911 47.3438 196.387 47.6719 195.028 48.3281C193.668 48.9844 192.496 49.9453 191.512 51.2109C190.551 52.4766 189.813 54.0352 189.297 55.8867C188.782 57.7148 188.524 59.8008 188.524 62.1445C188.524 64.3945 188.793 66.3867 189.332 68.1211C189.871 69.832 190.586 71.2734 191.477 72.4453C192.368 73.6172 193.387 74.5078 194.536 75.1172C195.684 75.7031 196.868 75.9961 198.086 75.9961C199.516 75.9961 200.84 75.6797 202.059 75.0469C203.278 74.3906 204.321 73.5352 205.188 72.4805C206.055 71.4258 206.7 70.2188 207.121 68.8594C207.567 67.4766 207.719 66.0586 207.579 64.6055C207.86 64.8633 208.153 65.1797 208.457 65.5547C208.786 65.9297 209.079 66.3516 209.336 66.8203C209.618 67.2656 209.84 67.7578 210.004 68.2969C210.168 68.8125 210.25 69.3398 210.25 69.8789C210.25 71.4727 209.864 72.9141 209.09 74.2031C208.34 75.4688 207.368 76.5469 206.172 77.4375C204.977 78.3281 203.629 79.0078 202.129 79.4766C200.629 79.9688 199.141 80.2148 197.664 80.2148C197.032 80.2148 196.164 80.1445 195.063 80.0039C193.985 79.8633 192.801 79.5703 191.512 79.125C190.246 78.7031 188.957 78.082 187.645 77.2617C186.332 76.4414 185.137 75.3516 184.059 73.9922C183.004 72.6328 182.137 70.957 181.457 68.9648C180.778 66.9727 180.438 64.582 180.438 61.793C180.438 59.3086 180.719 57.1172 181.282 55.2188C181.868 53.2969 182.629 51.6328 183.567 50.2266C184.528 48.8203 185.606 47.6484 186.801 46.7109C187.996 45.7734 189.215 45.0234 190.457 44.4609C191.7 43.8984 192.907 43.5 194.079 43.2656C195.274 43.0078 196.317 42.8789 197.207 42.8789Z" fill="#072AC8"/>
<path d="M66.1332 86.3564C67.6449 86.3564 68.9747 85.8945 70.1225 84.9707C71.2702 84.0469 72.2641 82.8011 73.1039 81.2334C73.9437 79.6657 74.6436 77.846 75.2035 75.7744C75.7914 73.7028 76.2673 71.5052 76.6312 69.1816C76.9952 66.8581 77.2751 64.4785 77.4711 62.043C77.667 59.6074 77.807 57.2559 77.891 54.9883C77.975 52.7207 78.031 50.6071 78.059 48.6475C78.087 46.6878 78.101 45.0081 78.101 43.6084L67.267 38.9473L83.9379 35.6719C84.2458 37.1276 84.5258 38.8073 84.7777 40.7109C85.0577 42.5866 85.2816 44.5882 85.4496 46.7158C85.6456 48.8434 85.7995 51.013 85.9115 53.2246C86.0235 55.4362 86.0795 57.5918 86.0795 59.6914C86.0795 62.2949 85.9535 64.8844 85.7016 67.46C85.4776 70.0355 85.0717 72.485 84.4838 74.8086C83.9239 77.1322 83.182 79.2878 82.2582 81.2754C81.3344 83.291 80.1726 85.0267 78.7728 86.4824C77.4011 87.9382 75.7774 89.0719 73.9017 89.8838C72.0261 90.7236 69.8705 91.1436 67.435 91.1436C66.6511 91.1436 65.8253 91.0876 64.9574 90.9756C64.0616 90.8636 63.1657 90.6396 62.2699 90.3037L60.2963 97.6943L55.3832 79.8896C56.279 81.2334 57.2169 82.3252 58.1967 83.165C59.1765 84.0329 60.1423 84.6908 61.0941 85.1387C62.018 85.6146 62.9138 85.9365 63.7816 86.1045C64.6495 86.2725 65.4333 86.3564 66.1332 86.3564ZM85.3236 26.2236C85.3236 27.0355 85.1697 27.7913 84.8617 28.4912C84.5818 29.1631 84.1898 29.765 83.6859 30.2969C83.182 30.8288 82.5801 31.2487 81.8803 31.5566C81.2084 31.8366 80.4665 31.9766 79.6547 31.9766C78.8708 31.9766 78.129 31.8366 77.4291 31.5566C76.7572 31.2487 76.1693 30.8288 75.6654 30.2969C75.1615 29.765 74.7556 29.1631 74.4476 28.4912C74.1677 27.7913 74.0277 27.0355 74.0277 26.2236C74.0277 25.4398 74.1677 24.7119 74.4476 24.04C74.7556 23.3402 75.1615 22.7383 75.6654 22.2344C76.1693 21.7025 76.7572 21.2965 77.4291 21.0166C78.129 20.7087 78.8708 20.5547 79.6547 20.5547C80.4665 20.5547 81.2084 20.7087 81.8803 21.0166C82.5801 21.2965 83.182 21.7025 83.6859 22.2344C84.1898 22.7383 84.5818 23.3402 84.8617 24.04C85.1697 24.7119 85.3236 25.4398 85.3236 26.2236ZM92.8822 56.9199C92.8822 53.7845 93.3721 50.887 94.3519 48.2275C95.3598 45.54 96.7455 43.2165 98.5092 41.2568C100.301 39.2972 102.414 37.7715 104.85 36.6797C107.314 35.5599 110.001 35 112.912 35C115.74 35 118.329 35.5319 120.681 36.5957C123.033 37.6315 125.076 39.1012 126.812 41.0049C128.548 42.9085 129.933 45.1901 130.969 47.8496C132.005 50.5091 132.621 53.4486 132.817 56.668C133.013 60.1113 132.649 63.2327 131.725 66.0322C130.829 68.8037 129.499 71.1693 127.736 73.1289C125.972 75.0605 123.858 76.5583 121.395 77.6221C118.959 78.6859 116.314 79.2178 113.458 79.2178C110.715 79.2178 108.097 78.7279 105.606 77.748C103.142 76.7402 100.959 75.2845 99.0551 73.3809C97.1794 71.4772 95.6817 69.1536 94.5619 66.4102C93.4421 63.6387 92.8822 60.4753 92.8822 56.9199ZM103.212 57.6338C103.212 60.0973 103.562 62.3229 104.262 64.3105C104.962 66.2982 105.9 67.9919 107.076 69.3916C108.251 70.7633 109.609 71.8271 111.149 72.583C112.689 73.3389 114.312 73.7168 116.02 73.7168C117.728 73.7168 119.323 73.3529 120.807 72.625C122.291 71.8691 123.579 70.8193 124.67 69.4756C125.762 68.1038 126.616 66.4661 127.232 64.5625C127.848 62.6589 128.156 60.5452 128.156 58.2217C128.156 55.9261 127.848 53.7705 127.232 51.7549C126.616 49.7113 125.748 47.9336 124.628 46.4219C123.537 44.9102 122.235 43.7204 120.723 42.8525C119.211 41.9847 117.56 41.5508 115.768 41.5508C114.172 41.5508 112.619 41.9147 111.107 42.6426C109.623 43.3704 108.293 44.4342 107.118 45.834C105.942 47.2057 104.99 48.8854 104.262 50.873C103.562 52.8607 103.212 55.1143 103.212 57.6338ZM171.828 41.2988C172.107 43.5944 172.317 46.0859 172.457 48.7734C172.625 51.4609 172.681 54.2184 172.625 57.0459C172.569 59.8734 172.387 62.7148 172.079 65.5703C171.772 68.3978 171.282 71.1273 170.61 73.7588C169.938 76.3623 169.07 78.7979 168.006 81.0654C166.942 83.333 165.627 85.2926 164.059 86.9443C162.519 88.624 160.7 89.9398 158.6 90.8916C156.528 91.8714 154.135 92.3613 151.419 92.3613C148.34 92.3613 145.051 91.5915 141.551 90.0518L138.444 96.2246L134.161 79.7217C135.42 81.3734 136.708 82.7031 138.024 83.7109C139.368 84.7188 140.641 85.4886 141.845 86.0205C143.077 86.5804 144.197 86.9443 145.204 87.1123C146.24 87.2803 147.08 87.3643 147.724 87.3643C150.02 87.3643 152.063 86.6364 153.855 85.1807C155.675 83.7529 157.27 81.7653 158.642 79.2178C156.402 76.8662 154.219 74.3187 152.091 71.5752C149.992 68.8037 148.088 65.8643 146.38 62.7568C144.673 59.6214 143.231 56.332 142.055 52.8887C140.907 49.4453 140.165 45.862 139.829 42.1387L132.943 38.4434L152.385 35.6719L148.774 40.585C149.502 46.2119 150.901 51.7409 152.973 57.1719C155.045 62.6029 157.746 68.1178 161.078 73.7168C161.805 71.6172 162.435 69.3496 162.967 66.9141C163.527 64.4785 163.989 61.903 164.353 59.1875C164.745 56.472 165.039 53.6585 165.235 50.7471C165.431 47.8076 165.557 44.8262 165.613 41.8027L159.356 35.6719C161.679 35.8398 163.723 35.9938 165.487 36.1338C167.278 36.2738 168.832 36.3997 170.148 36.5117C171.464 36.5957 172.569 36.6797 173.465 36.7637C174.389 36.8197 175.145 36.8617 175.733 36.8896C177.105 37.0016 177.916 37.0576 178.168 37.0576L171.828 41.2988Z" fill="#A2D6F9"/>
<g clip-path="url(#clip1)">
<path d="M108.067 51.2083H122.77C123.112 51.2107 123.449 51.2962 123.751 51.4574C124.053 51.6186 124.31 51.8506 124.5 52.1331C124.691 52.4156 124.809 52.7401 124.844 53.0782C124.879 53.4163 124.83 53.7578 124.702 54.0729L117.246 66.8333C117.064 67.159 116.798 67.4304 116.475 67.6194C116.151 67.8084 115.783 67.9081 115.408 67.9081C115.033 67.9081 114.664 67.8084 114.341 67.6194C114.018 67.4304 113.752 67.159 113.57 66.8333L106.114 54.0729C105.988 53.765 105.938 53.4317 105.968 53.1007C105.998 52.7698 106.108 52.4508 106.288 52.1704C106.468 51.8901 106.713 51.6564 107.002 51.4891C107.291 51.3217 107.617 51.2255 107.952 51.2083" fill="#A2D6F9"/>
</g>
<circle cx="112" cy="58" r="25" fill="#FFC600"/>
<circle cx="112" cy="58" r="13.7755" fill="#FFFEFE"/>
<path d="M103.223 50.3469H120.293C120.691 50.3497 121.082 50.4498 121.432 50.6385C121.782 50.8272 122.081 51.0987 122.302 51.4294C122.524 51.76 122.661 52.1398 122.701 52.5356C122.742 52.9314 122.685 53.3311 122.536 53.7L113.879 68.6363C113.668 69.0175 113.359 69.3352 112.984 69.5564C112.609 69.7777 112.181 69.8943 111.745 69.8943C111.31 69.8943 110.882 69.7777 110.507 69.5564C110.132 69.3352 109.823 69.0175 109.612 68.6363L100.955 53.7C100.808 53.3396 100.75 52.9494 100.785 52.562C100.82 52.1746 100.948 51.8012 101.157 51.473C101.365 51.1449 101.65 50.8714 101.986 50.6755C102.322 50.4796 102.7 50.3669 103.088 50.3469" fill="#FFD00A"/>
<path d="M107.201 51.623L109.091 54.3652L108.212 54.1982C108.405 53.9756 108.66 53.7764 108.977 53.6006C109.246 53.4482 109.595 53.3105 110.022 53.1875C110.456 53.0586 110.986 52.9941 111.613 52.9941C112.322 52.9941 113.005 53.0674 113.661 53.2139C114.317 53.3604 114.895 53.5771 115.393 53.8643C115.896 54.1514 116.298 54.5088 116.597 54.9365C116.896 55.3584 117.045 55.8447 117.045 56.3955C117.045 56.8643 116.978 57.2568 116.843 57.5732C116.714 57.8896 116.541 58.1562 116.324 58.373C116.107 58.5898 115.861 58.7686 115.586 58.9092C115.311 59.0498 115.029 59.1846 114.742 59.3135C114.455 59.4365 114.174 59.5654 113.898 59.7002C113.623 59.8291 113.377 59.9902 113.16 60.1836C112.943 60.377 112.768 60.6172 112.633 60.9043C112.504 61.1914 112.439 61.5488 112.439 61.9766C112.439 62.0586 112.442 62.1436 112.448 62.2314C112.454 62.3193 112.463 62.4131 112.475 62.5127H110.532C110.526 62.4775 110.521 62.4365 110.515 62.3896C110.509 62.3486 110.503 62.3018 110.497 62.249C110.497 62.1963 110.497 62.1348 110.497 62.0645C110.497 61.8945 110.518 61.6924 110.559 61.458C110.6 61.2178 110.688 60.9688 110.822 60.7109C110.963 60.4531 111.159 60.1982 111.411 59.9463C111.669 59.6943 112.012 59.4658 112.439 59.2607C112.861 59.0615 113.204 58.8418 113.468 58.6016C113.731 58.3555 113.934 58.1064 114.074 57.8545C114.221 57.5967 114.32 57.3477 114.373 57.1074C114.426 56.8613 114.452 56.6357 114.452 56.4307C114.452 56.0557 114.376 55.7275 114.224 55.4463C114.077 55.1592 113.878 54.9219 113.626 54.7344C113.38 54.541 113.099 54.3975 112.782 54.3037C112.466 54.21 112.141 54.1631 111.807 54.1631C111.373 54.1631 110.989 54.21 110.655 54.3037C110.321 54.3916 110.025 54.5176 109.768 54.6816C109.51 54.8398 109.284 55.0273 109.091 55.2441C108.903 55.4551 108.733 55.6865 108.581 55.9385C108.429 56.1846 108.288 56.4453 108.159 56.7207C108.036 56.9902 107.913 57.2598 107.79 57.5293L107.201 51.623ZM112.729 64.499C112.729 64.6865 112.68 64.8477 112.58 64.9824C112.486 65.1172 112.369 65.2256 112.229 65.3076C112.088 65.3955 111.941 65.457 111.789 65.4922C111.637 65.5332 111.505 65.5537 111.394 65.5537C111.271 65.5537 111.133 65.5332 110.98 65.4922C110.828 65.457 110.682 65.3955 110.541 65.3076C110.406 65.2256 110.292 65.1172 110.198 64.9824C110.104 64.8477 110.058 64.6865 110.058 64.499C110.058 64.2998 110.104 64.1299 110.198 63.9893C110.292 63.8486 110.406 63.7344 110.541 63.6465C110.682 63.5527 110.828 63.4854 110.98 63.4443C111.133 63.4033 111.271 63.3828 111.394 63.3828C111.505 63.3828 111.637 63.4033 111.789 63.4443C111.941 63.4854 112.088 63.5527 112.229 63.6465C112.369 63.7344 112.486 63.8486 112.58 63.9893C112.68 64.1299 112.729 64.2998 112.729 64.499Z" fill="#482579"/>
</g>
<g filter="url(#filter1_d)">
<path d="M135.599 42.556C143.932 54.6818 140.85 71.2651 128.724 79.595C116.598 87.9293 100.017 84.8484 91.6848 72.72C83.3515 60.5943 86.4341 44.0092 98.5598 35.681C110.686 27.3554 127.266 30.4319 135.59 42.556" fill="#FFC600"/>
</g>
<path d="M132.686 45.8663C134.467 48.4616 135.677 51.2726 136.403 54.1558C136.027 50.3001 134.676 46.6034 132.479 43.4128C125.644 33.4604 112.369 30.59 102.091 36.5206C112.978 32.2246 125.778 35.8082 132.688 45.8697" fill="white"/>
<path d="M113.642 69.3926C120.071 69.3926 125.284 64.18 125.284 57.7498C125.284 51.3197 120.071 46.107 113.642 46.107C107.212 46.107 102 51.3197 102 57.7498C102 64.18 107.212 69.3926 113.642 69.3926Z" fill="#072AC8"/>
<path d="M106.227 52H121.763C122.125 52.0023 122.481 52.0844 122.8 52.239C123.119 52.3937 123.391 52.6163 123.592 52.8874C123.793 53.1585 123.918 53.4699 123.955 53.7943C123.992 54.1188 123.941 54.4465 123.805 54.7489L115.926 66.9937C115.734 67.3062 115.453 67.5666 115.111 67.748C114.77 67.9294 114.38 68.025 113.984 68.025C113.587 68.025 113.198 67.9294 112.857 67.748C112.515 67.5666 112.234 67.3062 112.042 66.9937L104.163 54.7489C104.03 54.4534 103.977 54.1335 104.009 53.8159C104.041 53.4984 104.157 53.1923 104.347 52.9232C104.537 52.6542 104.796 52.43 105.102 52.2694C105.408 52.1088 105.752 52.0164 106.105 52" fill="#A2D6F9"/>
<path d="M111.945 61.1215V60.5189C111.945 60.2417 111.973 59.9916 112.03 59.7657C112.087 59.5407 112.174 59.3263 112.29 59.1223C112.406 58.9193 112.557 58.7216 112.742 58.528C112.926 58.3366 113.149 58.1368 113.41 57.9307C113.638 57.7518 113.83 57.5917 113.988 57.4505C114.145 57.3092 114.273 57.169 114.37 57.032C114.468 56.8928 114.538 56.7485 114.582 56.5968C114.625 56.4451 114.647 56.2683 114.647 56.0674C114.647 55.7588 114.543 55.5035 114.333 55.3026C114.124 55.1018 113.806 55.0013 113.377 55.0013C113.003 55.0013 112.6 55.0798 112.168 55.2378C111.737 55.3958 111.29 55.5883 110.83 55.8163L110 54.0179C110.233 53.8819 110.486 53.7533 110.761 53.6308C111.035 53.5084 111.319 53.4007 111.615 53.3055C111.91 53.2108 112.21 53.136 112.515 53.0816C112.819 53.0272 113.118 53 113.411 53C113.964 53 114.463 53.067 114.908 53.1998C115.353 53.3327 115.73 53.5273 116.04 53.7815C116.349 54.0368 116.586 54.3464 116.752 54.7095C116.917 55.0725 117 55.4878 117 55.9544C117 56.2965 116.962 56.602 116.886 56.8698C116.81 57.1376 116.697 57.3877 116.548 57.6189C116.398 57.8491 116.211 58.0719 115.986 58.2864C115.761 58.5008 115.499 58.7268 115.201 58.9653C114.973 59.1442 114.787 59.3001 114.643 59.433C114.499 59.5658 114.387 59.6924 114.305 59.8117C114.223 59.932 114.168 60.0544 114.138 60.182C114.107 60.3097 114.093 60.4603 114.093 60.634V61.1226H111.945V61.1215ZM111.676 63.9043C111.676 63.6491 111.713 63.4336 111.786 63.2568C111.859 63.081 111.961 62.9387 112.091 62.8299C112.221 62.7211 112.375 62.6427 112.552 62.5935C112.727 62.5454 112.916 62.5202 113.118 62.5202C113.308 62.5202 113.488 62.5454 113.66 62.5935C113.83 62.6416 113.981 62.7211 114.111 62.8299C114.241 62.9387 114.345 63.081 114.421 63.2568C114.498 63.4336 114.535 63.6491 114.535 63.9043C114.535 64.1481 114.498 64.3573 114.421 64.531C114.345 64.7047 114.242 64.848 114.111 64.962C113.981 65.0764 113.826 65.161 113.66 65.21C113.488 65.2623 113.308 65.2874 113.118 65.2874C112.917 65.2874 112.728 65.2623 112.552 65.21C112.375 65.1587 112.221 65.0761 112.091 64.962C111.962 64.848 111.86 64.7047 111.786 64.531C111.713 64.3573 111.676 64.1481 111.676 63.9043Z" fill="#072AC8"/>
<defs>
<filter id="filter0_d" x="0.480957" y="20.5547" width="249.734" height="85.1396" filterUnits="userSpaceOnUse" color-interpolation-filters="sRGB">
<feFlood flood-opacity="0" result="BackgroundImageFix"/>
<feColorMatrix in="SourceAlpha" type="matrix" values="0 0 0 0 0 0 0 0 0 0 0 0 0 0 0 0 0 0 127 0"/>
<feOffset dy="4"/>
<feGaussianBlur stdDeviation="2"/>
<feColorMatrix type="matrix" values="0 0 0 0 0 0 0 0 0 0 0 0 0 0 0 0 0 0 0.25 0"/>
<feBlend mode="normal" in2="BackgroundImageFix" result="effect1_dropShadow"/>
<feBlend mode="normal" in="SourceGraphic" in2="effect1_dropShadow" result="shape"/>
</filter>
<filter id="filter1_d" x="83" y="31" width="61.2837" height="61.281" filterUnits="userSpaceOnUse" color-interpolation-filters="sRGB">
<feFlood flood-opacity="0" result="BackgroundImageFix"/>
<feColorMatrix in="SourceAlpha" type="matrix" values="0 0 0 0 0 0 0 0 0 0 0 0 0 0 0 0 0 0 127 0"/>
<feOffset dy="4"/>
<feGaussianBlur stdDeviation="2"/>
<feColorMatrix type="matrix" values="0 0 0 0 0 0 0 0 0 0 0 0 0 0 0 0 0 0 0.3 0"/>
<feBlend mode="normal" in2="BackgroundImageFix" result="effect1_dropShadow"/>
<feBlend mode="normal" in="SourceGraphic" in2="effect1_dropShadow" result="shape"/>
</filter>
<clipPath id="clip0">
<rect width="25.2041" height="25" fill="white" transform="translate(103.824 46)"/>
</clipPath>
<clipPath id="clip1">
<rect width="25.2041" height="25" fill="white" transform="translate(103.824 46)"/>
</clipPath>
</defs>
</svg>
