<svg width="49" height="50" viewBox="0 0 49 50" fill="none" xmlns="http://www.w3.org/2000/svg">
<path d="M38.3585 40.7607L33.2234 43.4512C33.071 43.5305 32.8996 43.5659 32.7282 43.5535C32.5569 43.541 32.3924 43.4811 32.2531 43.3806C32.1138 43.28 32.0052 43.1428 31.9394 42.9841C31.8736 42.8254 31.8532 42.6515 31.8805 42.4819L32.8617 36.7817L28.7077 32.7459C28.5837 32.6261 28.4959 32.4738 28.4544 32.3064C28.4128 32.139 28.4191 31.9633 28.4726 31.7994C28.5261 31.6355 28.6246 31.4899 28.7569 31.3792C28.8892 31.2686 29.0499 31.1974 29.2208 31.1737L34.9611 30.3415L37.5287 25.1567C37.6055 25.0023 37.7238 24.8724 37.8704 24.7815C38.0171 24.6907 38.1861 24.6426 38.3585 24.6426C38.531 24.6426 38.7001 24.6907 38.8467 24.7815C38.9933 24.8724 39.1116 25.0023 39.1884 25.1567L41.756 30.3415L47.4964 31.1737C47.6667 31.1982 47.8267 31.2699 47.9584 31.3806C48.0902 31.4914 48.1882 31.6368 48.2416 31.8003C48.295 31.9639 48.3015 32.1392 48.2605 32.3063C48.2195 32.4734 48.1325 32.6257 48.0094 32.7459L43.8554 36.7817L44.8342 42.4795C44.8636 42.6494 44.8447 42.8242 44.7798 42.9839C44.7148 43.1436 44.6064 43.282 44.4668 43.3832C44.3272 43.4844 44.162 43.5444 43.99 43.5564C43.818 43.5684 43.646 43.532 43.4937 43.4512L38.3585 40.7607Z" fill="#FCF300" stroke="#FFC600" stroke-linecap="round" stroke-linejoin="round"/>
<path d="M10.9313 40.7607L5.79617 43.4512C5.64378 43.5305 5.47234 43.5659 5.301 43.5535C5.12966 43.541 4.96516 43.4811 4.82586 43.3806C4.68657 43.28 4.57796 43.1428 4.51217 42.9841C4.44637 42.8254 4.42599 42.6515 4.45328 42.4819L5.43444 36.7817L1.28047 32.7459C1.15648 32.6261 1.06869 32.4738 1.02712 32.3064C0.98555 32.139 0.991875 31.9633 1.04537 31.7994C1.09887 31.6355 1.19738 31.4899 1.32967 31.3792C1.46196 31.2686 1.62269 31.1974 1.79351 31.1737L7.53389 30.3415L10.1015 25.1567C10.1782 25.0023 10.2966 24.8724 10.4432 24.7815C10.5898 24.6907 10.7588 24.6426 10.9313 24.6426C11.1038 24.6426 11.2728 24.6907 11.4194 24.7815C11.566 24.8724 11.6844 25.0023 11.7612 25.1567L14.3287 30.3415L20.0691 31.1737C20.2394 31.1982 20.3995 31.2699 20.5312 31.3806C20.6629 31.4914 20.761 31.6368 20.8144 31.8003C20.8678 31.9639 20.8743 32.1392 20.8333 32.3063C20.7922 32.4734 20.7052 32.6257 20.5821 32.7459L16.4282 36.7817L17.407 42.4795C17.4363 42.6494 17.4175 42.8242 17.3525 42.9839C17.2876 43.1436 17.1792 43.282 17.0395 43.3832C16.8999 43.4844 16.7347 43.5444 16.5627 43.5564C16.3907 43.5684 16.2188 43.532 16.0664 43.4512L10.9313 40.7607Z" fill="#FCF300" stroke="#FFC600" stroke-linecap="round" stroke-linejoin="round"/>
<path d="M24.6457 17.1181L19.5105 19.8086C19.3581 19.888 19.1867 19.9234 19.0154 19.9109C18.844 19.8984 18.6795 19.8386 18.5402 19.738C18.4009 19.6375 18.2923 19.5002 18.2265 19.3415C18.1607 19.1828 18.1403 19.0089 18.1676 18.8393L19.1488 13.1391L14.9948 9.10336C14.8708 8.98349 14.783 8.83119 14.7415 8.66382C14.6999 8.49645 14.7062 8.32077 14.7597 8.15682C14.8132 7.99288 14.9117 7.84728 15.044 7.73664C15.1763 7.62601 15.337 7.55479 15.5079 7.53113L21.2482 6.69892L23.8158 1.51414C23.8926 1.35971 24.011 1.22978 24.1576 1.13895C24.3042 1.04812 24.4732 1 24.6457 1C24.8181 1 24.9872 1.04812 25.1338 1.13895C25.2804 1.22978 25.3987 1.35971 25.4755 1.51414L28.0431 6.69892L33.7835 7.53113C33.9538 7.55564 34.1138 7.62731 34.2456 7.73805C34.3773 7.84879 34.4753 7.99417 34.5287 8.15776C34.5821 8.32134 34.5887 8.4966 34.5476 8.66371C34.5066 8.83082 34.4196 8.98311 34.2965 9.10336L30.1425 13.1391L31.1213 18.8369C31.1507 19.0069 31.1318 19.1816 31.0669 19.3413C31.0019 19.5011 30.8935 19.6394 30.7539 19.7406C30.6143 19.8418 30.4491 19.9018 30.2771 19.9138C30.1051 19.9259 29.9331 19.8894 29.7808 19.8086L24.6457 17.1181Z" fill="#FCF300" stroke="#FFC600" stroke-linecap="round" stroke-linejoin="round"/>
</svg>
