<svg width="48" height="37" viewBox="0 0 48 37" fill="none" xmlns="http://www.w3.org/2000/svg">
<path d="M29.0744 31.2248C26.1291 30.7784 23.7451 30.4363 21.3735 30.0113C20.9532 29.9331 20.562 29.525 20.2383 29.1875C18.9113 27.7946 17.6289 26.3434 16.305 24.9536C14.7985 23.3765 12.7935 23.4901 11.4175 25.2235C9.06272 28.2042 6.74016 31.2064 4.4038 34.1978C3.98807 34.7132 3.64445 35.4204 3.10292 35.6689C2.44021 35.9634 1.39245 36.1844 0.893887 35.8545C0.409126 35.537 0.195896 34.4677 0.238849 33.7544C0.271064 33.1853 0.821788 32.5962 1.22678 32.0838C3.81626 28.7488 6.45023 25.4644 9.00136 22.0941C9.46465 21.4789 9.66254 20.603 9.79293 19.8099C10.6336 14.7276 9.23454 10.5595 4.95299 7.38404C3.37599 6.21816 2.21931 4.50923 0.824858 3.08716C-0.00199712 2.23883 -0.391647 1.25704 0.542592 0.427114C1.43848 -0.372127 2.46016 0.0482046 3.2594 0.882729C5.22145 2.92916 7.12828 5.02621 9.18238 6.96832C9.79754 7.55279 10.7962 7.83506 11.6645 8.02374C17.3037 9.24638 21.4257 6.0847 25.5937 3.10404C26.1782 2.68831 26.7473 2.06395 27.4008 1.95196C28.1494 1.82157 28.9717 2.14065 29.7678 2.26798C29.5515 3.06108 29.5853 4.19015 29.076 4.57673C26.1218 6.76564 23.0928 8.85167 19.9944 10.8311C18.7196 11.6456 18.1551 12.5645 18.3085 14.0664C18.2901 15.3705 18.3085 15.7458 18.3085 17.3979C17.5982 22.2293 20.7507 23.9656 23.3003 26.391C23.8909 26.957 25.1074 26.8926 26.0539 27.0798C27.0541 27.27 28.0681 27.4004 29.0775 27.6029C30.2188 27.833 31.1147 28.5003 30.6591 29.7091C30.4014 30.4163 29.4626 30.875 29.0637 31.2248" fill="#FCF300"/>
<path d="M14.1649 7.3245C12.3548 7.28154 11.0539 5.9009 11.0815 4.02322C11.103 2.17775 12.4545 0.847725 14.2938 0.858463C16.0718 0.869201 17.4524 2.32349 17.3926 4.14287C17.342 5.97146 15.9306 7.36285 14.1649 7.3245Z" fill="#FCF300"/>
<path d="M46.3001 32.3738C44.0681 32.0302 42.2518 31.7755 40.4538 31.4519C40.1363 31.392 39.8402 31.0837 39.5948 30.826C38.5838 29.769 37.6082 28.6676 36.6034 27.6091C35.4559 26.4094 33.9249 26.4938 32.8894 27.8177C31.0977 30.0819 29.332 32.36 27.554 34.6289C27.2426 35.0262 26.9757 35.5554 26.5645 35.7457C26.0614 35.9758 25.2652 36.1461 24.8863 35.8929C24.512 35.649 24.3524 34.8436 24.3892 34.2975C24.4107 33.8618 24.8387 33.4154 25.1348 33.0212C27.0999 30.4961 29.1111 27.9987 31.0409 25.4368C31.3937 24.9751 31.5441 24.3078 31.6484 23.7064C32.2865 19.8391 31.228 16.6712 27.9697 14.2551C26.7824 13.3776 25.8926 12.0691 24.8403 10.9922C24.2021 10.3479 23.9137 9.60233 24.6239 8.96723C25.3005 8.36435 26.0675 8.67883 26.6811 9.31393C28.1722 10.8679 29.6204 12.4649 31.1866 13.9468C31.6514 14.387 32.4123 14.6003 33.0781 14.7445C37.3597 15.6787 40.4876 13.2733 43.6615 11.0075C44.111 10.6869 44.539 10.2175 45.0361 10.1285C45.6052 10.0303 46.2326 10.2789 46.8386 10.3694C46.6744 10.9738 46.7005 11.8282 46.3032 12.1258C44.0614 13.7901 41.762 15.3753 39.4092 16.8783C38.432 17.4966 38.2722 18.2889 38.1236 19.3328C37.975 20.3767 38.1236 21.303 37.975 22.2292C37.32 25.5857 39.9814 26.8635 41.9189 28.6967C42.3683 29.1324 43.2964 29.0863 44.0082 29.2244C44.7691 29.3809 45.5423 29.4699 46.3032 29.6294C47.1699 29.8027 47.8526 30.309 47.5136 31.2294C47.3187 31.7587 46.6023 32.1084 46.3001 32.3738Z" fill="#FCF300"/>
<path d="M34.9801 14.2088C33.6025 14.1781 32.6192 13.1242 32.6315 11.7098C32.6529 10.3015 33.6777 9.286 35.0767 9.28907C36.4282 9.30134 37.476 10.4089 37.4315 11.7896C37.3901 13.181 36.3193 14.2349 34.9801 14.2088Z" fill="#FCF300"/>
</svg>
