<svg width="375" height="115" viewBox="0 0 375 115" fill="none" xmlns="http://www.w3.org/2000/svg">
<ellipse cx="188" rx="251" ry="115" fill="url(#paint0_linear)"/>
<g filter="url(#filter0_d)">
<path d="M93.5509 44.0234C93.34 43.1562 93.0353 42.418 92.6369 41.8086C92.2619 41.1992 91.8283 40.6953 91.3361 40.2969C90.8673 39.875 90.3634 39.5586 89.8244 39.3477C89.2853 39.1133 88.7462 38.9375 88.2072 38.8203C86.9415 38.5625 85.5939 38.5742 84.1642 38.8555C83.672 39.0195 83.1447 39.2773 82.5822 39.6289C82.09 39.957 81.5275 40.4023 80.8947 40.9648C80.2619 41.5039 79.5822 42.2305 78.8556 43.1445L79.4884 63.5352L85.8165 66.6992L67.1837 68.3516L72.0001 63.4648L73.9689 38.9961L66.4806 35.5859L78.5744 33.3008L78.715 37.6953C79.5353 36.7109 80.379 35.9023 81.2462 35.2695C82.1134 34.6367 82.8986 34.1211 83.6017 33.7227C84.422 33.2773 85.2189 32.9375 85.9923 32.7031C87.3986 32.375 88.8283 32.2461 90.2814 32.3164C90.8908 32.3398 91.5236 32.4102 92.1798 32.5273C92.8595 32.6445 93.5392 32.832 94.2189 33.0898C94.922 33.3242 95.6017 33.6523 96.2579 34.0742C96.9142 34.4727 97.547 34.9766 98.1564 35.5859L93.5509 44.0234ZM285.399 55.0977C285.703 56.4102 286.113 57.6992 286.629 58.9648C287.145 60.207 287.777 61.3203 288.527 62.3047C289.277 63.2891 290.145 64.0859 291.129 64.6953C292.113 65.3047 293.227 65.6094 294.469 65.6094C296.11 65.6094 297.539 65.2695 298.758 64.5898C299.977 63.9102 300.973 63.0547 301.746 62.0234C302.52 60.9688 303.059 59.8203 303.363 58.5781C303.668 57.3125 303.727 56.1055 303.539 54.957C304.195 55.2148 304.735 55.5547 305.156 55.9766C305.602 56.3984 305.942 56.8672 306.176 57.3828C306.434 57.875 306.61 58.3906 306.703 58.9297C306.797 59.4453 306.844 59.9492 306.844 60.4414C306.844 61.5664 306.516 62.6562 305.86 63.7109C305.203 64.7422 304.277 65.668 303.082 66.4883C301.91 67.2852 300.516 67.9297 298.899 68.4219C297.281 68.9141 295.512 69.1602 293.59 69.1602C291.012 69.1602 288.703 68.6562 286.664 67.6484C284.649 66.6406 282.938 65.2812 281.531 63.5703C280.125 61.8359 279.047 59.8086 278.297 57.4883C277.547 55.168 277.172 52.6953 277.172 50.0703C277.172 47.3984 277.547 44.9375 278.297 42.6875C279.047 40.4141 280.149 38.4805 281.602 36.8867C283.078 35.293 284.883 34.0859 287.016 33.2656C289.149 32.4453 291.61 32.1172 294.399 32.2812C296.32 32.4219 298.09 32.9727 299.707 33.9336C301.324 34.8945 302.731 36.1367 303.926 37.6602C305.145 39.1602 306.117 40.8828 306.844 42.8281C307.594 44.7734 308.051 46.8008 308.215 48.9102L285.399 55.0977ZM284.731 49.4375C284.731 49.7656 284.731 50.0938 284.731 50.4219C284.731 50.7266 284.754 51.043 284.801 51.3711L300.235 45.7461C299.719 44.0586 299.133 42.6172 298.477 41.4219C297.844 40.2031 297.176 39.207 296.473 38.4336C295.77 37.6602 295.055 37.0977 294.328 36.7461C293.625 36.3711 292.945 36.1836 292.289 36.1836C291.305 36.1836 290.438 36.3711 289.688 36.7461C288.938 37.1211 288.281 37.6367 287.719 38.293C287.18 38.9258 286.711 39.6758 286.313 40.543C285.938 41.4102 285.633 42.3359 285.399 43.3203C285.164 44.3047 284.988 45.3242 284.871 46.3789C284.777 47.4102 284.731 48.4297 284.731 49.4375Z" fill="#FFC600"/>
<path d="M107.227 55.0977C107.531 56.4102 107.942 57.6992 108.457 58.9648C108.973 60.207 109.606 61.3203 110.356 62.3047C111.106 63.2891 111.973 64.0859 112.957 64.6953C113.942 65.3047 115.055 65.6094 116.297 65.6094C117.938 65.6094 119.367 65.2695 120.586 64.5898C121.805 63.9102 122.801 63.0547 123.574 62.0234C124.348 60.9688 124.887 59.8203 125.192 58.5781C125.496 57.3125 125.555 56.1055 125.367 54.957C126.024 55.2148 126.563 55.5547 126.985 55.9766C127.43 56.3984 127.77 56.8672 128.004 57.3828C128.262 57.875 128.438 58.3906 128.531 58.9297C128.625 59.4453 128.672 59.9492 128.672 60.4414C128.672 61.5664 128.344 62.6562 127.688 63.7109C127.031 64.7422 126.106 65.668 124.91 66.4883C123.738 67.2852 122.344 67.9297 120.727 68.4219C119.11 68.9141 117.34 69.1602 115.418 69.1602C112.84 69.1602 110.531 68.6562 108.492 67.6484C106.477 66.6406 104.766 65.2812 103.36 63.5703C101.953 61.8359 100.875 59.8086 100.125 57.4883C99.3751 55.168 99.0001 52.6953 99.0001 50.0703C99.0001 47.3984 99.3751 44.9375 100.125 42.6875C100.875 40.4141 101.977 38.4805 103.43 36.8867C104.906 35.293 106.711 34.0859 108.844 33.2656C110.977 32.4453 113.438 32.1172 116.227 32.2812C118.149 32.4219 119.918 32.9727 121.535 33.9336C123.152 34.8945 124.559 36.1367 125.754 37.6602C126.973 39.1602 127.945 40.8828 128.672 42.8281C129.422 44.7734 129.879 46.8008 130.043 48.9102L107.227 55.0977ZM106.559 49.4375C106.559 49.7656 106.559 50.0938 106.559 50.4219C106.559 50.7266 106.582 51.043 106.629 51.3711L122.063 45.7461C121.547 44.0586 120.961 42.6172 120.305 41.4219C119.672 40.2031 119.004 39.207 118.301 38.4336C117.598 37.6602 116.883 37.0977 116.156 36.7461C115.453 36.3711 114.774 36.1836 114.117 36.1836C113.133 36.1836 112.266 36.3711 111.516 36.7461C110.766 37.1211 110.11 37.6367 109.547 38.293C109.008 38.9258 108.539 39.6758 108.141 40.543C107.766 41.4102 107.461 42.3359 107.227 43.3203C106.992 44.3047 106.817 45.3242 106.699 46.3789C106.606 47.4102 106.559 48.4297 106.559 49.4375ZM259.207 32.8789C261.176 32.8789 262.957 33.3125 264.551 34.1797C266.168 35.0234 267.469 36.1719 268.453 37.625L275.555 30.418L269.719 49.4375C269.508 47.4688 269.18 45.8047 268.735 44.4453C268.289 43.0625 267.774 41.9258 267.188 41.0352C266.625 40.1211 266.027 39.418 265.395 38.9258C264.785 38.4336 264.211 38.0703 263.672 37.8359C263.156 37.6016 262.699 37.4609 262.301 37.4141C261.926 37.3672 261.692 37.3438 261.598 37.3438C259.91 37.3438 258.387 37.6719 257.027 38.3281C255.668 38.9844 254.496 39.9453 253.512 41.2109C252.551 42.4766 251.813 44.0352 251.297 45.8867C250.781 47.7148 250.524 49.8008 250.524 52.1445C250.524 54.3945 250.793 56.3867 251.332 58.1211C251.871 59.832 252.586 61.2734 253.477 62.4453C254.367 63.6172 255.387 64.5078 256.535 65.1172C257.684 65.7031 258.867 65.9961 260.086 65.9961C261.516 65.9961 262.84 65.6797 264.059 65.0469C265.277 64.3906 266.32 63.5352 267.188 62.4805C268.055 61.4258 268.699 60.2188 269.121 58.8594C269.567 57.4766 269.719 56.0586 269.578 54.6055C269.86 54.8633 270.152 55.1797 270.457 55.5547C270.785 55.9297 271.078 56.3516 271.336 56.8203C271.617 57.2656 271.84 57.7578 272.004 58.2969C272.168 58.8125 272.25 59.3398 272.25 59.8789C272.25 61.4727 271.863 62.9141 271.09 64.2031C270.34 65.4688 269.367 66.5469 268.172 67.4375C266.977 68.3281 265.629 69.0078 264.129 69.4766C262.629 69.9688 261.141 70.2148 259.664 70.2148C259.031 70.2148 258.164 70.1445 257.063 70.0039C255.985 69.8633 254.801 69.5703 253.512 69.125C252.246 68.7031 250.957 68.082 249.645 67.2617C248.332 66.4414 247.137 65.3516 246.059 63.9922C245.004 62.6328 244.137 60.957 243.457 58.9648C242.777 56.9727 242.438 54.582 242.438 51.793C242.438 49.3086 242.719 47.1172 243.281 45.2188C243.867 43.2969 244.629 41.6328 245.567 40.2266C246.527 38.8203 247.606 37.6484 248.801 36.7109C249.996 35.7734 251.215 35.0234 252.457 34.4609C253.699 33.8984 254.906 33.5 256.078 33.2656C257.274 33.0078 258.317 32.8789 259.207 32.8789Z" fill="#1E96FC"/>
<path d="M128.133 76.3564C129.645 76.3564 130.974 75.8945 132.122 74.9707C133.27 74.0469 134.264 72.8011 135.104 71.2334C135.943 69.6657 136.643 67.846 137.203 65.7744C137.791 63.7028 138.267 61.5052 138.631 59.1816C138.995 56.8581 139.275 54.4785 139.471 52.043C139.667 49.6074 139.807 47.2559 139.891 44.9883C139.975 42.7207 140.031 40.6071 140.059 38.6475C140.087 36.6878 140.101 35.0081 140.101 33.6084L129.267 28.9473L145.938 25.6719C146.246 27.1276 146.526 28.8073 146.777 30.7109C147.057 32.5866 147.281 34.5882 147.449 36.7158C147.645 38.8434 147.799 41.013 147.911 43.2246C148.023 45.4362 148.079 47.5918 148.079 49.6914C148.079 52.2949 147.953 54.8844 147.701 57.46C147.477 60.0355 147.071 62.485 146.484 64.8086C145.924 67.1322 145.182 69.2878 144.258 71.2754C143.334 73.291 142.172 75.0267 140.773 76.4824C139.401 77.9382 137.777 79.0719 135.902 79.8838C134.026 80.7236 131.87 81.1436 129.435 81.1436C128.651 81.1436 127.825 81.0876 126.957 80.9756C126.061 80.8636 125.166 80.6396 124.27 80.3037L122.296 87.6943L117.383 69.8896C118.279 71.2334 119.217 72.3252 120.196 73.165C121.176 74.0329 122.142 74.6908 123.094 75.1387C124.018 75.6146 124.914 75.9365 125.781 76.1045C126.649 76.2725 127.433 76.3564 128.133 76.3564ZM147.323 16.2236C147.323 17.0355 147.169 17.7913 146.861 18.4912C146.582 19.1631 146.19 19.765 145.686 20.2969C145.182 20.8288 144.58 21.2487 143.88 21.5566C143.208 21.8366 142.466 21.9766 141.654 21.9766C140.871 21.9766 140.129 21.8366 139.429 21.5566C138.757 21.2487 138.169 20.8288 137.665 20.2969C137.161 19.765 136.755 19.1631 136.447 18.4912C136.167 17.7913 136.027 17.0355 136.027 16.2236C136.027 15.4398 136.167 14.7119 136.447 14.04C136.755 13.3402 137.161 12.7383 137.665 12.2344C138.169 11.7025 138.757 11.2965 139.429 11.0166C140.129 10.7087 140.871 10.5547 141.654 10.5547C142.466 10.5547 143.208 10.7087 143.88 11.0166C144.58 11.2965 145.182 11.7025 145.686 12.2344C146.19 12.7383 146.582 13.3402 146.861 14.04C147.169 14.7119 147.323 15.4398 147.323 16.2236ZM154.882 46.9199C154.882 43.7845 155.372 40.887 156.352 38.2275C157.36 35.54 158.745 33.2165 160.509 31.2568C162.301 29.2972 164.414 27.7715 166.85 26.6797C169.313 25.5599 172.001 25 174.912 25C177.74 25 180.329 25.5319 182.681 26.5957C185.032 27.6315 187.076 29.1012 188.812 31.0049C190.547 32.9085 191.933 35.1901 192.969 37.8496C194.005 40.5091 194.621 43.4486 194.817 46.668C195.013 50.1113 194.649 53.2327 193.725 56.0322C192.829 58.8037 191.499 61.1693 189.735 63.1289C187.972 65.0605 185.858 66.5583 183.395 67.6221C180.959 68.6859 178.314 69.2178 175.458 69.2178C172.715 69.2178 170.097 68.7279 167.606 67.748C165.142 66.7402 162.958 65.2845 161.055 63.3809C159.179 61.4772 157.681 59.1536 156.562 56.4102C155.442 53.6387 154.882 50.4753 154.882 46.9199ZM165.212 47.6338C165.212 50.0973 165.562 52.3229 166.262 54.3105C166.962 56.2982 167.9 57.9919 169.075 59.3916C170.251 60.7633 171.609 61.8271 173.149 62.583C174.688 63.3389 176.312 63.7168 178.02 63.7168C179.727 63.7168 181.323 63.3529 182.807 62.625C184.291 61.8691 185.578 60.8193 186.67 59.4756C187.762 58.1038 188.616 56.4661 189.232 54.5625C189.847 52.6589 190.155 50.5452 190.155 48.2217C190.155 45.9261 189.847 43.7705 189.232 41.7549C188.616 39.7113 187.748 37.9336 186.628 36.4219C185.536 34.9102 184.235 33.7204 182.723 32.8525C181.211 31.9847 179.559 31.5508 177.768 31.5508C176.172 31.5508 174.618 31.9147 173.107 32.6426C171.623 33.3704 170.293 34.4342 169.117 35.834C167.942 37.2057 166.99 38.8854 166.262 40.873C165.562 42.8607 165.212 45.1143 165.212 47.6338ZM233.827 31.2988C234.107 33.5944 234.317 36.0859 234.457 38.7734C234.625 41.4609 234.681 44.2184 234.625 47.0459C234.569 49.8734 234.387 52.7148 234.079 55.5703C233.771 58.3978 233.281 61.1273 232.61 63.7588C231.938 66.3623 231.07 68.7979 230.006 71.0654C228.942 73.333 227.626 75.2926 226.059 76.9443C224.519 78.624 222.699 79.9398 220.6 80.8916C218.528 81.8714 216.135 82.3613 213.419 82.3613C210.34 82.3613 207.05 81.5915 203.551 80.0518L200.443 86.2246L196.16 69.7217C197.42 71.3734 198.708 72.7031 200.024 73.7109C201.367 74.7188 202.641 75.4886 203.845 76.0205C205.077 76.5804 206.196 76.9443 207.204 77.1123C208.24 77.2803 209.08 77.3643 209.724 77.3643C212.019 77.3643 214.063 76.6364 215.855 75.1807C217.674 73.7529 219.27 71.7653 220.642 69.2178C218.402 66.8662 216.219 64.3187 214.091 61.5752C211.991 58.8037 210.088 55.8643 208.38 52.7568C206.672 49.6214 205.231 46.332 204.055 42.8887C202.907 39.4453 202.165 35.862 201.829 32.1387L194.943 28.4434L214.385 25.6719L210.774 30.585C211.501 36.2119 212.901 41.7409 214.973 47.1719C217.044 52.6029 219.746 58.1178 223.077 63.7168C223.805 61.6172 224.435 59.3496 224.967 56.9141C225.527 54.4785 225.989 51.903 226.353 49.1875C226.745 46.472 227.039 43.6585 227.235 40.7471C227.43 37.8076 227.556 34.8262 227.612 31.8027L221.356 25.6719C223.679 25.8398 225.723 25.9938 227.486 26.1338C229.278 26.2738 230.832 26.3997 232.148 26.5117C233.463 26.5957 234.569 26.6797 235.465 26.7637C236.389 26.8197 237.145 26.8617 237.733 26.8896C239.104 27.0016 239.916 27.0576 240.168 27.0576L233.827 31.2988Z" fill="#A2D6F9"/>
<g clip-path="url(#clip0)">
<path d="M170.067 41.2085H184.77C185.112 41.2108 185.449 41.2964 185.751 41.4576C186.053 41.6187 186.31 41.8507 186.5 42.1332C186.691 42.4157 186.809 42.7402 186.844 43.0783C186.879 43.4164 186.83 43.7579 186.702 44.073L179.246 56.8335C179.064 57.1591 178.798 57.4305 178.475 57.6195C178.151 57.8085 177.783 57.9082 177.408 57.9082C177.033 57.9082 176.664 57.8085 176.341 57.6195C176.018 57.4305 175.752 57.1591 175.57 56.8335L168.114 44.073C167.988 43.7652 167.938 43.4318 167.968 43.1008C167.998 42.7699 168.108 42.4509 168.288 42.1705C168.468 41.8902 168.713 41.6566 169.002 41.4892C169.291 41.3218 169.617 41.2256 169.952 41.2085" fill="#A2D6F9"/>
</g>
<path d="M93.5509 44.0234C93.34 43.1562 93.0353 42.418 92.6369 41.8086C92.2619 41.1992 91.8283 40.6953 91.3361 40.2969C90.8673 39.875 90.3634 39.5586 89.8244 39.3477C89.2853 39.1133 88.7462 38.9375 88.2072 38.8203C86.9415 38.5625 85.5939 38.5742 84.1642 38.8555C83.672 39.0195 83.1447 39.2773 82.5822 39.6289C82.09 39.957 81.5275 40.4023 80.8947 40.9648C80.2619 41.5039 79.5822 42.2305 78.8556 43.1445L79.4884 63.5352L85.8165 66.6992L67.1837 68.3516L72.0001 63.4648L73.9689 38.9961L66.4806 35.5859L78.5744 33.3008L78.715 37.6953C79.5353 36.7109 80.379 35.9023 81.2462 35.2695C82.1134 34.6367 82.8986 34.1211 83.6017 33.7227C84.422 33.2773 85.2189 32.9375 85.9923 32.7031C87.3986 32.375 88.8283 32.2461 90.2814 32.3164C90.8908 32.3398 91.5236 32.4102 92.1798 32.5273C92.8595 32.6445 93.5392 32.832 94.2189 33.0898C94.922 33.3242 95.6017 33.6523 96.2579 34.0742C96.9142 34.4727 97.547 34.9766 98.1564 35.5859L93.5509 44.0234ZM285.399 55.0977C285.703 56.4102 286.113 57.6992 286.629 58.9648C287.145 60.207 287.777 61.3203 288.527 62.3047C289.277 63.2891 290.145 64.0859 291.129 64.6953C292.113 65.3047 293.227 65.6094 294.469 65.6094C296.11 65.6094 297.539 65.2695 298.758 64.5898C299.977 63.9102 300.973 63.0547 301.746 62.0234C302.52 60.9688 303.059 59.8203 303.363 58.5781C303.668 57.3125 303.727 56.1055 303.539 54.957C304.195 55.2148 304.735 55.5547 305.156 55.9766C305.602 56.3984 305.942 56.8672 306.176 57.3828C306.434 57.875 306.61 58.3906 306.703 58.9297C306.797 59.4453 306.844 59.9492 306.844 60.4414C306.844 61.5664 306.516 62.6562 305.86 63.7109C305.203 64.7422 304.277 65.668 303.082 66.4883C301.91 67.2852 300.516 67.9297 298.899 68.4219C297.281 68.9141 295.512 69.1602 293.59 69.1602C291.012 69.1602 288.703 68.6562 286.664 67.6484C284.649 66.6406 282.938 65.2812 281.531 63.5703C280.125 61.8359 279.047 59.8086 278.297 57.4883C277.547 55.168 277.172 52.6953 277.172 50.0703C277.172 47.3984 277.547 44.9375 278.297 42.6875C279.047 40.4141 280.149 38.4805 281.602 36.8867C283.078 35.293 284.883 34.0859 287.016 33.2656C289.149 32.4453 291.61 32.1172 294.399 32.2812C296.32 32.4219 298.09 32.9727 299.707 33.9336C301.324 34.8945 302.731 36.1367 303.926 37.6602C305.145 39.1602 306.117 40.8828 306.844 42.8281C307.594 44.7734 308.051 46.8008 308.215 48.9102L285.399 55.0977ZM284.731 49.4375C284.731 49.7656 284.731 50.0938 284.731 50.4219C284.731 50.7266 284.754 51.043 284.801 51.3711L300.235 45.7461C299.719 44.0586 299.133 42.6172 298.477 41.4219C297.844 40.2031 297.176 39.207 296.473 38.4336C295.77 37.6602 295.055 37.0977 294.328 36.7461C293.625 36.3711 292.945 36.1836 292.289 36.1836C291.305 36.1836 290.438 36.3711 289.688 36.7461C288.938 37.1211 288.281 37.6367 287.719 38.293C287.18 38.9258 286.711 39.6758 286.313 40.543C285.938 41.4102 285.633 42.3359 285.399 43.3203C285.164 44.3047 284.988 45.3242 284.871 46.3789C284.777 47.4102 284.731 48.4297 284.731 49.4375Z" fill="#FFC600"/>
<path d="M107.227 55.0977C107.531 56.4102 107.942 57.6992 108.457 58.9648C108.973 60.207 109.606 61.3203 110.356 62.3047C111.106 63.2891 111.973 64.0859 112.957 64.6953C113.942 65.3047 115.055 65.6094 116.297 65.6094C117.938 65.6094 119.367 65.2695 120.586 64.5898C121.805 63.9102 122.801 63.0547 123.574 62.0234C124.348 60.9688 124.887 59.8203 125.192 58.5781C125.496 57.3125 125.555 56.1055 125.367 54.957C126.024 55.2148 126.563 55.5547 126.985 55.9766C127.43 56.3984 127.77 56.8672 128.004 57.3828C128.262 57.875 128.438 58.3906 128.531 58.9297C128.625 59.4453 128.672 59.9492 128.672 60.4414C128.672 61.5664 128.344 62.6562 127.688 63.7109C127.031 64.7422 126.106 65.668 124.91 66.4883C123.738 67.2852 122.344 67.9297 120.727 68.4219C119.11 68.9141 117.34 69.1602 115.418 69.1602C112.84 69.1602 110.531 68.6562 108.492 67.6484C106.477 66.6406 104.766 65.2812 103.36 63.5703C101.953 61.8359 100.875 59.8086 100.125 57.4883C99.3751 55.168 99.0001 52.6953 99.0001 50.0703C99.0001 47.3984 99.3751 44.9375 100.125 42.6875C100.875 40.4141 101.977 38.4805 103.43 36.8867C104.906 35.293 106.711 34.0859 108.844 33.2656C110.977 32.4453 113.438 32.1172 116.227 32.2812C118.149 32.4219 119.918 32.9727 121.535 33.9336C123.152 34.8945 124.559 36.1367 125.754 37.6602C126.973 39.1602 127.945 40.8828 128.672 42.8281C129.422 44.7734 129.879 46.8008 130.043 48.9102L107.227 55.0977ZM106.559 49.4375C106.559 49.7656 106.559 50.0938 106.559 50.4219C106.559 50.7266 106.582 51.043 106.629 51.3711L122.063 45.7461C121.547 44.0586 120.961 42.6172 120.305 41.4219C119.672 40.2031 119.004 39.207 118.301 38.4336C117.598 37.6602 116.883 37.0977 116.156 36.7461C115.453 36.3711 114.774 36.1836 114.117 36.1836C113.133 36.1836 112.266 36.3711 111.516 36.7461C110.766 37.1211 110.11 37.6367 109.547 38.293C109.008 38.9258 108.539 39.6758 108.141 40.543C107.766 41.4102 107.461 42.3359 107.227 43.3203C106.992 44.3047 106.817 45.3242 106.699 46.3789C106.606 47.4102 106.559 48.4297 106.559 49.4375ZM259.207 32.8789C261.176 32.8789 262.957 33.3125 264.551 34.1797C266.168 35.0234 267.469 36.1719 268.453 37.625L275.555 30.418L269.719 49.4375C269.508 47.4688 269.18 45.8047 268.735 44.4453C268.289 43.0625 267.774 41.9258 267.188 41.0352C266.625 40.1211 266.027 39.418 265.395 38.9258C264.785 38.4336 264.211 38.0703 263.672 37.8359C263.156 37.6016 262.699 37.4609 262.301 37.4141C261.926 37.3672 261.692 37.3438 261.598 37.3438C259.91 37.3438 258.387 37.6719 257.027 38.3281C255.668 38.9844 254.496 39.9453 253.512 41.2109C252.551 42.4766 251.813 44.0352 251.297 45.8867C250.781 47.7148 250.524 49.8008 250.524 52.1445C250.524 54.3945 250.793 56.3867 251.332 58.1211C251.871 59.832 252.586 61.2734 253.477 62.4453C254.367 63.6172 255.387 64.5078 256.535 65.1172C257.684 65.7031 258.867 65.9961 260.086 65.9961C261.516 65.9961 262.84 65.6797 264.059 65.0469C265.277 64.3906 266.32 63.5352 267.188 62.4805C268.055 61.4258 268.699 60.2188 269.121 58.8594C269.567 57.4766 269.719 56.0586 269.578 54.6055C269.86 54.8633 270.152 55.1797 270.457 55.5547C270.785 55.9297 271.078 56.3516 271.336 56.8203C271.617 57.2656 271.84 57.7578 272.004 58.2969C272.168 58.8125 272.25 59.3398 272.25 59.8789C272.25 61.4727 271.863 62.9141 271.09 64.2031C270.34 65.4688 269.367 66.5469 268.172 67.4375C266.977 68.3281 265.629 69.0078 264.129 69.4766C262.629 69.9688 261.141 70.2148 259.664 70.2148C259.031 70.2148 258.164 70.1445 257.063 70.0039C255.985 69.8633 254.801 69.5703 253.512 69.125C252.246 68.7031 250.957 68.082 249.645 67.2617C248.332 66.4414 247.137 65.3516 246.059 63.9922C245.004 62.6328 244.137 60.957 243.457 58.9648C242.777 56.9727 242.438 54.582 242.438 51.793C242.438 49.3086 242.719 47.1172 243.281 45.2188C243.867 43.2969 244.629 41.6328 245.567 40.2266C246.527 38.8203 247.606 37.6484 248.801 36.7109C249.996 35.7734 251.215 35.0234 252.457 34.4609C253.699 33.8984 254.906 33.5 256.078 33.2656C257.274 33.0078 258.317 32.8789 259.207 32.8789Z" fill="#072AC8"/>
<path d="M128.133 76.3564C129.645 76.3564 130.974 75.8945 132.122 74.9707C133.27 74.0469 134.264 72.8011 135.104 71.2334C135.943 69.6657 136.643 67.846 137.203 65.7744C137.791 63.7028 138.267 61.5052 138.631 59.1816C138.995 56.8581 139.275 54.4785 139.471 52.043C139.667 49.6074 139.807 47.2559 139.891 44.9883C139.975 42.7207 140.031 40.6071 140.059 38.6475C140.087 36.6878 140.101 35.0081 140.101 33.6084L129.267 28.9473L145.938 25.6719C146.246 27.1276 146.526 28.8073 146.777 30.7109C147.057 32.5866 147.281 34.5882 147.449 36.7158C147.645 38.8434 147.799 41.013 147.911 43.2246C148.023 45.4362 148.079 47.5918 148.079 49.6914C148.079 52.2949 147.953 54.8844 147.701 57.46C147.477 60.0355 147.071 62.485 146.484 64.8086C145.924 67.1322 145.182 69.2878 144.258 71.2754C143.334 73.291 142.172 75.0267 140.773 76.4824C139.401 77.9382 137.777 79.0719 135.902 79.8838C134.026 80.7236 131.87 81.1436 129.435 81.1436C128.651 81.1436 127.825 81.0876 126.957 80.9756C126.061 80.8636 125.166 80.6396 124.27 80.3037L122.296 87.6943L117.383 69.8896C118.279 71.2334 119.217 72.3252 120.196 73.165C121.176 74.0329 122.142 74.6908 123.094 75.1387C124.018 75.6146 124.914 75.9365 125.781 76.1045C126.649 76.2725 127.433 76.3564 128.133 76.3564ZM147.323 16.2236C147.323 17.0355 147.169 17.7913 146.861 18.4912C146.582 19.1631 146.19 19.765 145.686 20.2969C145.182 20.8288 144.58 21.2487 143.88 21.5566C143.208 21.8366 142.466 21.9766 141.654 21.9766C140.871 21.9766 140.129 21.8366 139.429 21.5566C138.757 21.2487 138.169 20.8288 137.665 20.2969C137.161 19.765 136.755 19.1631 136.447 18.4912C136.167 17.7913 136.027 17.0355 136.027 16.2236C136.027 15.4398 136.167 14.7119 136.447 14.04C136.755 13.3402 137.161 12.7383 137.665 12.2344C138.169 11.7025 138.757 11.2965 139.429 11.0166C140.129 10.7087 140.871 10.5547 141.654 10.5547C142.466 10.5547 143.208 10.7087 143.88 11.0166C144.58 11.2965 145.182 11.7025 145.686 12.2344C146.19 12.7383 146.582 13.3402 146.861 14.04C147.169 14.7119 147.323 15.4398 147.323 16.2236ZM154.882 46.9199C154.882 43.7845 155.372 40.887 156.352 38.2275C157.36 35.54 158.745 33.2165 160.509 31.2568C162.301 29.2972 164.414 27.7715 166.85 26.6797C169.313 25.5599 172.001 25 174.912 25C177.74 25 180.329 25.5319 182.681 26.5957C185.032 27.6315 187.076 29.1012 188.812 31.0049C190.547 32.9085 191.933 35.1901 192.969 37.8496C194.005 40.5091 194.621 43.4486 194.817 46.668C195.013 50.1113 194.649 53.2327 193.725 56.0322C192.829 58.8037 191.499 61.1693 189.735 63.1289C187.972 65.0605 185.858 66.5583 183.395 67.6221C180.959 68.6859 178.314 69.2178 175.458 69.2178C172.715 69.2178 170.097 68.7279 167.606 67.748C165.142 66.7402 162.958 65.2845 161.055 63.3809C159.179 61.4772 157.681 59.1536 156.562 56.4102C155.442 53.6387 154.882 50.4753 154.882 46.9199ZM165.212 47.6338C165.212 50.0973 165.562 52.3229 166.262 54.3105C166.962 56.2982 167.9 57.9919 169.075 59.3916C170.251 60.7633 171.609 61.8271 173.149 62.583C174.688 63.3389 176.312 63.7168 178.02 63.7168C179.727 63.7168 181.323 63.3529 182.807 62.625C184.291 61.8691 185.578 60.8193 186.67 59.4756C187.762 58.1038 188.616 56.4661 189.232 54.5625C189.847 52.6589 190.155 50.5452 190.155 48.2217C190.155 45.9261 189.847 43.7705 189.232 41.7549C188.616 39.7113 187.748 37.9336 186.628 36.4219C185.536 34.9102 184.235 33.7204 182.723 32.8525C181.211 31.9847 179.559 31.5508 177.768 31.5508C176.172 31.5508 174.618 31.9147 173.107 32.6426C171.623 33.3704 170.293 34.4342 169.117 35.834C167.942 37.2057 166.99 38.8854 166.262 40.873C165.562 42.8607 165.212 45.1143 165.212 47.6338ZM233.827 31.2988C234.107 33.5944 234.317 36.0859 234.457 38.7734C234.625 41.4609 234.681 44.2184 234.625 47.0459C234.569 49.8734 234.387 52.7148 234.079 55.5703C233.771 58.3978 233.281 61.1273 232.61 63.7588C231.938 66.3623 231.07 68.7979 230.006 71.0654C228.942 73.333 227.626 75.2926 226.059 76.9443C224.519 78.624 222.699 79.9398 220.6 80.8916C218.528 81.8714 216.135 82.3613 213.419 82.3613C210.34 82.3613 207.05 81.5915 203.551 80.0518L200.443 86.2246L196.16 69.7217C197.42 71.3734 198.708 72.7031 200.024 73.7109C201.367 74.7188 202.641 75.4886 203.845 76.0205C205.077 76.5804 206.196 76.9443 207.204 77.1123C208.24 77.2803 209.08 77.3643 209.724 77.3643C212.019 77.3643 214.063 76.6364 215.855 75.1807C217.674 73.7529 219.27 71.7653 220.642 69.2178C218.402 66.8662 216.219 64.3187 214.091 61.5752C211.991 58.8037 210.088 55.8643 208.38 52.7568C206.672 49.6214 205.231 46.332 204.055 42.8887C202.907 39.4453 202.165 35.862 201.829 32.1387L194.943 28.4434L214.385 25.6719L210.774 30.585C211.501 36.2119 212.901 41.7409 214.973 47.1719C217.044 52.6029 219.746 58.1178 223.077 63.7168C223.805 61.6172 224.435 59.3496 224.967 56.9141C225.527 54.4785 225.989 51.903 226.353 49.1875C226.745 46.472 227.039 43.6585 227.235 40.7471C227.43 37.8076 227.556 34.8262 227.612 31.8027L221.356 25.6719C223.679 25.8398 225.723 25.9938 227.486 26.1338C229.278 26.2738 230.832 26.3997 232.148 26.5117C233.463 26.5957 234.569 26.6797 235.465 26.7637C236.389 26.8197 237.145 26.8617 237.733 26.8896C239.104 27.0016 239.916 27.0576 240.168 27.0576L233.827 31.2988Z" fill="#A2D6F9"/>
<g clip-path="url(#clip1)">
<path d="M170.067 41.2085H184.77C185.112 41.2108 185.449 41.2964 185.751 41.4576C186.053 41.6187 186.31 41.8507 186.5 42.1332C186.691 42.4157 186.809 42.7402 186.844 43.0783C186.879 43.4164 186.83 43.7579 186.702 44.073L179.246 56.8335C179.064 57.1591 178.798 57.4305 178.475 57.6195C178.151 57.8085 177.783 57.9082 177.408 57.9082C177.033 57.9082 176.664 57.8085 176.341 57.6195C176.018 57.4305 175.752 57.1591 175.57 56.8335L168.114 44.073C167.988 43.7652 167.938 43.4318 167.968 43.1008C167.998 42.7699 168.108 42.4509 168.288 42.1705C168.468 41.8902 168.713 41.6566 169.002 41.4892C169.291 41.3218 169.617 41.2256 169.952 41.2085" fill="#A2D6F9"/>
</g>
<circle cx="174" cy="48" r="25" fill="#FFC600"/>
<circle cx="174" cy="48.0001" r="13.7755" fill="#FFFEFE"/>
<path d="M165.223 40.3468H182.293C182.691 40.3496 183.082 40.4497 183.432 40.6384C183.782 40.8271 184.081 41.0986 184.302 41.4293C184.524 41.76 184.661 42.1398 184.701 42.5356C184.742 42.9313 184.685 43.3311 184.536 43.6999L175.879 58.6363C175.668 59.0174 175.359 59.3351 174.984 59.5564C174.609 59.7776 174.181 59.8943 173.745 59.8943C173.31 59.8943 172.882 59.7776 172.507 59.5564C172.132 59.3351 171.823 59.0174 171.612 58.6363L162.955 43.6999C162.808 43.3395 162.75 42.9493 162.785 42.5619C162.82 42.1745 162.948 41.8012 163.157 41.473C163.365 41.1448 163.65 40.8714 163.986 40.6754C164.322 40.4795 164.7 40.3669 165.088 40.3468" fill="#FFD00A"/>
<path d="M169.201 41.623L171.091 44.3652L170.212 44.1982C170.405 43.9756 170.66 43.7764 170.977 43.6006C171.246 43.4482 171.595 43.3105 172.022 43.1875C172.456 43.0586 172.986 42.9941 173.613 42.9941C174.322 42.9941 175.005 43.0674 175.661 43.2139C176.317 43.3604 176.895 43.5771 177.393 43.8643C177.896 44.1514 178.298 44.5088 178.597 44.9365C178.896 45.3584 179.045 45.8447 179.045 46.3955C179.045 46.8643 178.978 47.2568 178.843 47.5732C178.714 47.8896 178.541 48.1562 178.324 48.373C178.107 48.5898 177.861 48.7686 177.586 48.9092C177.311 49.0498 177.029 49.1846 176.742 49.3135C176.455 49.4365 176.174 49.5654 175.898 49.7002C175.623 49.8291 175.377 49.9902 175.16 50.1836C174.943 50.377 174.768 50.6172 174.633 50.9043C174.504 51.1914 174.439 51.5488 174.439 51.9766C174.439 52.0586 174.442 52.1436 174.448 52.2314C174.454 52.3193 174.463 52.4131 174.475 52.5127H172.532C172.526 52.4775 172.521 52.4365 172.515 52.3896C172.509 52.3486 172.503 52.3018 172.497 52.249C172.497 52.1963 172.497 52.1348 172.497 52.0645C172.497 51.8945 172.518 51.6924 172.559 51.458C172.6 51.2178 172.688 50.9688 172.822 50.7109C172.963 50.4531 173.159 50.1982 173.411 49.9463C173.669 49.6943 174.012 49.4658 174.439 49.2607C174.861 49.0615 175.204 48.8418 175.468 48.6016C175.731 48.3555 175.934 48.1064 176.074 47.8545C176.221 47.5967 176.32 47.3477 176.373 47.1074C176.426 46.8613 176.452 46.6357 176.452 46.4307C176.452 46.0557 176.376 45.7275 176.224 45.4463C176.077 45.1592 175.878 44.9219 175.626 44.7344C175.38 44.541 175.099 44.3975 174.782 44.3037C174.466 44.21 174.141 44.1631 173.807 44.1631C173.373 44.1631 172.989 44.21 172.655 44.3037C172.321 44.3916 172.025 44.5176 171.768 44.6816C171.51 44.8398 171.284 45.0273 171.091 45.2441C170.903 45.4551 170.733 45.6865 170.581 45.9385C170.429 46.1846 170.288 46.4453 170.159 46.7207C170.036 46.9902 169.913 47.2598 169.79 47.5293L169.201 41.623ZM174.729 54.499C174.729 54.6865 174.68 54.8477 174.58 54.9824C174.486 55.1172 174.369 55.2256 174.229 55.3076C174.088 55.3955 173.941 55.457 173.789 55.4922C173.637 55.5332 173.505 55.5537 173.394 55.5537C173.271 55.5537 173.133 55.5332 172.98 55.4922C172.828 55.457 172.682 55.3955 172.541 55.3076C172.406 55.2256 172.292 55.1172 172.198 54.9824C172.104 54.8477 172.058 54.6865 172.058 54.499C172.058 54.2998 172.104 54.1299 172.198 53.9893C172.292 53.8486 172.406 53.7344 172.541 53.6465C172.682 53.5527 172.828 53.4854 172.98 53.4443C173.133 53.4033 173.271 53.3828 173.394 53.3828C173.505 53.3828 173.637 53.4033 173.789 53.4443C173.941 53.4854 174.088 53.5527 174.229 53.6465C174.369 53.7344 174.486 53.8486 174.58 53.9893C174.68 54.1299 174.729 54.2998 174.729 54.499Z" fill="#482579"/>
</g>
<g filter="url(#filter1_d)">
<path d="M197.599 32.556C205.932 44.6818 202.85 61.2651 190.724 69.595C178.598 77.9293 162.017 74.8484 153.685 62.72C145.351 50.5943 148.434 34.0092 160.56 25.681C172.686 17.3554 189.266 20.4319 197.59 32.556" fill="#1E96FC"/>
</g>
<path d="M194.686 35.8663C196.467 38.4616 197.677 41.2726 198.404 44.1558C198.027 40.3001 196.676 36.6034 194.479 33.4128C187.644 23.4604 174.369 20.59 164.091 26.5206C174.978 22.2246 187.778 25.8082 194.689 35.8697" fill="white"/>
<path d="M175.642 59.3926C182.072 59.3926 187.284 54.1799 187.284 47.7497C187.284 41.3196 182.072 36.1069 175.642 36.1069C169.212 36.1069 164 41.3196 164 47.7497C164 54.1799 169.212 59.3926 175.642 59.3926Z" fill="#072AC8"/>
<path d="M168.227 41.9999H183.763C184.125 42.0022 184.481 42.0842 184.8 42.2389C185.119 42.3936 185.391 42.6162 185.592 42.8873C185.793 43.1584 185.918 43.4697 185.955 43.7942C185.992 44.1187 185.941 44.4464 185.805 44.7487L177.926 56.9936C177.734 57.3061 177.453 57.5665 177.111 57.7479C176.77 57.9292 176.38 58.0249 175.984 58.0249C175.587 58.0249 175.198 57.9292 174.857 57.7479C174.515 57.5665 174.234 57.3061 174.042 56.9936L166.163 44.7487C166.03 44.4533 165.977 44.1334 166.009 43.8158C166.041 43.4982 166.157 43.1921 166.347 42.9231C166.537 42.6541 166.796 42.4299 167.102 42.2693C167.408 42.1087 167.752 42.0163 168.105 41.9999" fill="#A2D6F9"/>
<path d="M173.945 51.1215V50.5189C173.945 50.2417 173.973 49.9916 174.03 49.7657C174.087 49.5407 174.174 49.3263 174.29 49.1223C174.406 48.9193 174.557 48.7216 174.742 48.528C174.926 48.3366 175.149 48.1368 175.41 47.9307C175.638 47.7518 175.83 47.5917 175.988 47.4505C176.145 47.3092 176.273 47.169 176.37 47.032C176.468 46.8928 176.538 46.7485 176.582 46.5968C176.625 46.4451 176.647 46.2683 176.647 46.0674C176.647 45.7588 176.543 45.5035 176.333 45.3026C176.124 45.1018 175.806 45.0013 175.377 45.0013C175.003 45.0013 174.6 45.0798 174.168 45.2378C173.737 45.3958 173.29 45.5883 172.83 45.8163L172 44.0179C172.233 43.8819 172.486 43.7533 172.761 43.6308C173.035 43.5084 173.319 43.4007 173.615 43.3055C173.91 43.2108 174.21 43.136 174.515 43.0816C174.819 43.0272 175.118 43 175.411 43C175.964 43 176.463 43.067 176.908 43.1998C177.353 43.3327 177.73 43.5273 178.04 43.7815C178.349 44.0368 178.586 44.3464 178.752 44.7095C178.917 45.0725 179 45.4878 179 45.9544C179 46.2965 178.962 46.602 178.886 46.8698C178.81 47.1376 178.697 47.3877 178.548 47.6189C178.398 47.8491 178.211 48.0719 177.986 48.2864C177.761 48.5008 177.499 48.7268 177.201 48.9653C176.973 49.1442 176.787 49.3001 176.643 49.433C176.499 49.5658 176.387 49.6924 176.305 49.8117C176.223 49.932 176.168 50.0544 176.138 50.182C176.107 50.3097 176.093 50.4603 176.093 50.634V51.1226H173.945V51.1215ZM173.676 53.9043C173.676 53.6491 173.713 53.4336 173.786 53.2568C173.859 53.081 173.961 52.9387 174.091 52.8299C174.221 52.7211 174.375 52.6427 174.552 52.5935C174.727 52.5454 174.916 52.5202 175.118 52.5202C175.308 52.5202 175.488 52.5454 175.66 52.5935C175.83 52.6416 175.981 52.7211 176.111 52.8299C176.241 52.9387 176.345 53.081 176.421 53.2568C176.498 53.4336 176.535 53.6491 176.535 53.9043C176.535 54.1481 176.498 54.3573 176.421 54.531C176.345 54.7047 176.242 54.848 176.111 54.962C175.981 55.0764 175.826 55.161 175.66 55.21C175.488 55.2623 175.308 55.2874 175.118 55.2874C174.917 55.2874 174.728 55.2623 174.552 55.21C174.375 55.1587 174.221 55.0761 174.091 54.962C173.962 54.848 173.86 54.7047 173.786 54.531C173.713 54.3573 173.676 54.1481 173.676 53.9043Z" fill="#072AC8"/>
<g filter="url(#filter2_d)">
<path d="M197.599 32.556C205.932 44.6818 202.85 61.2651 190.724 69.595C178.598 77.9293 162.017 74.8484 153.685 62.72C145.351 50.5943 148.434 34.0092 160.56 25.681C172.686 17.3554 189.266 20.4319 197.59 32.556" fill="#FFC600"/>
</g>
<path d="M194.686 35.8663C196.467 38.4616 197.677 41.2726 198.404 44.1558C198.027 40.3001 196.676 36.6034 194.479 33.4128C187.644 23.4604 174.369 20.59 164.091 26.5206C174.978 22.2246 187.778 25.8082 194.689 35.8697" fill="white"/>
<path d="M175.642 59.3926C182.072 59.3926 187.284 54.1799 187.284 47.7497C187.284 41.3196 182.072 36.1069 175.642 36.1069C169.212 36.1069 164 41.3196 164 47.7497C164 54.1799 169.212 59.3926 175.642 59.3926Z" fill="#072AC8"/>
<path d="M168.227 41.9999H183.763C184.125 42.0022 184.481 42.0842 184.8 42.2389C185.119 42.3936 185.391 42.6162 185.592 42.8873C185.793 43.1584 185.918 43.4697 185.955 43.7942C185.992 44.1187 185.941 44.4464 185.805 44.7487L177.926 56.9936C177.734 57.3061 177.453 57.5665 177.111 57.7479C176.77 57.9292 176.38 58.0249 175.984 58.0249C175.587 58.0249 175.198 57.9292 174.857 57.7479C174.515 57.5665 174.234 57.3061 174.042 56.9936L166.163 44.7487C166.03 44.4533 165.977 44.1334 166.009 43.8158C166.041 43.4982 166.157 43.1921 166.347 42.9231C166.537 42.6541 166.796 42.4299 167.102 42.2693C167.408 42.1087 167.752 42.0163 168.105 41.9999" fill="#A2D6F9"/>
<path d="M173.945 51.1215V50.5189C173.945 50.2417 173.973 49.9916 174.03 49.7657C174.087 49.5407 174.174 49.3263 174.29 49.1223C174.406 48.9193 174.557 48.7216 174.742 48.528C174.926 48.3366 175.149 48.1368 175.41 47.9307C175.638 47.7518 175.83 47.5917 175.988 47.4505C176.145 47.3092 176.273 47.169 176.37 47.032C176.468 46.8928 176.538 46.7485 176.582 46.5968C176.625 46.4451 176.647 46.2683 176.647 46.0674C176.647 45.7588 176.543 45.5035 176.333 45.3026C176.124 45.1018 175.806 45.0013 175.377 45.0013C175.003 45.0013 174.6 45.0798 174.168 45.2378C173.737 45.3958 173.29 45.5883 172.83 45.8163L172 44.0179C172.233 43.8819 172.486 43.7533 172.761 43.6308C173.035 43.5084 173.319 43.4007 173.615 43.3055C173.91 43.2108 174.21 43.136 174.515 43.0816C174.819 43.0272 175.118 43 175.411 43C175.964 43 176.463 43.067 176.908 43.1998C177.353 43.3327 177.73 43.5273 178.04 43.7815C178.349 44.0368 178.586 44.3464 178.752 44.7095C178.917 45.0725 179 45.4878 179 45.9544C179 46.2965 178.962 46.602 178.886 46.8698C178.81 47.1376 178.697 47.3877 178.548 47.6189C178.398 47.8491 178.211 48.0719 177.986 48.2864C177.761 48.5008 177.499 48.7268 177.201 48.9653C176.973 49.1442 176.787 49.3001 176.643 49.433C176.499 49.5658 176.387 49.6924 176.305 49.8117C176.223 49.932 176.168 50.0544 176.138 50.182C176.107 50.3097 176.093 50.4603 176.093 50.634V51.1226H173.945V51.1215ZM173.676 53.9043C173.676 53.6491 173.713 53.4336 173.786 53.2568C173.859 53.081 173.961 52.9387 174.091 52.8299C174.221 52.7211 174.375 52.6427 174.552 52.5935C174.727 52.5454 174.916 52.5202 175.118 52.5202C175.308 52.5202 175.488 52.5454 175.66 52.5935C175.83 52.6416 175.981 52.7211 176.111 52.8299C176.241 52.9387 176.345 53.081 176.421 53.2568C176.498 53.4336 176.535 53.6491 176.535 53.9043C176.535 54.1481 176.498 54.3573 176.421 54.531C176.345 54.7047 176.242 54.848 176.111 54.962C175.981 55.0764 175.826 55.161 175.66 55.21C175.488 55.2623 175.308 55.2874 175.118 55.2874C174.917 55.2874 174.728 55.2623 174.552 55.21C174.375 55.1587 174.221 55.0761 174.091 54.962C173.962 54.848 173.86 54.7047 173.786 54.531C173.713 54.3573 173.676 54.1481 173.676 53.9043Z" fill="#072AC8"/>
<defs>
<filter id="filter0_d" x="62.4805" y="10.5547" width="249.734" height="85.1396" filterUnits="userSpaceOnUse" color-interpolation-filters="sRGB">
<feFlood flood-opacity="0" result="BackgroundImageFix"/>
<feColorMatrix in="SourceAlpha" type="matrix" values="0 0 0 0 0 0 0 0 0 0 0 0 0 0 0 0 0 0 127 0"/>
<feOffset dy="4"/>
<feGaussianBlur stdDeviation="2"/>
<feColorMatrix type="matrix" values="0 0 0 0 0 0 0 0 0 0 0 0 0 0 0 0 0 0 0.25 0"/>
<feBlend mode="normal" in2="BackgroundImageFix" result="effect1_dropShadow"/>
<feBlend mode="normal" in="SourceGraphic" in2="effect1_dropShadow" result="shape"/>
</filter>
<filter id="filter1_d" x="145" y="21" width="61.2837" height="61.281" filterUnits="userSpaceOnUse" color-interpolation-filters="sRGB">
<feFlood flood-opacity="0" result="BackgroundImageFix"/>
<feColorMatrix in="SourceAlpha" type="matrix" values="0 0 0 0 0 0 0 0 0 0 0 0 0 0 0 0 0 0 127 0"/>
<feOffset dy="4"/>
<feGaussianBlur stdDeviation="2"/>
<feColorMatrix type="matrix" values="0 0 0 0 0 0 0 0 0 0 0 0 0 0 0 0 0 0 0.3 0"/>
<feBlend mode="normal" in2="BackgroundImageFix" result="effect1_dropShadow"/>
<feBlend mode="normal" in="SourceGraphic" in2="effect1_dropShadow" result="shape"/>
</filter>
<filter id="filter2_d" x="145" y="21" width="61.2837" height="61.281" filterUnits="userSpaceOnUse" color-interpolation-filters="sRGB">
<feFlood flood-opacity="0" result="BackgroundImageFix"/>
<feColorMatrix in="SourceAlpha" type="matrix" values="0 0 0 0 0 0 0 0 0 0 0 0 0 0 0 0 0 0 127 0"/>
<feOffset dy="4"/>
<feGaussianBlur stdDeviation="2"/>
<feColorMatrix type="matrix" values="0 0 0 0 0 0 0 0 0 0 0 0 0 0 0 0 0 0 0.3 0"/>
<feBlend mode="normal" in2="BackgroundImageFix" result="effect1_dropShadow"/>
<feBlend mode="normal" in="SourceGraphic" in2="effect1_dropShadow" result="shape"/>
</filter>
<linearGradient id="paint0_linear" x1="188" y1="-115" x2="188" y2="115" gradientUnits="userSpaceOnUse">
<stop stop-color="#072AC8"/>
<stop offset="1" stop-color="#1E96FC"/>
</linearGradient>
<clipPath id="clip0">
<rect width="25.2041" height="25" fill="white" transform="translate(165.825 36)"/>
</clipPath>
<clipPath id="clip1">
<rect width="25.2041" height="25" fill="white" transform="translate(165.825 36)"/>
</clipPath>
</defs>
</svg>
